<svg width="24" height="24" viewBox="0 0 24 24" fill="none" xmlns="http://www.w3.org/2000/svg">
<circle cx="12" cy="16" r="3" stroke="#002699" stroke-width="1.5"/>
<path d="M12 19.2612L9.73713 21.4306C9.41306 21.7413 9.25102 21.8967 9.1138 21.9504C8.80111 22.0729 8.45425 21.9681 8.28977 21.7014C8.21758 21.5843 8.19509 21.3732 8.1501 20.951C8.1247 20.7126 8.112 20.5934 8.07345 20.4936C7.98715 20.2701 7.80579 20.0962 7.57266 20.0134C7.46853 19.9765 7.3442 19.9643 7.09553 19.94C6.65512 19.8968 6.43491 19.8753 6.31283 19.8061C6.03463 19.6484 5.92529 19.3158 6.05306 19.0161C6.10913 18.8845 6.27116 18.7292 6.59523 18.4185L8.07345 17.0013L9.1138 15.9609" stroke="#002699" stroke-width="1.5"/>
<path d="M12 19.2607L14.2629 21.4301C14.5869 21.7408 14.749 21.8961 14.8862 21.9499C15.1989 22.0724 15.5457 21.9676 15.7102 21.7009C15.7824 21.5838 15.8049 21.3727 15.8499 20.9505C15.8753 20.7121 15.888 20.5929 15.9265 20.493C16.0129 20.2695 16.1942 20.0957 16.4273 20.0129C16.5315 19.976 16.6558 19.9638 16.9045 19.9394C17.3449 19.8963 17.5651 19.8748 17.6872 19.8055C17.9654 19.6479 18.0747 19.3153 17.9469 19.0155C17.8909 18.884 17.7288 18.7286 17.4048 18.4179L15.9265 17.0008L15 16.0742" stroke="#002699" stroke-width="1.5"/>
<path d="M17.3197 17.9957C19.2921 17.9748 20.3915 17.8512 21.1213 17.1213C22 16.2426 22 14.8284 22 12V8C22 5.17157 22 3.75736 21.1213 2.87868C20.2426 2 18.8284 2 16 2L8 2C5.17157 2 3.75736 2 2.87868 2.87868C2 3.75736 2 5.17157 2 8L2 12C2 14.8284 2 16.2426 2.87868 17.1213C3.64706 17.8897 4.82497 17.9862 7 17.9983" stroke="#002699" stroke-width="1.5"/>
<path d="M9 6L15 6" stroke="#002699" stroke-width="1.5" stroke-linecap="round"/>
<path d="M7 9.5H17" stroke="#002699" stroke-width="1.5" stroke-linecap="round"/>
</svg>
