<svg width="20" height="20" viewBox="0 0 20 20" fill="none" xmlns="http://www.w3.org/2000/svg">
<path d="M14.168 11.6673C14.6282 11.6673 15.0013 11.2942 15.0013 10.834C15.0013 10.3737 14.6282 10.0007 14.168 10.0007C13.7077 10.0007 13.3346 10.3737 13.3346 10.834C13.3346 11.2942 13.7077 11.6673 14.168 11.6673Z" fill="#2F2F2F"/>
<path d="M14.168 15.0007C14.6282 15.0007 15.0013 14.6276 15.0013 14.1673C15.0013 13.7071 14.6282 13.334 14.168 13.334C13.7077 13.334 13.3346 13.7071 13.3346 14.1673C13.3346 14.6276 13.7077 15.0007 14.168 15.0007Z" fill="#2F2F2F"/>
<path d="M10.8346 10.834C10.8346 11.2942 10.4615 11.6673 10.0013 11.6673C9.54107 11.6673 9.16797 11.2942 9.16797 10.834C9.16797 10.3737 9.54107 10.0007 10.0013 10.0007C10.4615 10.0007 10.8346 10.3737 10.8346 10.834Z" fill="#2F2F2F"/>
<path d="M10.8346 14.1673C10.8346 14.6276 10.4615 15.0007 10.0013 15.0007C9.54107 15.0007 9.16797 14.6276 9.16797 14.1673C9.16797 13.7071 9.54107 13.334 10.0013 13.334C10.4615 13.334 10.8346 13.7071 10.8346 14.1673Z" fill="#2F2F2F"/>
<path d="M5.83464 11.6673C6.29487 11.6673 6.66797 11.2942 6.66797 10.834C6.66797 10.3737 6.29487 10.0007 5.83464 10.0007C5.3744 10.0007 5.0013 10.3737 5.0013 10.834C5.0013 11.2942 5.3744 11.6673 5.83464 11.6673Z" fill="#2F2F2F"/>
<path d="M5.83464 15.0007C6.29487 15.0007 6.66797 14.6276 6.66797 14.1673C6.66797 13.7071 6.29487 13.334 5.83464 13.334C5.3744 13.334 5.0013 13.7071 5.0013 14.1673C5.0013 14.6276 5.3744 15.0007 5.83464 15.0007Z" fill="#2F2F2F"/>
<path fill-rule="evenodd" clip-rule="evenodd" d="M5.83464 1.45898C6.17981 1.45898 6.45964 1.73881 6.45964 2.08398V2.71958C7.0113 2.70897 7.61908 2.70898 8.28752 2.70898H11.715C12.3834 2.70898 12.9913 2.70897 13.543 2.71958V2.08398C13.543 1.73881 13.8228 1.45898 14.168 1.45898C14.5131 1.45898 14.793 1.73881 14.793 2.08398V2.77322C15.0096 2.78974 15.2147 2.8105 15.4088 2.8366C16.3858 2.96795 17.1766 3.24472 17.8003 3.86835C18.4239 4.49199 18.7007 5.28278 18.832 6.2598C18.9597 7.20914 18.9596 8.42215 18.9596 9.9536V11.7143C18.9596 13.2458 18.9597 14.4588 18.832 15.4082C18.7007 16.3852 18.4239 17.176 17.8003 17.7996C17.1766 18.4233 16.3858 18.7 15.4088 18.8314C14.4595 18.959 13.2465 18.959 11.715 18.959H8.28763C6.75618 18.959 5.54312 18.959 4.59378 18.8314C3.61677 18.7 2.82597 18.4233 2.20234 17.7996C1.5787 17.176 1.30194 16.3852 1.17058 15.4082C1.04295 14.4588 1.04296 13.2458 1.04297 11.7143V9.95364C1.04296 8.42217 1.04295 7.20914 1.17058 6.2598C1.30194 5.28278 1.5787 4.49199 2.20234 3.86835C2.82597 3.24472 3.61677 2.96795 4.59378 2.8366C4.78789 2.8105 4.99302 2.78974 5.20964 2.77322V2.08398C5.20964 1.73881 5.48946 1.45898 5.83464 1.45898ZM4.76034 4.07545C3.92194 4.18817 3.4389 4.39956 3.08622 4.75224C2.73355 5.10491 2.52216 5.58795 2.40943 6.42636C2.39035 6.56835 2.37438 6.71783 2.36104 6.87565H17.6416C17.6282 6.71783 17.6123 6.56835 17.5932 6.42636C17.4804 5.58795 17.2691 5.10491 16.9164 4.75224C16.5637 4.39956 16.0807 4.18817 15.2423 4.07545C14.3859 3.96031 13.257 3.95898 11.668 3.95898H8.33464C6.74562 3.95898 5.61673 3.96031 4.76034 4.07545ZM2.29297 10.0007C2.29297 9.28897 2.29324 8.66959 2.30387 8.12565H17.6987C17.7094 8.66959 17.7096 9.28897 17.7096 10.0007V11.6673C17.7096 13.2563 17.7083 14.3852 17.5932 15.2416C17.4804 16.08 17.2691 16.5631 16.9164 16.9157C16.5637 17.2684 16.0807 17.4798 15.2423 17.5925C14.3859 17.7077 13.257 17.709 11.668 17.709H8.33464C6.74562 17.709 5.61673 17.7077 4.76034 17.5925C3.92194 17.4798 3.4389 17.2684 3.08622 16.9157C2.73355 16.5631 2.52216 16.08 2.40943 15.2416C2.2943 14.3852 2.29297 13.2563 2.29297 11.6673V10.0007Z" fill="#2F2F2F"/>
</svg>
