<svg width="50" height="50" viewBox="0 0 50 50" fill="none" xmlns="http://www.w3.org/2000/svg">
<path fill-rule="evenodd" clip-rule="evenodd" d="M35.4161 5.72916C30.5261 5.72916 26.5619 9.6933 26.5619 14.5833C26.5619 16.0025 26.8947 17.3395 27.485 18.5247C27.8163 19.1898 27.9535 20.0046 27.735 20.8212L27.2078 22.7917L29.1783 22.2644C29.9948 22.0459 30.8096 22.1832 31.4747 22.5144C32.6599 23.1047 33.9969 23.4375 35.4161 23.4375C40.3061 23.4375 44.2703 19.4733 44.2703 14.5833C44.2703 9.6933 40.3061 5.72916 35.4161 5.72916ZM23.4369 14.5833C23.4369 7.96741 28.8002 2.60416 35.4161 2.60416C42.032 2.60416 47.3953 7.96741 47.3953 14.5833C47.3953 21.1992 42.032 26.5625 35.4161 26.5625C33.5026 26.5625 31.6897 26.1127 30.0815 25.3117C30.0455 25.2937 30.0165 25.2867 29.999 25.2846C29.9908 25.2835 29.9859 25.2836 29.9839 25.2838L27.6672 25.9037C25.4991 26.4837 23.5157 24.5003 24.0958 22.3322L24.7156 20.0155C24.7158 20.0135 24.7159 20.0086 24.7149 20.0004C24.7127 19.9829 24.7057 19.9539 24.6878 19.9179C23.8867 18.3097 23.4369 16.4968 23.4369 14.5833ZM7.74455 8.52525C10.2991 5.83579 14.5246 6.33968 16.6362 9.32631L19.2633 13.0419C20.9523 15.4308 20.8096 18.752 18.7938 20.8742L18.2837 21.4113C18.2823 21.415 18.2808 21.419 18.2793 21.4233C18.2523 21.4991 18.1841 21.7403 18.2512 22.1981C18.3903 23.1472 19.1229 25.0757 22.0972 28.207C25.0808 31.3483 26.8906 32.0886 27.7292 32.2248C28.091 32.2835 28.2802 32.2325 28.3406 32.2112L29.1919 31.315C31.0122 29.3985 33.8505 29.0209 36.1389 30.3381L40.1192 32.6291C43.5211 34.5872 44.3129 39.3772 41.5942 42.2395L38.6347 45.3552C37.711 46.3277 36.4515 47.1578 34.8952 47.3114C31.0954 47.6864 22.2931 47.1979 13.0652 37.4827C4.45443 28.4172 2.81864 20.532 2.61186 16.6794C2.50969 14.776 3.35819 13.1433 4.47455 11.9679L5.60745 13.044L4.47455 11.9679L7.74455 8.52525ZM14.0846 11.1304C13.0172 9.62072 11.0996 9.53064 10.0104 10.6774L6.74035 14.1201C6.04996 14.847 5.68772 15.6801 5.73237 16.5119C5.9012 19.6574 7.25574 26.8288 15.331 35.3305C23.798 44.2447 31.5986 44.4966 34.5882 44.2015C35.1793 44.1431 35.7875 43.8151 36.3689 43.2031L39.3283 40.0873C40.605 38.7432 40.2704 36.3218 38.5602 35.3375L34.58 33.0465C33.5119 32.4317 32.2607 32.6217 31.4577 33.4671L30.5088 34.4661L29.3759 33.39C30.5088 34.4661 30.5074 34.4676 30.5059 34.4691L30.503 34.4722L30.4968 34.4786L30.4836 34.492L30.4537 34.5215C30.4322 34.5423 30.4075 34.5651 30.3795 34.5897C30.3235 34.6388 30.2542 34.6948 30.1709 34.7538C30.004 34.8722 29.7817 35.0024 29.5006 35.1133C28.9256 35.3401 28.1663 35.4617 27.2282 35.3094C25.4001 35.0125 23.004 33.6994 19.8314 30.3592C16.6494 27.0092 15.4316 24.5097 15.1592 22.6512C15.0206 21.7052 15.1316 20.9477 15.3351 20.3757C15.4352 20.0944 15.5534 19.8701 15.6624 19.6997C15.7167 19.6148 15.7686 19.5437 15.8143 19.4858C15.8372 19.4569 15.8587 19.4313 15.8781 19.4088L15.9059 19.3776L15.9186 19.3638L15.9247 19.3573L15.9276 19.3542C15.9291 19.3527 15.9305 19.3512 17.0634 20.4272L15.9305 19.3512L16.528 18.7221C17.4562 17.7448 17.5911 16.0899 16.7116 14.846L14.0846 11.1304Z" fill="#D6D6D6"/>
</svg>
