<svg width="24" height="24" viewBox="0 0 24 24" fill="none" xmlns="http://www.w3.org/2000/svg">
<path d="M6.29513 4.96556C8.96195 3.028 10.2954 2.05923 11.8182 2.00336C11.9403 1.99888 12.0626 1.99888 12.1848 2.00336C13.7076 2.05923 15.041 3.028 17.7078 4.96556C20.3746 6.90311 21.708 7.87189 22.2317 9.30291C22.2738 9.41771 22.3115 9.534 22.345 9.65157C22.7625 11.1171 22.2532 12.6846 21.2345 15.8197L19.5135 21.1164C19.24 21.958 18.4558 22.5279 17.5708 22.5279C16.4427 22.5279 15.5282 21.6133 15.5282 20.4852V17.7363C15.5282 16.6778 14.6701 15.8197 13.6116 15.8197H10.3914C9.33286 15.8197 8.47476 16.6778 8.47476 17.7363V20.4852C8.47476 21.6133 7.56024 22.5279 6.43212 22.5279C5.54719 22.5279 4.7629 21.958 4.48945 21.1164L2.76842 15.8197C1.74979 12.6846 1.24047 11.1171 1.65792 9.65157C1.6914 9.534 1.72919 9.41771 1.7712 9.30291C2.29491 7.87189 3.62832 6.90311 6.29513 4.96556Z" stroke="#010E37" stroke-width="1.5"/>
</svg>
