<svg width="50" height="50" viewBox="0 0 50 50" fill="none" xmlns="http://www.w3.org/2000/svg">
<path fill-rule="evenodd" clip-rule="evenodd" d="M6.77148 21.1319C6.77148 10.9256 14.9069 2.60416 25.0007 2.60416C35.0944 2.60416 43.2298 10.9256 43.2298 21.1319C43.2298 26.0591 41.8256 31.3498 39.3432 35.9205C36.8639 40.4857 33.2415 44.4525 28.7101 46.5706C26.356 47.6709 23.6453 47.6709 21.2913 46.5706C16.7598 44.4525 13.1374 40.4857 10.6581 35.9205C8.17571 31.3498 6.77148 26.0591 6.77148 21.1319ZM25.0007 5.72916C16.6849 5.72916 9.89648 12.5989 9.89648 21.1319C9.89648 25.5008 11.152 30.2821 13.4042 34.4291C15.6595 38.5818 18.8465 41.9784 22.6145 43.7396C24.1299 44.4479 25.8714 44.4479 27.3868 43.7396C31.1548 41.9784 34.3418 38.5818 36.5971 34.4291C38.8493 30.2821 40.1048 25.5008 40.1048 21.1319C40.1048 12.5989 33.3164 5.72916 25.0007 5.72916ZM25.0007 16.1458C22.4118 16.1458 20.3132 18.2445 20.3132 20.8333C20.3132 23.4222 22.4118 25.5208 25.0007 25.5208C27.5895 25.5208 29.6882 23.4222 29.6882 20.8333C29.6882 18.2445 27.5895 16.1458 25.0007 16.1458ZM17.1882 20.8333C17.1882 16.5186 20.6859 13.0208 25.0007 13.0208C29.3154 13.0208 32.8132 16.5186 32.8132 20.8333C32.8132 25.148 29.3154 28.6458 25.0007 28.6458C20.6859 28.6458 17.1882 25.148 17.1882 20.8333Z" fill="#D6D6D6"/>
</svg>
