<svg width="50" height="50" viewBox="0 0 50 50" fill="none" xmlns="http://www.w3.org/2000/svg">
<path d="M27.6248 3.91696C27.7628 3.06511 28.5681 2.48724 29.4199 2.62516C29.4726 2.63525 29.6423 2.66696 29.7312 2.68675C29.9089 2.72634 30.1569 2.7873 30.4661 2.87735C31.0844 3.05744 31.9481 3.35412 32.9848 3.8294C35.0604 4.78097 37.8225 6.44557 40.6888 9.31182C43.555 12.1781 45.2196 14.9402 46.1712 17.0158C46.6465 18.0525 46.9432 18.9162 47.1233 19.5345C47.2133 19.8437 47.2743 20.0917 47.3138 20.2694C47.3336 20.3583 47.3481 20.4297 47.3582 20.4824L47.3702 20.5474C47.5081 21.3993 46.9355 22.2378 46.0836 22.3758C45.2342 22.5133 44.434 21.9382 44.2927 21.0903C44.2884 21.0676 44.2764 21.0064 44.2636 20.9487C44.2379 20.8334 44.1934 20.6504 44.1229 20.4084C43.9819 19.9244 43.7371 19.2049 43.3305 18.3181C42.5184 16.5466 41.058 14.1004 38.4791 11.5215C35.9002 8.94265 33.454 7.48224 31.6825 6.67009C30.7957 6.26352 30.0762 6.01866 29.5922 5.87767C29.3502 5.80719 29.0461 5.73738 28.9307 5.71168C28.0828 5.57038 27.4873 4.76638 27.6248 3.91696Z" fill="#D6D6D6"/>
<path fill-rule="evenodd" clip-rule="evenodd" d="M28.0962 11.1033C28.3333 10.2736 29.1981 9.79315 30.0278 10.0302L29.5986 11.5326C30.0278 10.0302 30.0278 10.0302 30.0278 10.0302L30.0308 10.0311L30.034 10.032L30.041 10.034L30.0571 10.0388L30.0983 10.0517C30.1298 10.0617 30.169 10.0748 30.2158 10.0914C30.3093 10.1246 30.433 10.1718 30.5847 10.2368C30.8882 10.3669 31.3029 10.5678 31.8123 10.8693C32.832 11.4728 34.2241 12.4752 35.8594 14.1106C37.4948 15.746 38.4972 17.138 39.1007 18.1577C39.4022 18.6671 39.6031 19.0818 39.7332 19.3853C39.7982 19.537 39.8454 19.6607 39.8786 19.7543C39.8952 19.801 39.9083 19.8403 39.9183 19.8717L39.9312 19.9129L39.936 19.929L39.938 19.936L39.9389 19.9392C39.9389 19.9392 39.9398 19.9422 38.4374 20.3714L39.9398 19.9422C40.1769 20.7719 39.6964 21.6367 38.8667 21.8738C38.044 22.1089 37.1868 21.6385 36.9412 20.8217L36.9335 20.7993C36.9224 20.768 36.8994 20.7064 36.8608 20.6163C36.7838 20.4365 36.644 20.1423 36.4114 19.7494C35.9469 18.9645 35.1079 17.7785 33.6497 16.3203C32.1915 14.8621 31.0055 14.0231 30.2207 13.5586C29.8278 13.326 29.5335 13.1863 29.3537 13.1092C29.2637 13.0706 29.202 13.0476 29.1707 13.0365L29.1483 13.0288C28.3315 12.7832 27.8611 11.926 28.0962 11.1033Z" fill="#D6D6D6"/>
<path fill-rule="evenodd" clip-rule="evenodd" d="M10.4328 9.18105C13.933 5.68091 19.8395 5.94699 22.2766 10.3139L23.6288 12.7367C25.2203 15.5884 24.542 19.1865 22.2123 21.5447C22.1812 21.5873 22.0168 21.8267 21.9963 22.2451C21.9701 22.7791 22.1598 24.014 24.0732 25.9274C25.986 27.8402 27.2207 28.0303 27.755 28.0043C28.1737 27.9839 28.4133 27.8194 28.4559 27.7883C30.8142 25.4585 34.4122 24.7804 37.2639 26.3718L39.6867 27.724C44.0536 30.1611 44.3197 36.0676 40.8196 39.5678C38.9473 41.44 36.4579 43.1035 33.5325 43.2144C29.1973 43.3788 21.9988 42.2592 14.8701 35.1305C7.74141 28.0018 6.62185 20.8034 6.7862 16.4681C6.8971 13.5427 8.56063 11.0533 10.4328 9.18105ZM19.5478 11.8368C18.2999 9.60068 14.9464 9.08695 12.6425 11.3908C11.0272 13.0061 9.9771 14.789 9.90896 16.5865C9.7719 20.2018 10.6645 26.5054 17.0798 32.9208C23.4952 39.3361 29.7988 40.2287 33.4141 40.0916C35.2116 40.0235 36.9945 38.9734 38.6098 37.3581C40.9137 35.0542 40.3999 31.7007 38.1638 30.4528L35.741 29.1007C34.2339 28.2596 32.117 28.5465 30.6309 30.0325C30.4849 30.1784 29.5557 31.0454 27.9068 31.1256C26.2188 31.2077 24.1757 30.4493 21.8635 28.1371C19.5505 25.8242 18.7924 23.7804 18.875 22.0922C18.9558 20.4432 19.8229 19.5149 19.968 19.3698C21.4541 17.8837 21.741 15.7667 20.9 14.2596L19.5478 11.8368Z" fill="#D6D6D6"/>
</svg>
