<svg width="50" height="50" viewBox="0 0 50 50" fill="none" xmlns="http://www.w3.org/2000/svg">
<path fill-rule="evenodd" clip-rule="evenodd" d="M24.8831 2.60417H25.1182C28.9469 2.60414 31.9794 2.60411 34.3528 2.9232C36.7953 3.2516 38.7723 3.94351 40.3314 5.5026C41.8905 7.06169 42.5824 9.03866 42.9108 11.4812C43.2299 13.8546 43.2298 16.8871 43.2298 20.7158V29.2842C43.2298 33.1129 43.2299 36.1454 42.9108 38.5188C42.5824 40.9613 41.8905 42.9383 40.3314 44.4974C38.7723 46.0565 36.7953 46.7484 34.3528 47.0768C31.9794 47.3959 28.9468 47.3959 25.1182 47.3958H24.8831C21.0545 47.3959 18.0219 47.3959 15.6485 47.0768C13.206 46.7484 11.229 46.0565 9.66991 44.4974C8.11082 42.9383 7.41891 40.9613 7.09052 38.5188C6.77143 36.1454 6.77145 33.1129 6.77149 29.2842V20.7158C6.77145 16.8871 6.77143 13.8546 7.09052 11.4812C7.41891 9.03866 8.11082 7.06169 9.66991 5.5026C11.229 3.94351 13.206 3.2516 15.6485 2.9232C18.0219 2.60411 21.0545 2.60414 24.8831 2.60417ZM16.0649 6.02034C13.9689 6.30214 12.7613 6.83062 11.8796 7.7123C10.9979 8.59399 10.4695 9.80159 10.1876 11.8976C9.8998 14.0386 9.89649 16.8608 9.89649 20.8333V29.1667C9.89649 33.1392 9.8998 35.9614 10.1876 38.1024C10.4695 40.1984 10.9979 41.406 11.8796 42.2877C12.7613 43.1694 13.9689 43.6979 16.0649 43.9797C18.2059 44.2675 21.0281 44.2708 25.0007 44.2708C28.9732 44.2708 31.7954 44.2675 33.9364 43.9797C36.0324 43.6979 37.24 43.1694 38.1217 42.2877C39.0034 41.406 39.5319 40.1984 39.8137 38.1024C40.1015 35.9614 40.1048 33.1392 40.1048 29.1667V20.8333C40.1048 16.8608 40.1015 14.0386 39.8137 11.8976C39.5319 9.80159 39.0034 8.59399 38.1217 7.7123C37.24 6.83062 36.0324 6.30214 33.9364 6.02034C31.7954 5.73249 28.9732 5.72917 25.0007 5.72917C21.0281 5.72917 18.2059 5.73249 16.0649 6.02034ZM17.1882 10.4167C17.1882 9.55373 17.8877 8.85417 18.7507 8.85417H31.2507C32.1136 8.85417 32.8132 9.55373 32.8132 10.4167C32.8132 11.2796 32.1136 11.9792 31.2507 11.9792H18.7507C17.8877 11.9792 17.1882 11.2796 17.1882 10.4167ZM25.0007 32.8125C23.5624 32.8125 22.3965 33.9784 22.3965 35.4167C22.3965 36.8549 23.5624 38.0208 25.0007 38.0208C26.4389 38.0208 27.6048 36.8549 27.6048 35.4167C27.6048 33.9784 26.4389 32.8125 25.0007 32.8125ZM19.2715 35.4167C19.2715 32.2525 21.8365 29.6875 25.0007 29.6875C28.1648 29.6875 30.7298 32.2525 30.7298 35.4167C30.7298 38.5808 28.1648 41.1458 25.0007 41.1458C21.8365 41.1458 19.2715 38.5808 19.2715 35.4167Z" fill="#D6D6D6"/>
</svg>
