<svg width="20" height="20" viewBox="0 0 20 20" fill="none" xmlns="http://www.w3.org/2000/svg">
<g clip-path="url(#clip0_4523_1702)">
<path d="M10.0013 18.3327C6.07293 18.3327 4.10875 18.3327 2.88836 17.1123C1.66797 15.8919 1.66797 13.9277 1.66797 9.99935C1.66797 6.07098 1.66797 4.10679 2.88836 2.8864C4.10875 1.66602 6.07293 1.66602 10.0013 1.66602C13.9297 1.66602 15.8939 1.66602 17.1142 2.8864C18.3346 4.10679 18.3346 6.07098 18.3346 9.99935C18.3346 13.9277 18.3346 15.8919 17.1142 17.1123C15.8939 18.3327 13.9297 18.3327 10.0013 18.3327Z" stroke="#002699" stroke-width="1.5"/>
<path d="M4.58203 7.29842C4.58203 5.79928 5.88787 4.58398 7.4987 4.58398C9.10953 4.58398 10.4154 5.79928 10.4154 7.29842C10.4154 8.78581 9.48447 10.5215 8.03206 11.1421C7.69348 11.2868 7.30392 11.2868 6.96534 11.1421C5.51293 10.5215 4.58203 8.78581 4.58203 7.29842Z" stroke="#002699" stroke-width="1.5"/>
<path d="M11.6664 11.6671L17.0831 17.0838M11.6664 11.6671L5.32812 18.0054M11.6664 11.6671L18.0054 5.32812" stroke="#002699" stroke-width="1.5" stroke-linecap="round"/>
<path d="M8.33464 7.49935C8.33464 7.95959 7.96154 8.33268 7.5013 8.33268C7.04106 8.33268 6.66797 7.95959 6.66797 7.49935C6.66797 7.03911 7.04106 6.66602 7.5013 6.66602C7.96154 6.66602 8.33464 7.03911 8.33464 7.49935Z" fill="#002699"/>
</g>
<defs>
<clipPath id="clip0_4523_1702">
<rect width="20" height="20" fill="white"/>
</clipPath>
</defs>
</svg>
