<svg width="20" height="20" viewBox="0 0 20 20" fill="none" xmlns="http://www.w3.org/2000/svg">
<g clip-path="url(#clip0_4523_1711)">
<path d="M1.66797 11.6667C1.66797 8.52397 1.66797 6.95262 2.64428 5.97631C3.62059 5 5.19194 5 8.33464 5H11.668C14.8107 5 16.382 5 17.3583 5.97631C18.3346 6.95262 18.3346 8.52397 18.3346 11.6667C18.3346 14.8094 18.3346 16.3807 17.3583 17.357C16.382 18.3333 14.8107 18.3333 11.668 18.3333H8.33464C5.19194 18.3333 3.62059 18.3333 2.64428 17.357C1.66797 16.3807 1.66797 14.8094 1.66797 11.6667Z" stroke="#002699" stroke-width="1.5"/>
<path d="M13.3346 4.99935C13.3346 3.428 13.3346 2.64233 12.8465 2.15417C12.3583 1.66602 11.5727 1.66602 10.0013 1.66602C8.42995 1.66602 7.64428 1.66602 7.15612 2.15417C6.66797 2.64233 6.66797 3.428 6.66797 4.99935" stroke="#002699" stroke-width="1.5"/>
<path d="M8.33464 12.5H5.0013C4.60847 12.5 4.41205 12.5 4.29001 12.622C4.16797 12.7441 4.16797 12.9405 4.16797 13.3333V14.1667C4.16797 14.5595 4.16797 14.7559 4.29001 14.878C4.41205 15 4.60847 15 5.0013 15H8.33464C8.72747 15 8.92389 15 9.04593 14.878C9.16797 14.7559 9.16797 14.5595 9.16797 14.1667V13.3333C9.16797 12.9405 9.16797 12.7441 9.04593 12.622C8.92389 12.5 8.72747 12.5 8.33464 12.5Z" stroke="#002699" stroke-width="1.5" stroke-linejoin="round"/>
<path d="M5 5.41602V12.4993M5 17.916V15.416" stroke="#002699" stroke-width="1.5" stroke-linecap="round"/>
<path d="M15 5.41602V17.916" stroke="#002699" stroke-width="1.5" stroke-linecap="round"/>
</g>
<defs>
<clipPath id="clip0_4523_1711">
<rect width="20" height="20" fill="white"/>
</clipPath>
</defs>
</svg>
