<svg width="20" height="20" viewBox="0 0 20 20" fill="none" xmlns="http://www.w3.org/2000/svg">
<path fill-rule="evenodd" clip-rule="evenodd" d="M5.37203 1.45899H5.4587C6.20742 1.45896 6.83179 1.45894 7.32743 1.52558C7.8506 1.59592 8.32293 1.75064 8.70249 2.1302C9.08205 2.50976 9.23677 2.98209 9.30711 3.50525C9.37375 4.0009 9.37373 4.62524 9.3737 5.37397V14.6273C9.37373 15.376 9.37375 16.0004 9.30711 16.4961C9.23677 17.0192 9.08205 17.4916 8.70249 17.8711C8.32293 18.2507 7.8506 18.4054 7.32743 18.4757C6.83178 18.5424 6.20743 18.5423 5.4587 18.5423H5.37204C4.6233 18.5423 3.99895 18.5424 3.5033 18.4757C2.98014 18.4054 2.50781 18.2507 2.12825 17.8711C1.74869 17.4916 1.59396 17.0192 1.52363 16.4961C1.45699 16.0004 1.45701 15.3761 1.45703 14.6273V5.37399C1.45701 4.62526 1.45699 4.0009 1.52363 3.50525C1.59396 2.98209 1.74869 2.50976 2.12825 2.1302C2.50781 1.75064 2.98014 1.59592 3.5033 1.52558C3.99895 1.45894 4.62331 1.45896 5.37203 1.45899ZM3.66986 2.76443C3.28531 2.81613 3.12073 2.90549 3.01213 3.01408C2.90353 3.12268 2.81418 3.28726 2.76248 3.67181C2.70836 4.07434 2.70703 4.61398 2.70703 5.41732V14.584C2.70703 15.3873 2.70836 15.927 2.76248 16.3295C2.81418 16.714 2.90353 16.8786 3.01213 16.9872C3.12073 17.0958 3.28531 17.1852 3.66986 17.2369C4.07239 17.291 4.61202 17.2923 5.41537 17.2923C6.21871 17.2923 6.75834 17.291 7.16087 17.2369C7.54543 17.1852 7.71001 17.0958 7.8186 16.9872C7.9272 16.8786 8.01655 16.714 8.06825 16.3295C8.12237 15.927 8.1237 15.3873 8.1237 14.584V5.41732C8.1237 4.61398 8.12237 4.07434 8.06825 3.67181C8.01655 3.28726 7.9272 3.12268 7.8186 3.01408C7.71001 2.90549 7.54543 2.81613 7.16087 2.76443C6.75834 2.71031 6.21871 2.70899 5.41537 2.70899C4.61202 2.70899 4.07239 2.71031 3.66986 2.76443Z" fill="#2F2F2F"/>
<path fill-rule="evenodd" clip-rule="evenodd" d="M14.5387 8.95899H14.6254C15.3741 8.95896 15.9985 8.95894 16.4941 9.02558C17.0173 9.09592 17.4896 9.25064 17.8692 9.6302C18.2487 10.0098 18.4034 10.4821 18.4738 11.0053C18.5404 11.5009 18.5404 12.1252 18.5404 12.8739V14.6273C18.5404 15.376 18.5404 16.0004 18.4738 16.4961C18.4034 17.0192 18.2487 17.4916 17.8692 17.8711C17.4896 18.2507 17.0173 18.4054 16.4941 18.4757C15.9985 18.5424 15.3741 18.5423 14.6254 18.5423H14.5387C13.79 18.5423 13.1656 18.5424 12.67 18.4757C12.1468 18.4054 11.6745 18.2507 11.2949 17.8711C10.9154 17.4916 10.7606 17.0192 10.6903 16.4961C10.6237 16.0004 10.6237 15.3761 10.6237 14.6273V12.874C10.6237 12.1253 10.6237 11.5009 10.6903 11.0053C10.7606 10.4821 10.9154 10.0098 11.2949 9.6302C11.6745 9.25064 12.1468 9.09592 12.67 9.02558C13.1656 8.95894 13.79 8.95896 14.5387 8.95899ZM12.8365 10.2644C12.452 10.3161 12.2874 10.4055 12.1788 10.5141C12.0702 10.6227 11.9808 10.7873 11.9291 11.1718C11.875 11.5743 11.8737 12.114 11.8737 12.9173V14.584C11.8737 15.3873 11.875 15.927 11.9291 16.3295C11.9808 16.714 12.0702 16.8786 12.1788 16.9872C12.2874 17.0958 12.452 17.1852 12.8365 17.2369C13.2391 17.291 13.7787 17.2923 14.582 17.2923C15.3854 17.2923 15.925 17.291 16.3275 17.2369C16.7121 17.1852 16.8767 17.0958 16.9853 16.9872C17.0939 16.8786 17.1832 16.714 17.2349 16.3295C17.289 15.927 17.2904 15.3873 17.2904 14.584V12.9173C17.2904 12.114 17.289 11.5743 17.2349 11.1718C17.1832 10.7873 17.0939 10.6227 16.9853 10.5141C16.8767 10.4055 16.7121 10.3161 16.3275 10.2644C15.925 10.2103 15.3854 10.209 14.582 10.209C13.7787 10.209 13.2391 10.2103 12.8365 10.2644Z" fill="#2F2F2F"/>
<path fill-rule="evenodd" clip-rule="evenodd" d="M13.7277 1.45899C13.3573 1.45898 13.0481 1.45898 12.7942 1.4763C12.53 1.49432 12.2804 1.53319 12.0384 1.63343C11.4769 1.86602 11.0307 2.31215 10.7981 2.87367C10.6979 3.11566 10.659 3.36527 10.641 3.62952C10.6237 3.88336 10.6237 4.19256 10.6237 4.56295V4.60503C10.6237 4.97541 10.6237 5.28461 10.641 5.53846C10.659 5.80271 10.6979 6.05231 10.7981 6.2943C11.0307 6.85583 11.4769 7.30195 12.0384 7.53454C12.2804 7.63478 12.53 7.67365 12.7942 7.69168C13.0481 7.709 13.3573 7.70899 13.7277 7.70899H15.4364C15.8068 7.70899 16.116 7.709 16.3698 7.69168C16.6341 7.67365 16.8837 7.63478 17.1257 7.53454C17.6872 7.30195 18.1333 6.85583 18.3659 6.2943C18.4662 6.05231 18.505 5.80271 18.5231 5.53846C18.5404 5.28461 18.5404 4.97542 18.5404 4.60503V4.56294C18.5404 4.19256 18.5404 3.88336 18.5231 3.62952C18.505 3.36527 18.4662 3.11566 18.3659 2.87367C18.1333 2.31215 17.6872 1.86602 17.1257 1.63343C16.8837 1.53319 16.6341 1.49432 16.3698 1.4763C16.116 1.45898 15.8068 1.45898 15.4365 1.45899H13.7277ZM12.5167 2.78828C12.581 2.76165 12.6787 2.73708 12.8793 2.7234C13.0855 2.70933 13.3519 2.70899 13.7487 2.70899H15.4154C15.8122 2.70899 16.0785 2.70933 16.2848 2.7234C16.4854 2.73708 16.583 2.76165 16.6473 2.78828C16.9026 2.894 17.1054 3.09679 17.2111 3.35203C17.2377 3.41632 17.2623 3.514 17.276 3.71461C17.29 3.92083 17.2904 4.18715 17.2904 4.58399C17.2904 4.98082 17.29 5.24715 17.276 5.45337C17.2623 5.65398 17.2377 5.75166 17.2111 5.81595C17.1054 6.07119 16.9026 6.27397 16.6473 6.3797C16.583 6.40633 16.4854 6.43089 16.2848 6.44458C16.0785 6.45865 15.8122 6.45899 15.4154 6.45899H13.7487C13.3519 6.45899 13.0855 6.45865 12.8793 6.44458C12.6787 6.43089 12.581 6.40633 12.5167 6.3797C12.2615 6.27397 12.0587 6.07119 11.953 5.81595C11.9264 5.75166 11.9018 5.65398 11.8881 5.45337C11.874 5.24715 11.8737 4.98082 11.8737 4.58399C11.8737 4.18715 11.874 3.92083 11.8881 3.71461C11.9018 3.514 11.9264 3.41632 11.953 3.35203C12.0587 3.09679 12.2615 2.894 12.5167 2.78828Z" fill="#2F2F2F"/>
</svg>
