<?xml version="1.0" standalone="no"?>
<!DOCTYPE svg PUBLIC "-//W3C//DTD SVG 1.1//EN" "http://www.w3.org/Graphics/SVG/1.1/DTD/svg11.dtd" >
<svg xmlns="http://www.w3.org/2000/svg" xmlns:xlink="http://www.w3.org/1999/xlink" version="1.1">
<metadata>
Created by FontForge 20201107 at Tue Jun  9 12:50:46 2020
 By 
Copyright (c) 2019 by www.fontiran.com All rights reserved.
</metadata>
<defs>
<font id="Peyda-Medium" horiz-adv-x="0" >
  <font-face 
    font-family="Peyda Med"
    font-weight="500"
    font-stretch="normal"
    units-per-em="1000"
    panose-1="0 0 0 0 0 0 0 0 0 0"
    ascent="800"
    descent="-200"
    x-height="499"
    cap-height="687"
    bbox="-214 -417 1456 1166.39"
    underline-thickness="50"
    underline-position="-225"
    unicode-range="U+000D-FEFC"
  />
<missing-glyph horiz-adv-x="250" 
 />
    <glyph glyph-name="uniFDF2" unicode="&#x627;&#xfedf;&#xfee0;&#xfeea;" horiz-adv-x="1265" arabic-form="isolated" 
d="M916 560h82v-397q0 -33 -13 -63t-35 -52t-51.5 -35t-62.5 -13h-48q-36 0 -67 15.5t-53 40.5q-23 -25 -54 -40.5t-67 -15.5h-62q-46 0 -83 25t-57 63q-8 -5 -18.5 -8.5t-22.5 -3.5h-129q-48 0 -76.5 28.5t-28.5 76.5v65q0 62 35 106t89 58l133 35v84h82v-360
q0 -29 22.5 -50t52.5 -21h77q27 0 46 19.5t19 45.5v290h82v-294q2 -26 20 -43.5t42 -17.5h81q26 0 45.5 19t19.5 46v397zM327 173v7v175l-113 -30q-28 -7 -45 -30.5t-17 -52.5v-69h175zM1202 668v-668h-83v668h83zM697 756v146h-57v-146h57zM600 544q18 0 34.5 7t28.5 21
q11 -14 26 -21t32 -7h37q26 0 44.5 18.5t18.5 44.5v114h-58v-113h-42q-11 0 -20.5 7t-6.5 20l13 67l-57 10l-16 -77q-2 -11 -12 -19t-21 -8h-6q-11 0 -20.5 9t-9.5 21v80h-58v-80q0 -19 7.5 -36.5t20 -30t29.5 -20t36 -7.5z" />
    <glyph glyph-name="uniFEF5" unicode="&#xfedf;&#xfe82;" horiz-adv-x="542" arabic-form="isolated" 
d="M485 668v-488q0 -72 -40.5 -116t-102.5 -53l-275 -39l-11 88l108 14l-48 518l83 12l46 -520l86 11q33 5 52.5 27t19.5 58v488h82zM44 629v39q0 6 4.5 10.5t10.5 4.5h201v73h-196q-35 0 -59 -24t-25 -59v-44h64z" />
    <glyph glyph-name="uniFEF6" unicode="&#xfee0;&#xfe82;" horiz-adv-x="599" arabic-form="final" 
d="M613 14q0 -5 -4 -9.5t-10 -4.5h-36q-38 0 -69.5 16.5t-53.5 43.5q-38 -41 -98 -49l-275 -39l-11 87l108 14l-48 519l82 11l46 -520l87 12q33 4 52.5 26t19.5 58v488h83v-506q0 -32 20.5 -47.5t47.5 -15.5h45q14 0 14 -14v-70zM44 629v39q0 6 4.5 10.5t10.5 4.5h201v73
h-196q-35 0 -58.5 -24t-24.5 -59v-44h63z" />
    <glyph glyph-name="uniFEF7" unicode="&#xfedf;&#xfe84;" horiz-adv-x="541" arabic-form="isolated" 
d="M481 667v-488q0 -72 -40.5 -116t-102.5 -53l-275 -38l-11 87l108 14l-48 518l83 12l46 -520l86 11q33 5 52.5 27t19.5 58v488h82zM53 682l76 35q-3 0 -8.5 4t-10.5 12l-7 14t-10 19q-10 21 -10 41t7.5 38t21 31.5t31.5 20.5l77 32l24 -59l-77 -34q-12 -5 -18 -19.5
t2 -28.5q2 -5 10.5 -21.5t13.5 -26.5l129 67l27 -56l-250 -128z" />
    <glyph glyph-name="uniFEF8" unicode="&#xfee0;&#xfe84;" horiz-adv-x="595" arabic-form="final" 
d="M609 14q0 -5 -4 -9.5t-10 -4.5h-36q-38 0 -69.5 16t-53.5 43q-38 -41 -98 -49l-275 -39l-11 87l108 14l-48 519l82 11l46 -520l87 12q33 4 52.5 26t19.5 58v489h83v-507q0 -32 20.5 -47t47.5 -15h45q14 0 14 -14v-70zM58 682l76 35q-1 0 -7 2.5t-11 12.5q-2 3 -8 15
t-9 19q-10 20 -10 40.5t7 38t20.5 31.5t31.5 21l77 32l24 -59l-77 -34q-12 -5 -18 -19.5t2 -28.5q3 -5 11.5 -21.5t13.5 -26.5l128 67l28 -57l-250 -127z" />
    <glyph glyph-name="uniFEF9" unicode="&#xfedf;&#xfe88;" horiz-adv-x="540" arabic-form="isolated" 
d="M480 667v-488q0 -72 -40.5 -116t-102.5 -53l-275 -38l-11 87l108 14l-48 518l83 12l46 -520l86 11q33 5 52.5 27t19.5 58v488h82zM88 -319q12 6 35.5 16.5t41.5 18.5q-1 1 -7.5 3.5t-12.5 13.5q-1 2 -7 13.5t-9 18.5q-10 21 -10 41t7 38t20.5 31.5t31.5 21.5l77 32
l24 -59l-77 -34q-12 -5 -18 -20t2 -29q2 -5 11 -21.5t14 -26.5q19 10 41 21.5t42 21.5q22 12 45 24l28 -56l-251 -127z" />
    <glyph glyph-name="uniFEFA" unicode="&#xfee0;&#xfe88;" horiz-adv-x="594" arabic-form="final" 
d="M608 14q0 -5 -4 -9.5t-10 -4.5h-36q-38 0 -69.5 16.5t-53.5 43.5q-38 -41 -98 -49l-275 -39l-11 87l108 14l-48 519l82 11l46 -520l87 12q33 4 52.5 26t19.5 58v488h82v-506q0 -32 21 -47.5t48 -15.5h45q14 0 14 -14v-70zM88 -318l76 36q-3 0 -7 2q-6 3 -12 13l-7 14
t-10 19q-10 20 -10 40.5t7.5 38t21 31t31.5 21.5l77 33l24 -60l-77 -34q-13 -5 -18.5 -19.5t2.5 -28.5q2 -5 10.5 -21.5t13.5 -25.5l129 66l27 -56l-250 -128z" />
    <glyph glyph-name="uniFEFB" unicode="&#xfedf;&#xfe8e;" horiz-adv-x="540" arabic-form="isolated" 
d="M480 668v-488q0 -72 -40.5 -116t-102.5 -53l-275 -39l-11 88l108 14l-48 518l83 12l46 -520l86 11q33 5 52.5 27t19.5 58v488h82z" />
    <glyph glyph-name="uniFEFC" unicode="&#xfee0;&#xfe8e;" horiz-adv-x="594" arabic-form="final" 
d="M608 14q0 -5 -4 -9.5t-10 -4.5h-36q-38 0 -69.5 16.5t-53.5 43.5q-38 -41 -98 -49l-275 -39l-11 87l108 14l-48 519l82 11l46 -520l87 12q33 4 52.5 26t19.5 58v489h82v-507q0 -32 21 -47.5t48 -15.5h45q14 0 14 -14v-70z" />
    <glyph glyph-name="uniFEB3FBFD" unicode="&#xfeb3;&#xfbfd;" horiz-adv-x="1323" 
d="M795 148q13 -20 33.5 -35t47.5 -15q28 0 48.5 16.5t25.5 41.5l33 165l81 -14l-28 -139q-2 -13 2 -26t12.5 -22.5t21 -15.5t26.5 -6h83v258h82v-255q0 -44 -28 -72.5t-73 -28.5h-64q-67 0 -104 65q-21 -33 -52 -49t-68 -16q-45 0 -79 24t-66 73l-84 129q-16 24 -42.5 36.5
t-54.5 8.5l-64 -8q-37 -5 -59.5 -33.5t-22.5 -65.5v-20l169 -39q35 -8 55.5 -34.5t20.5 -61.5v-35q0 -39 -13 -73.5t-37 -60t-57 -40t-72 -14.5h-190q-43 0 -81 16.5t-66 44.5t-44.5 66t-16.5 81v247h82v-233q0 -26 10 -48.5t26.5 -39.5t39.5 -26.5t48 -9.5h189q21 0 39 7.5
t32 21t21.5 31.5t7.5 39v36l-244 57v88q0 38 13.5 70.5t36.5 57t53 40.5t63 20l54 8q47 7 91 -13.5t71 -59.5z" />
    <glyph glyph-name="uniFEB4FBFD" unicode="&#xfeb4;&#xfbfd;" horiz-adv-x="1365" 
d="M1098 97h14q28 0 46.5 19t18.5 46v192h82v-196q0 -26 19.5 -43t45.5 -17h41q6 0 10.5 -4t4.5 -11v-69q-2 -14 -15 -14h-27q-36 0 -67 16t-52 48q-23 -32 -50.5 -48.5t-63.5 -16.5q-33 0 -63 16t-48 49q-21 -33 -52 -49t-67 -16q-46 0 -80.5 23.5t-66.5 72.5l-83 130
q-16 23 -42.5 35t-54.5 10l-65 -9q-18 -3 -33 -11.5t-26 -22t-17.5 -30t-6.5 -34.5v-21l171 -39q34 -8 55 -34t21 -62v-35q0 -39 -13 -73t-37 -59.5t-56.5 -40.5t-71.5 -15h-192q-43 0 -81 16.5t-66 45t-44 66t-16 80.5v248h82v-234q0 -26 9.5 -48.5t26.5 -39t39.5 -26.5
t48.5 -10h189q21 0 39.5 7.5t32 21t21.5 31.5t7 39v36l-244 58v87q0 38 14 70.5t37 57.5t52.5 41t62.5 20l53 8q48 6 92 -14.5t71 -59.5l92 -139q14 -20 34.5 -34.5t46.5 -14.5q28 0 48.5 16t25.5 41l33 166l80 -15l-27 -139q-5 -28 14 -48.5t48 -20.5z" />
    <glyph glyph-name="uniFEB7FBFD" unicode="&#xfeb7;&#xfbfd;" horiz-adv-x="1320" 
d="M795 147q13 -20 33.5 -34.5t46.5 -14.5q29 0 49.5 16t25.5 40l32 166l82 -14l-28 -139q-4 -28 14.5 -48.5t46.5 -20.5h83v257h83v-255q0 -44 -28.5 -72t-73.5 -28h-64q-32 0 -58.5 15t-44.5 49q-21 -34 -52 -49t-68 -15q-46 0 -80 23t-66 72l-83 130q-15 23 -42 35t-55 9
l-65 -8q-18 -3 -32.5 -11.5t-25.5 -22t-17 -30t-6 -34.5v-20l169 -39q34 -8 55 -34.5t21 -61.5v-35q0 -39 -13 -73.5t-37 -60t-57 -40t-72 -14.5h-191q-43 0 -81 16.5t-66 44.5t-44 66t-16 81v248h82v-235q0 -25 10 -47.5t26.5 -39t39.5 -26.5t48 -10h189q42 0 71 28.5
t29 70.5v35l-244 58v88q0 38 14 70.5t37 57t52.5 40.5t62.5 21l53 7q47 7 92 -13.5t71 -59.5zM931 656h94v-94h-94v94zM1006 524h95v-94h-95v94zM859 524h94v-94h-94v94z" />
    <glyph glyph-name="uniFEB8FBFD" unicode="&#xfeb8;&#xfbfd;" horiz-adv-x="1365" 
d="M1112 98q28 0 46.5 19.5t18.5 46.5v192h82v-196q0 -26 19.5 -44t45.5 -18h41q6 0 10.5 -4t4.5 -10v-70q-2 -14 -15 -14h-27q-36 0 -67 17t-52 49q-23 -32 -50.5 -49t-63.5 -17q-33 0 -63 16.5t-48 49.5q-20 -33 -51 -49.5t-68 -16.5q-46 0 -80.5 24t-66.5 73l-84 130
q-15 23 -41.5 35t-54.5 10l-65 -9q-18 -3 -33 -11.5t-26 -22t-17 -30t-6 -34.5v-21l170 -39q34 -8 54.5 -34t20.5 -62v-35q0 -39 -13 -73t-36.5 -59.5t-56 -40.5t-71.5 -15h-192q-43 0 -81 16.5t-66 45t-44 66t-16 80.5v248h82v-234q0 -26 10 -48.5t26.5 -39t39.5 -26.5
t48 -10h189q42 0 70.5 28.5t28.5 70.5v36l-243 58v87q0 38 14 70.5t37 57.5t52.5 41t62.5 20l53 8q23 3 46.5 -1t44.5 -13.5t39.5 -24.5t31.5 -35l93 -139q14 -20 34.5 -35t46.5 -15q28 0 48.5 16.5t25.5 41.5l33 166l81 -15l-28 -139q-5 -28 14 -49t48 -21h14zM1101 430
h-95v95h95v-95zM954 430h-95v95h95v-95zM1025 562h-95v95h95v-95z" />
    <glyph glyph-name="uniFEBBFBFD" unicode="&#xfebb;&#xfbfd;" horiz-adv-x="1400" 
d="M790 166q5 -7 14.5 -19t14.5 -18l161 174q30 32 69.5 50t84.5 18h61q30 0 57 -11.5t47 -32t31.5 -47.5t11.5 -57v-67q0 -32 -12 -60.5t-33 -49.5t-49 -33.5t-60 -12.5h-302q-49 0 -83 23.5t-66 71.5l-83 130q-15 24 -41 36.5t-55 8.5l-73 -9q-18 -2 -33 -10.5t-26.5 -22
t-17.5 -30t-6 -34.5v-23l169 -38q34 -8 54.5 -33.5t20.5 -60.5v-36q0 -39 -13 -73.5t-36.5 -60.5t-56 -41t-70.5 -15h-192q-43 0 -81 16.5t-66 45t-44.5 67t-16.5 81.5v247h82v-234q0 -26 9.5 -48.5t26.5 -39.5t40 -27t49 -10h189q21 0 39 8t31 22t20.5 32t7.5 39v35
l-242 58v87q0 39 14 71.5t36.5 57.5t53 40.5t63.5 19.5l63 8q47 7 90.5 -13t68.5 -59zM897 98h302q26 0 43.5 17t17.5 43v58q0 26 -18.5 44.5t-44.5 18.5h-72q-29 0 -54 -12t-45 -32z" />
    <glyph glyph-name="uniFEBCFBFD" unicode="&#xfebc;&#xfbfd;" horiz-adv-x="1442" 
d="M716 286q1 -1 9 -14t18.5 -29.5t21 -32.5t14.5 -24q2 -2 8 -10t12.5 -17.5t13 -17.5t7.5 -10l160 173q30 32 70 50t85 18h61q31 0 58 -12t47.5 -32.5t32.5 -47.5t12 -58v-57q0 -27 18.5 -47t44.5 -20h33q14 0 14 -14v-70q0 -5 -4 -9.5t-10 -4.5h-19q-36 0 -66 13.5
t-51 38.5q-21 -25 -51.5 -38.5t-66.5 -13.5h-300q-50 0 -83 23t-65 71l-84 130q-16 24 -43 36t-56 8l-71 -8q-18 -2 -33.5 -11t-27.5 -22t-18.5 -29.5t-6.5 -34.5v-22l171 -37q35 -8 56 -34.5t21 -61.5v-36q0 -39 -13 -73.5t-36.5 -60t-56 -40t-71.5 -14.5h-194
q-43 0 -81 16t-66.5 44.5t-45 66t-16.5 81.5v250h82v-236q0 -26 10 -48.5t27 -39.5t40 -26.5t49 -9.5h191q20 0 38 8t31.5 21.5t21.5 31.5t8 38v35l-246 58v88q0 38 14 70.5t37 58t54 41.5t64 20l64 9q48 6 92.5 -13.5t70.5 -61.5zM900 98h302q25 0 42.5 17.5t17.5 41.5v59
q0 25 -18.5 43t-43.5 18h-74q-28 0 -54 -11.5t-45 -31.5z" />
    <glyph glyph-name="uniFEBFFBFD" unicode="&#xfebf;&#xfbfd;" horiz-adv-x="1400" 
d="M1102 574h95v-96h-95v96zM790 166q5 -7 14.5 -19t14.5 -18l161 174q30 32 69.5 50t84.5 18h61q30 0 57 -11.5t47 -32t31.5 -47.5t11.5 -57v-67q0 -32 -12 -60.5t-33 -49.5t-49 -33.5t-60 -12.5h-302q-49 0 -83 23.5t-66 71.5l-83 130q-15 24 -41 36.5t-55 8.5l-73 -9
q-18 -2 -33 -10.5t-26.5 -22t-17.5 -30t-6 -34.5v-23l169 -38q34 -8 54.5 -33.5t20.5 -60.5v-36q0 -39 -13 -73.5t-36.5 -60.5t-56 -41t-70.5 -15h-192q-43 0 -81 16.5t-66 45t-44.5 67t-16.5 81.5v247h82v-234q0 -26 9.5 -48.5t26.5 -39.5t40 -27t49 -10h189q21 0 39 8
t31 22t20.5 32t7.5 39v35l-242 58v87q0 39 14 71.5t36.5 57.5t53 40.5t63.5 19.5l63 8q47 7 90.5 -13t68.5 -59zM897 98h302q26 0 43.5 17t17.5 43v58q0 26 -18.5 44.5t-44.5 18.5h-72q-29 0 -54 -12t-45 -32z" />
    <glyph glyph-name="uniFEC0FBFD" unicode="&#xfec0;&#xfbfd;" horiz-adv-x="1439" 
d="M1106 480v95h95v-95h-95zM714 287q1 -1 9.5 -14.5t19 -30.5t21.5 -33t16 -24q1 -2 7 -10.5t12.5 -17.5t12.5 -17t8 -10l159 174q30 32 69.5 49.5t84.5 17.5h61q30 0 57.5 -11.5t47.5 -32t32 -47.5t12 -58v-57q0 -26 18.5 -46.5t44.5 -20.5h33q15 0 15 -14v-70
q0 -6 -4.5 -10t-10.5 -4h-19q-35 0 -65 14.5t-51 39.5q-21 -25 -51.5 -39.5t-65.5 -14.5h-300q-49 0 -82.5 23.5t-65.5 72.5l-83 129q-17 24 -43.5 36t-55.5 8l-72 -8q-35 -5 -58.5 -33.5t-23.5 -64.5v-22l168 -37q34 -8 55 -34t21 -61v-37q0 -39 -13.5 -73t-37 -59.5
t-56 -40t-70.5 -14.5h-192q-43 0 -81 16.5t-66 44.5t-44.5 66t-16.5 81v248h82v-234q0 -26 9.5 -48.5t26.5 -39.5t39.5 -26.5t48.5 -9.5h190q21 0 39 7.5t31.5 21t21 31.5t7.5 39v36l-244 57v87q0 37 13.5 69.5t37 58t54 41.5t63.5 20l64 9q47 6 91 -13.5t70 -59.5zM897 98
h303q25 0 43 17.5t18 41.5v59q0 26 -18.5 44t-44.5 18h-73q-29 0 -54.5 -11.5t-45.5 -31.5z" />
    <glyph glyph-name="uniFE92FBFD" unicode="&#xfe92;&#xfbfd;" horiz-adv-x="915" 
d="M915 98q6 0 10 -4.5t4 -9.5v-69q0 -6 -4 -10.5t-10 -4.5h-26q-49 0 -83.5 23.5t-66.5 72.5l-84 130q-16 24 -42.5 36.5t-55.5 8.5l-73 -9q-37 -5 -59.5 -33.5t-22.5 -65.5v-23l169 -37q34 -8 54.5 -34t20.5 -61v-36q0 -39 -13 -73t-37 -59.5t-56.5 -40t-71.5 -14.5h-190
q-43 0 -81 16.5t-66 45t-44.5 66t-16.5 80.5v247h82v-233q0 -26 9.5 -49t26.5 -39.5t39.5 -26t48.5 -9.5h189q42 0 70.5 28.5t28.5 70.5v36l-242 57v87q0 36 13.5 68.5t36.5 57.5t53 42t63 21l65 8q47 7 89.5 -13t68.5 -58q8 -11 23 -34t31 -47q18 -29 39 -61q14 -20 35 -34
t50 -14h26zM729 -121h94v-95h-94v95z" />
    <glyph glyph-name="uniFB59FBFD" unicode="&#xfb59;&#xfbfd;" horiz-adv-x="989" 
d="M693 -120h95v-95h-95v95zM840 -120h95v-95h-95v95zM767 -252h95v-95h-95v95zM989 98q6 0 10 -4.5t4 -9.5v-69q0 -6 -4 -10.5t-10 -4.5h-100q-49 0 -83.5 23.5t-66.5 72.5l-84 130q-16 24 -42.5 36.5t-55.5 8.5l-73 -9q-37 -5 -59.5 -33.5t-22.5 -65.5v-23l169 -37
q34 -8 54.5 -34t20.5 -61v-36q0 -39 -13 -73t-37 -59.5t-56.5 -40t-71.5 -14.5h-190q-43 0 -81 16.5t-66 45t-44.5 66t-16.5 80.5v247h82v-233q0 -26 9.5 -49t26.5 -39.5t39.5 -26t48.5 -9.5h189q42 0 70.5 28.5t28.5 70.5v36l-242 57v87q0 36 13.5 68.5t36.5 57.5t53 42
t63 21l65 8q47 7 89.5 -13t68.5 -58q8 -11 23 -34t31 -47q18 -29 39 -61q14 -20 35 -34t50 -14h100z" />
    <glyph glyph-name="uniFE98FBFD" unicode="&#xfe98;&#xfbfd;" horiz-adv-x="915" 
d="M534 578h95v-95h-95v95zM681 578h95v-95h-95v95zM915 98q6 0 10 -4.5t4 -9.5v-69q0 -6 -4 -10.5t-10 -4.5h-26q-49 0 -83.5 23.5t-66.5 72.5l-84 130q-16 24 -42.5 36.5t-55.5 8.5l-73 -9q-37 -5 -59.5 -33.5t-22.5 -65.5v-23l169 -37q34 -8 54.5 -34t20.5 -61v-36
q0 -39 -13 -73t-37 -59.5t-56.5 -40t-71.5 -14.5h-190q-43 0 -81 16.5t-66 45t-44.5 66t-16.5 80.5v247h82v-233q0 -26 9.5 -49t26.5 -39.5t39.5 -26t48.5 -9.5h189q42 0 70.5 28.5t28.5 70.5v36l-242 57v87q0 36 13.5 68.5t36.5 57.5t53 42t63 21l65 8q47 7 89.5 -13
t68.5 -58q8 -11 23 -34t31 -47q18 -29 39 -61q14 -20 35 -34t50 -14h26z" />
    <glyph glyph-name="uniFE9CFBFD" unicode="&#xfe9c;&#xfbfd;" horiz-adv-x="915" 
d="M779 481h-97v97h97v-97zM630 481h-98v97h98v-97zM703 615h-98v98h98v-98zM915 98q6 0 10 -4.5t4 -9.5v-69q0 -6 -4 -10.5t-10 -4.5h-26q-49 0 -83.5 23.5t-66.5 72.5l-84 130q-16 24 -42.5 36.5t-55.5 8.5l-73 -9q-37 -5 -59.5 -33.5t-22.5 -65.5v-23l169 -37
q34 -8 54.5 -34t20.5 -61v-36q0 -39 -13 -73t-37 -59.5t-56.5 -40t-71.5 -14.5h-190q-43 0 -81 16.5t-66 45t-44.5 66t-16.5 80.5v247h82v-233q0 -26 9.5 -49t26.5 -39.5t39.5 -26t48.5 -9.5h189q42 0 70.5 28.5t28.5 70.5v36l-242 57v87q0 36 13.5 68.5t36.5 57.5t53 42
t63 21l65 8q47 7 89.5 -13t68.5 -58q8 -11 23 -34t31 -47q18 -29 39 -61q14 -20 35 -34t50 -14h26z" />
    <glyph glyph-name="uniFEE8FBFD" unicode="&#xfee8;&#xfbfd;" horiz-adv-x="912" 
d="M887 98h25q14 0 14 -14v-70q0 -6 -4.5 -10t-9.5 -4h-26q-49 0 -83 23.5t-66 71.5l-84 130q-15 24 -42 36.5t-56 8.5l-73 -10q-36 -5 -59.5 -33t-23.5 -64v-23l171 -36q34 -7 54.5 -33.5t20.5 -61.5v-36q0 -39 -13 -73.5t-36.5 -60t-56 -40t-71.5 -14.5h-191
q-43 0 -81 16.5t-66 44.5t-44.5 66t-16.5 81v248h83v-234q0 -26 9.5 -48.5t26 -39.5t39 -26.5t48.5 -9.5h189q42 0 70.5 28.5t28.5 70.5v36l-243 57v87q0 36 14 68.5t36.5 57.5t53 42t63.5 21l64 8q47 7 90.5 -13t69.5 -58q7 -11 22 -34.5t31 -46.5q18 -28 39 -60
q13 -20 34 -34.5t50 -14.5zM702 483h-95v95h95v-95z" />
    <glyph glyph-name="uniFBFDFE8C" unicode="&#xfe8c;&#xfbfd;" horiz-adv-x="913" 
d="M888 98h25q6 0 10 -4.5t4 -9.5v-69q0 -7 -4.5 -11t-9.5 -4h-26q-49 0 -83 23.5t-66 72.5l-84 129q-15 24 -42 36.5t-56 8.5l-73 -9q-36 -5 -59.5 -33.5t-23.5 -64.5v-22l171 -36q34 -8 54.5 -34.5t20.5 -61.5v-36q0 -39 -13 -73.5t-36.5 -60t-56 -40t-71.5 -14.5h-191
q-43 0 -81 16.5t-66 44.5t-44.5 66t-16.5 81v248h83v-234q0 -26 9.5 -48.5t26 -39.5t39 -26.5t48.5 -9.5h189q42 0 70.5 28.5t28.5 70.5v36l-243 57v87q0 36 14 68.5t36.5 57.5t53 42t63.5 21l64 8q47 7 90.5 -13t69.5 -58q7 -11 22 -34.5t31 -46.5q18 -28 39 -60
q13 -20 34 -34.5t50 -14.5zM496 505l74 34q-1 1 -6 3.5t-10 12.5q-2 4 -8 15.5t-9 18.5q-10 21 -10 41t7 37.5t20.5 31.5t31.5 21l77 32l24 -59l-77 -34q-12 -5 -18 -19.5t2 -28.5q4 -7 12 -23.5t13 -24.5l128 67l28 -56l-250 -128z" />
    <glyph glyph-name="uniFBFDFBFF" unicode="&#xfbff;&#xfbfd;" horiz-adv-x="988" 
d="M698 -120h95v-95h-95v95zM845 -120h95v-95h-95v95zM988 98q6 0 10 -4.5t4 -9.5v-69q0 -6 -4 -10.5t-10 -4.5h-99q-49 0 -83.5 23.5t-66.5 72.5l-84 130q-16 24 -42.5 36.5t-55.5 8.5l-73 -9q-37 -5 -59.5 -33.5t-22.5 -65.5v-23l169 -37q34 -8 54.5 -34t20.5 -61v-36
q0 -39 -13 -73t-37 -59.5t-56.5 -40t-71.5 -14.5h-190q-43 0 -81 16.5t-66 45t-44.5 66t-16.5 80.5v247h82v-233q0 -26 9.5 -49t26.5 -39.5t39.5 -26t48.5 -9.5h189q42 0 70.5 28.5t28.5 70.5v36l-242 57v87q0 36 13.5 68.5t36.5 57.5t53 42t63 21l65 8q47 7 89.5 -13
t68.5 -58q8 -11 23 -34t31 -47q18 -29 39 -61q14 -20 35 -34t50 -14h99z" />
    <glyph glyph-name="uni0621" unicode="&#x621;" horiz-adv-x="454" arabic-form="isolated" 
d="M66 52l89 46q-2 0 -10 4.5t-15 18.5l-17 33q-12 24 -12 47.5t8.5 44t24.5 36.5t37 25l90 37l30 -69l-90 -39q-17 -8 -23 -24t2 -32q2 -3 5 -10t7 -15.5l8 -17t7 -14.5l150 79l33 -67l-293 -149z" />
    <glyph glyph-name="uni0622" unicode="&#x622;" horiz-adv-x="254" arabic-form="isolated" 
d="M180 0h-82v588h82v-588zM-30 614v43q0 38 24 60.5t59 22.5h196v-72h-192q-10 0 -17 -7.5t-7 -16.5v-30h-63z" />
    <glyph glyph-name="uni0623" unicode="&#x623;" horiz-adv-x="218" arabic-form="isolated" 
d="M158 0h-82v588h82v-588zM8 631l250 127l-28 57l-128 -67q-5 10 -14 26.5t-11 21.5q-7 14 -1.5 28.5t17.5 19.5l78 34l-25 59l-76 -32q-18 -7 -31.5 -21t-21 -31.5t-7.5 -38t10 -40.5q3 -7 9 -19t8 -14q5 -11 11.5 -13t7.5 -3l-76 -36z" />
    <glyph glyph-name="uni0624" unicode="&#x624;" horiz-adv-x="486" arabic-form="isolated" 
d="M422 5q0 -37 -11 -71t-31.5 -62.5t-49 -50t-63.5 -33.5l-123 -42l-26 81l128 43q42 14 67.5 47t25.5 78v14q-9 -5 -22 -7t-25 -2h-92q-33 0 -61 14t-46.5 37t-27 53t-2.5 62l17 91q10 50 48.5 82t88.5 32h57q31 0 58 -11.5t47 -32t31.5 -47.5t11.5 -57v-218zM340 97v127
q0 23 -16.5 38.5t-39.5 15.5h-71q-20 0 -34.5 -12t-18.5 -32l-16 -81q-4 -22 10 -39t37 -17h149zM100 442l251 127l-28 57l-128 -68q-5 10 -14 26.5t-11 21.5q-8 15 -2 29t18 19l78 34l-25 60l-77 -32q-18 -7 -31.5 -21t-21 -32t-7 -38t10.5 -41q3 -7 9 -18.5t7 -13.5
q5 -11 11.5 -13.5t7.5 -2.5l-76 -35z" />
    <glyph glyph-name="uni0625" unicode="&#x625;" horiz-adv-x="226" arabic-form="isolated" 
d="M159 0h-83v668h83v-668zM8 -356l250 128l-28 56l-128 -66q-5 10 -13.5 26.5t-11.5 21.5q-7 14 -1.5 28t17.5 19l78 34l-24 59l-77 -32q-18 -7 -31.5 -20.5t-21 -31.5t-7.5 -38t10 -41q4 -7 9.5 -19t7.5 -14q5 -11 11.5 -13t7.5 -2l-77 -36z" />
    <glyph glyph-name="uni0626" unicode="&#x626;" horiz-adv-x="756" arabic-form="isolated" 
d="M618 147q34 -8 54.5 -32.5t20.5 -59.5v-39q0 -39 -14.5 -73.5t-40 -60t-59.5 -40t-73 -14.5h-201q-43 0 -81.5 16.5t-66.5 44.5t-44.5 66t-16.5 81v230h82v-217q0 -25 10 -47.5t27 -39.5t39.5 -26.5t48.5 -9.5h209q42 0 70.5 28.5t28.5 70.5v35l-275 65v109q0 38 13 70.5
t35.5 57.5t52.5 41t65 20l124 16l13 -88l-141 -19q-36 -4 -59 -32.5t-23 -64.5v-42zM98 391l251 127l-28 57l-46 -24q-20 -11 -42 -22t-41 -21q-5 10 -13.5 26.5t-11.5 21.5q-7 14 -1.5 28t17.5 19l78 34l-24 60l-77 -32q-18 -7 -31.5 -21t-21 -32t-7 -38.5t10.5 -41.5
l16 -31q5 -9 12 -14l6 -2q-17 -8 -40 -19t-35 -16z" />
    <glyph glyph-name="uni0627" unicode="&#x627;" horiz-adv-x="213" arabic-form="isolated" 
d="M152 0h-82v668h82v-668z" />
    <glyph glyph-name="uni0628" unicode="&#x628;" horiz-adv-x="857" arabic-form="isolated" 
d="M654 98q26 0 45 18.5t19 45.5v192h82v-192q0 -34 -13 -63.5t-35 -51.5t-51.5 -34.5t-63.5 -12.5h-380q-39 0 -72.5 14.5t-59 40t-40 59t-14.5 72.5v168h82v-157q0 -42 29 -70.5t71 -28.5h401zM388 -214h95v95h-95v-95z" />
    <glyph glyph-name="uni0629" unicode="&#x629;" horiz-adv-x="493" arabic-form="isolated" 
d="M127 672h95v-95h-95v95zM274 672h95v-95h-95v95zM175 252q-10 -8 -16 -18t-7 -27v-39q0 -31 23.5 -55.5t60.5 -24.5h34q20 0 35 7.5t26 18.5t16.5 25t5.5 27v40q0 13 -6 25.5t-19 21.5q-4 3 -17 11t-27 17q-16 11 -35 23zM159 467q56 -37 101 -68q20 -13 39 -26
t34.5 -23.5t26.5 -18t14 -9.5q32 -23 46.5 -55.5t14.5 -67.5v-36q0 -32 -12 -63t-34 -55.5t-54 -39.5t-73 -15h-21q-39 0 -70.5 15t-54 39.5t-34.5 55.5t-12 63v33q0 42 18.5 76t46.5 51q10 6 18.5 11t14.5 9q8 4 14 8l-68 45z" />
    <glyph glyph-name="uni062A" unicode="&#x62a;" horiz-adv-x="857" arabic-form="isolated" 
d="M653 98q26 0 45 18.5t19 45.5v192h82v-192q0 -34 -13 -63.5t-35 -51.5t-51.5 -34.5t-63.5 -12.5h-379q-39 0 -73 14.5t-59.5 40t-40 59t-14.5 72.5v168h82v-157q0 -42 29 -70.5t71 -28.5h401zM313 354h95v95h-95v-95zM460 354h95v95h-95v-95z" />
    <glyph glyph-name="uni062B" unicode="&#x62b;" horiz-adv-x="856" arabic-form="isolated" 
d="M652 98q27 0 46 18.5t19 45.5v192h82v-191q0 -34 -12.5 -63.5t-34.5 -51.5t-51.5 -35t-63.5 -13h-380q-39 0 -73 14.5t-59.5 40t-40 59.5t-14.5 73v167h82v-157q0 -42 28.5 -70.5t70.5 -28.5h401zM385 487v95h95v-95h-95zM314 355v95h95v-95h-95zM461 355v95h95v-95h-95z
" />
    <glyph glyph-name="uni062C" unicode="&#x62c;" horiz-adv-x="681" arabic-form="isolated" 
d="M86 -78q0 57 25.5 107t70.5 82q21 15 50.5 37t60 44.5t57.5 42t42 30.5q10 7 18 12t11 7l-201 60q-15 5 -29 -4t-19 -24l-28 -87l-74 20l24 84q8 27 25.5 46.5t40 30.5t47 13.5t46.5 -4.5l370 -112l-24 -78l-59 16q-14 5 -27.5 2.5t-24.5 -10.5l-253 -185
q-29 -22 -45 -53t-15 -67q0 -33 12.5 -62t34 -51t50.5 -34.5t62 -12.5h243v-97h-242q-52 0 -97 19.5t-79 53t-53.5 78.5t-19.5 96zM358 0h95v-95h-95v95z" />
    <glyph glyph-name="uni062D" unicode="&#x62d;" horiz-adv-x="681" arabic-form="isolated" 
d="M86 -78q0 57 26 107t71 82q21 15 50.5 37t60 44.5t57.5 42t42 30.5q9 7 17.5 12t11.5 7l-202 60q-14 5 -28 -4t-19 -24l-28 -87l-74 20l24 84q8 27 25.5 46.5t39.5 30.5t46.5 13.5t46.5 -4.5l371 -112l-25 -78l-59 16q-28 8 -52 -8l-252 -185q-29 -22 -45 -53t-16 -67
q0 -33 12.5 -62t34.5 -51t51 -34.5t62 -12.5h243v-97h-243q-51 0 -96.5 19.5t-79.5 53t-53.5 78.5t-19.5 96z" />
    <glyph glyph-name="uni062E" unicode="&#x62e;" horiz-adv-x="681" arabic-form="isolated" 
d="M86 -78q0 57 25.5 107t70.5 82q21 15 50.5 36.5t60 44t57.5 42.5t42 31q9 7 17.5 12t11.5 7l-201 59q-15 5 -29 -3.5t-19 -23.5l-28 -87l-74 20l24 83q8 28 25.5 47.5t39.5 30t47 13t47 -4.5l370 -111l-24 -78l-60 16q-13 4 -26.5 1.5t-24.5 -10.5l-253 -184
q-29 -22 -45 -53.5t-16 -66.5q0 -33 12.5 -62t34.5 -50.5t51 -34t62 -12.5h243v-98h-243q-51 0 -96.5 19.5t-79 53.5t-53 78.5t-19.5 95.5zM156 628h95v-95h-95v95z" />
    <glyph glyph-name="uni062F" unicode="&#x62f;" horiz-adv-x="557" arabic-form="isolated" 
d="M187 0q-24 0 -45 9.5t-37 25t-25 37t-9 45.5v114h70v-97q0 -15 9 -25.5t26 -10.5h159q26 0 44 11.5t26.5 29t8.5 37.5t-10 37l-118 211l69 46l121 -215q25 -44 24 -89.5t-22 -82t-58.5 -60t-86.5 -23.5h-146z" />
    <glyph glyph-name="uni0630" unicode="&#x630;" horiz-adv-x="557" arabic-form="isolated" 
d="M187 0q-24 0 -45 9.5t-37 25t-25 37t-9 45.5v114h70v-97q0 -15 9 -25.5t26 -10.5h159q26 0 44 11.5t26.5 29t8.5 37.5t-10 37l-118 211l69 46l121 -215q25 -44 24 -89.5t-22 -82t-58.5 -60t-86.5 -23.5h-146zM226 674h95v-95h-95v95z" />
    <glyph glyph-name="uni0631" unicode="&#x631;" horiz-adv-x="333" arabic-form="isolated" 
d="M-14 -251l-26 81l129 42q42 14 66.5 49t24.5 78v327h82v-319q0 -37 -11 -70.5t-31 -62t-48 -50t-63 -33.5z" />
    <glyph glyph-name="uni0632" unicode="&#x632;" horiz-adv-x="338" arabic-form="isolated" 
d="M-14 -251l-26 80l129 43q42 14 66.5 48.5t24.5 78.5v326h82v-318q0 -37 -11 -70.5t-31 -62t-48.5 -50t-63.5 -33.5zM173 529h95v-95h-95v95z" />
    <glyph glyph-name="uni0633" unicode="&#x633;" horiz-adv-x="1163" arabic-form="isolated" 
d="M716 0q-21 0 -41.5 7.5t-37.5 29.5v-36q0 -37 -15 -69t-40.5 -56t-59 -37.5t-70.5 -13.5h-174q-43 0 -81 16.5t-66 45t-44.5 66t-16.5 80.5v277h82v-263q0 -25 10 -48t26.5 -39.5t39.5 -26.5t48 -10h176q21 0 40 8t33 22t22 32.5t8 39.5v301h82v-165q1 -27 20 -45t45 -18
h21q26 0 45.5 15.5t24.5 41.5l33 166l81 -15l-27 -135q-5 -29 13.5 -51t47.5 -22h83v258h82v-256q0 -44 -28 -72t-72 -28h-66q-33 0 -60.5 15.5t-46.5 48.5q-21 -33 -51.5 -48.5t-65.5 -15.5z" />
    <glyph glyph-name="uni0634" unicode="&#x634;" horiz-adv-x="1163" arabic-form="isolated" 
d="M716 0q-21 0 -41.5 7.5t-37.5 29.5v-36q0 -37 -15 -69t-40.5 -56t-59 -37.5t-70.5 -13.5h-174q-43 0 -81 16.5t-66 45t-44.5 66t-16.5 80.5v277h82v-263q0 -25 10 -48t26.5 -39.5t39.5 -26.5t48 -10h176q21 0 40 8t33 22t22 32.5t8 39.5v301h82v-165q1 -27 20 -45t45 -18
h21q26 0 45.5 15.5t24.5 41.5l33 166l81 -15l-27 -135q-6 -29 13 -51t48 -22h83v258h82v-256q0 -44 -28 -72t-72 -28h-66q-33 0 -60.5 15.5t-46.5 48.5q-21 -33 -51.5 -48.5t-65.5 -15.5zM946 430h-95v95h95v-95zM799 430h-95v95h95v-95zM870 562h-95v95h95v-95z" />
    <glyph glyph-name="uni0635" unicode="&#x635;" horiz-adv-x="1232" arabic-form="isolated" 
d="M730 98h302q25 0 42.5 16.5t17.5 42.5v59q0 26 -18 44t-44 18h-74q-58 0 -99 -44zM637 39v-38q0 -37 -15 -69t-40 -56t-58.5 -37.5t-71.5 -13.5h-174q-43 0 -80.5 16.5t-66 45t-45 66t-16.5 80.5v276h82v-262q0 -25 10 -48t26.5 -39.5t39.5 -26.5t48 -10h177q21 0 39.5 8
t33 22t22.5 33t8 40v299h82v-136q0 -16 3 -26t7 -16q4 -7 9 -11l154 167q29 32 69 49.5t85 17.5h61q31 0 58 -11.5t47 -31.5t31.5 -47t11.5 -58v-67q0 -32 -12 -60.5t-33 -49.5t-49.5 -33t-60.5 -12h-261q-38 0 -70.5 8.5t-50.5 30.5z" />
    <glyph glyph-name="uni0636" unicode="&#x636;" horiz-adv-x="1232" arabic-form="isolated" 
d="M730 98h302q25 0 42.5 16.5t17.5 42.5v59q0 26 -18 44t-44 18h-74q-58 0 -99 -44zM637 39v-38q0 -37 -15 -69t-40 -56t-58.5 -37.5t-71.5 -13.5h-174q-43 0 -80.5 16.5t-66 45t-45 66t-16.5 80.5v276h82v-262q0 -25 10 -48t26.5 -39.5t39.5 -26.5t48 -10h177q21 0 39.5 8
t33 22t22.5 33t8 40v299h82v-136q0 -16 3 -26t7 -16q4 -7 9 -11l154 167q29 32 69 49.5t85 17.5h61q31 0 58 -11.5t47 -31.5t31.5 -47t11.5 -58v-67q0 -32 -12 -60.5t-33 -49.5t-49.5 -33t-60.5 -12h-261q-38 0 -70.5 8.5t-50.5 30.5zM913 575h95v-95h-95v95z" />
    <glyph glyph-name="uni0637" unicode="&#x637;" horiz-adv-x="737" arabic-form="isolated" 
d="M538 98q25 0 42.5 17.5t17.5 42.5v59q0 26 -18.5 44t-44.5 18h-73q-59 0 -100 -44l-128 -137h304zM70 98h55l109 118v452h83v-327q0 -17 -4 -31t-5 -16l4 4t6.5 7t6.5 7l4 4q29 27 65.5 41t75.5 14h62q31 0 58 -11.5t47 -31.5t31.5 -47t11.5 -58v-67q0 -32 -12.5 -60.5
t-33.5 -49.5t-49.5 -33.5t-60.5 -12.5h-454v98z" />
    <glyph glyph-name="uni0638" unicode="&#x638;" horiz-adv-x="737" arabic-form="isolated" 
d="M538 98q25 0 42.5 17.5t17.5 42.5v59q0 26 -18.5 44t-44.5 18h-73q-59 0 -100 -44l-128 -137h304zM70 98h55l109 118v452h83v-327q0 -8 -1 -16.5t-3 -15.5q-2 -8 -5 -15l24 24q27 26 63 39.5t75 13.5h62q31 0 58 -11.5t47 -31.5t31.5 -47t11.5 -58v-67q0 -32 -12.5 -60.5
t-33.5 -49.5t-49.5 -33.5t-60.5 -12.5h-454v98zM433 480h95v95h-95v-95z" />
    <glyph glyph-name="uni0639" unicode="&#x639;" horiz-adv-x="568" arabic-form="isolated" 
d="M70 -172q0 21 6 45t18 48t30 46t43 40q-8 7 -13 17.5t-7 21.5l-31 152q-6 32 2.5 61.5t27.5 52.5t47 37t61 14h152v-93h-158q-24 0 -39.5 -18.5t-10.5 -42.5l34 -172q20 7 59.5 19.5t79.5 25.5q46 15 99 32l25 -76l-241 -76q-16 -5 -32.5 -14t-30.5 -24t-23 -36.5
t-9 -49.5q0 -32 12 -60.5t33 -50t50.5 -34t64.5 -12.5h177v-98h-177q-52 0 -97.5 20t-79 53.5t-53 78t-19.5 93.5z" />
    <glyph glyph-name="uni063A" unicode="&#x63a;" horiz-adv-x="568" arabic-form="isolated" 
d="M70 -170q0 21 6 44.5t18 47.5t30 46t43 40q-8 7 -13 17.5t-7 21.5l-27 148q-6 32 2 61.5t27.5 52.5t47 36.5t60.5 13.5h152v-93h-157q-25 0 -40.5 -18.5t-10.5 -42.5l31 -167q20 7 59.5 19.5t79.5 25.5q46 15 99 32l25 -76l-241 -76q-16 -5 -32.5 -14t-30.5 -24t-23 -36
t-9 -49q0 -32 12.5 -61t34 -50.5t51 -34t62.5 -12.5h177v-98h-177q-52 0 -97.5 20t-79 53.5t-53 78t-19.5 94.5zM228 489h95v95h-95v-95z" />
    <glyph glyph-name="uni0641" unicode="&#x641;" horiz-adv-x="858" arabic-form="isolated" 
d="M717 270v120q0 23 -15.5 38.5t-38.5 15.5h-66q-20 0 -35.5 -12.5t-19.5 -32.5l-13 -72q-5 -23 9.5 -40t37.5 -17h141zM152 353v-160q0 -41 27.5 -68t69.5 -27h398q29 0 49.5 16.5t20.5 50.5v17q-21 -9 -47 -9h-84q-33 0 -61.5 14t-47.5 37.5t-27.5 53.5t-2.5 63l16 83
q10 49 48 81t89 32h53q30 0 57 -11.5t46.5 -31.5t31 -46.5t11.5 -57.5v-228q0 -34 -12.5 -63.5t-34.5 -51.5t-51.5 -34.5t-63.5 -12.5h-378q-41 0 -75.5 14.5t-60 40t-39.5 60t-14 74.5v164h82zM582 741h95v-95h-95v95z" />
    <glyph glyph-name="uni0642" unicode="&#x642;" horiz-adv-x="701" arabic-form="isolated" 
d="M556 217q0 23 -16 39t-39 16h-67q-20 0 -34.5 -12.5t-18.5 -32.5l-14 -72q-5 -23 9.5 -40t37.5 -17h142v119zM638 -38q0 -39 -14.5 -73t-39.5 -59.5t-59 -40t-73 -14.5h-173q-43 0 -81.5 16.5t-66.5 44.5t-44.5 66t-16.5 82v247h82v-234q0 -26 10 -48.5t27 -39t40 -26.5
t48 -10h175q21 0 40 7.5t33.5 21t22.5 31.5t8 38v38q-8 -2 -20 -5.5t-27 -3.5h-85q-33 0 -61.5 14t-47.5 37.5t-27.5 54t-2.5 63.5l17 83q5 24 17.5 45t30.5 36t41 23.5t48 8.5h52q31 0 57.5 -11.5t46.5 -31.5t31.5 -47t11.5 -57v-256zM346 474h95v95h-95v-95zM493 474h96
v95h-96v-95z" />
    <glyph glyph-name="uni0643" unicode="&#x643;" horiz-adv-x="859" arabic-form="isolated" 
d="M152 354v-157q0 -42 29 -70.5t71 -28.5h400q26 0 45.5 19t19.5 46v520h82v-520q0 -34 -13 -63.5t-35 -51.5t-51.5 -35t-62.5 -13h-380q-39 0 -73 14.5t-59.5 40t-40 59.5t-14.5 73v167h82zM318 286l250 127l-28 57l-128 -67q-5 10 -14 26.5t-11 21.5q-7 14 -1.5 28.5
t17.5 19.5l78 34l-25 59l-76 -32q-18 -7 -31.5 -21t-21 -31.5t-7.5 -38t10 -40.5q3 -8 9 -19.5t8 -14.5q5 -8 10 -11.5t9 -3.5l-76 -36z" />
    <glyph glyph-name="uni0644" unicode="&#x644;" horiz-adv-x="697" arabic-form="isolated" 
d="M279 -175q-43 0 -81 16.5t-66 44.5t-44.5 66t-16.5 81v248l82 -1v-234q0 -25 10 -47.5t26.5 -39.5t39.5 -26.5t48 -9.5h176q21 0 40 8t33 22t22 32.5t8 39.5v643h82v-657q0 -39 -14.5 -72.5t-40 -59t-59 -40t-72.5 -14.5h-173z" />
    <glyph glyph-name="uni0645" unicode="&#x645;" horiz-adv-x="665" arabic-form="isolated" 
d="M459 371q31 0 58 -11.5t47.5 -31.5t32 -47t11.5 -58v-123q0 -44 -28.5 -72t-72.5 -28h-121q-33 0 -61 14t-46.5 37t-27 53t-2.5 63l21 111h-53q-26 0 -45.5 -20t-19.5 -47v-463h-82v460q0 34 13 63.5t35 51.5t51.5 35t63.5 13h226zM526 98v126q0 23 -16.5 38.5
t-39.5 15.5h-116l-23 -124q-5 -22 8.5 -39t37.5 -17h149z" />
    <glyph glyph-name="uni0646" unicode="&#x646;" horiz-adv-x="697" arabic-form="isolated" 
d="M278 -175q-43 0 -81 16.5t-66 44.5t-44.5 66t-16.5 81v276h82v-263q0 -25 10 -47.5t26.5 -39.5t39.5 -26.5t48 -9.5h176q21 0 40 8t33 22t22 33t8 40v300h82v-315q0 -39 -14.5 -72.5t-40 -59t-59 -40t-72.5 -14.5h-173zM306 421h95v-95h-95v95z" />
    <glyph glyph-name="uni0647" unicode="&#x647;" horiz-adv-x="493" arabic-form="isolated" 
d="M175 252q-10 -8 -16 -18t-7 -27v-38q0 -15 6 -30t17.5 -26.5t27 -18.5t33.5 -7h34q20 0 35 7.5t26 19.5t16.5 26.5t5.5 27.5v37q0 14 -6 26.5t-19 21.5q-4 2 -17 10.5t-27 17.5q-16 10 -35 23zM159 466l214 -144q33 -23 47.5 -56t14.5 -68v-35q0 -33 -12 -64t-34 -55.5
t-54 -39.5t-73 -15h-21q-39 0 -70.5 15t-54 39.5t-34.5 56t-12 63.5v33q0 42 18.5 75.5t46.5 50.5q10 6 18.5 11t14.5 10q8 4 14 8l-68 45z" />
    <glyph glyph-name="uni0648" unicode="&#x648;" horiz-adv-x="486" arabic-form="isolated" 
d="M422 5q0 -37 -11 -71t-31.5 -62.5t-49 -50t-63.5 -33.5l-123 -42l-26 81l128 43q42 14 65.5 47t26.5 78l1 14q-9 -5 -22 -7t-25 -2h-92q-33 0 -61 14t-46.5 37t-27 53t-2.5 62l17 91q10 50 48.5 82t88.5 32h57q31 0 58 -11.5t47 -32t31.5 -47.5t11.5 -57v-218zM340 98
v125q0 23 -16.5 39t-39.5 16h-71q-20 0 -34.5 -12t-18.5 -32l-16 -81q-4 -22 10 -38.5t37 -16.5h149z" />
    <glyph glyph-name="uni0649" unicode="&#x649;" horiz-adv-x="729" arabic-form="isolated" 
d="M591 147q34 -8 54.5 -32.5t20.5 -59.5v-39q0 -39 -14.5 -73.5t-40 -60t-59.5 -40t-73 -14.5h-201q-43 0 -81.5 16.5t-66.5 44.5t-44.5 66t-16.5 81v230h82v-217q0 -25 10 -47.5t27 -39.5t39.5 -26.5t48.5 -9.5h209q42 0 70.5 28.5t28.5 70.5v35l-276 65v109q0 38 13 70.5
t35.5 57.5t53 41t65.5 20l124 16l13 -88l-141 -19q-36 -5 -59.5 -33t-23.5 -64v-42z" />
    <glyph glyph-name="uni064A" unicode="&#x64a;" horiz-adv-x="729" arabic-form="isolated" 
d="M591 147q34 -8 54.5 -32.5t20.5 -59.5v-39q0 -39 -14.5 -73.5t-40 -60t-59.5 -40t-73 -14.5h-201q-43 0 -81.5 16.5t-66.5 44.5t-44.5 66t-16.5 81v230h82v-217q0 -25 10 -47.5t27 -39.5t39.5 -26.5t48.5 -9.5h209q42 0 70.5 28.5t28.5 70.5v35l-275 65v109q0 38 13 70.5
t35.5 57.5t52.5 41t65 20l124 16l13 -88l-141 -19q-36 -4 -59 -32.5t-23 -64.5v-42zM245 -270h95v-95h-95v95zM392 -270h95v-95h-95v95z" />
    <glyph glyph-name="uni064B" unicode="&#xfe70;" arabic-form="isolated" 
d="M-161 756l309 66l13 -55l-312 -67zM-161 878l309 66l13 -55l-312 -67z" />
    <glyph glyph-name="uni064C" unicode="&#xfe72;" arabic-form="isolated" 
d="M117 835q0 1 -1 6.5t-3 13.5t-5 19q-2 10 -9.5 14.5t-15.5 3.5l-46 -6q-8 -1 -14.5 -7.5t-4.5 -19.5l16 -61l64 14q8 2 14.5 8t4.5 15zM-153 859l63 15l22 -96l42 8q-6 26 -9.5 42.5t-6.5 33.5q-2 15 2 29t13.5 25t23 18.5t30.5 9.5l52 5q15 1 29.5 -4t26 -14t19.5 -21.5
t11 -27.5l7 -38q3 -32 -16.5 -55.5t-51.5 -31.5l-11.5 -2.5t-30.5 -6.5t-42.5 -9.5t-48.5 -10.5q-58 -12 -132 -28l-10 55l39 8z" />
    <glyph glyph-name="uni064D" unicode="&#xfe74;" arabic-form="isolated" 
d="M161 -61l-312 -67l-10 61l308 67zM161 -183l-312 -67l-10 61l308 66z" />
    <glyph glyph-name="uni064E" unicode="&#xfe76;" arabic-form="isolated" 
d="M-161 755l309 66l13 -55l-312 -66z" />
    <glyph glyph-name="uni064F" unicode="&#xfe78;" arabic-form="isolated" 
d="M99 828q0 1 -1 6.5t-3 13.5t-4 19q-3 10 -10.5 14.5t-15.5 3.5l-45 -7q-8 0 -14.5 -7t-4.5 -19l15 -61l65 14q8 2 14 8t4 15zM89 750l-10.5 -2t-27 -5.5t-37.5 -7.5t-43 -9q-51 -11 -116 -25l-11 54l113 24q-6 26 -9.5 42.5t-6.5 33.5q-5 29 15.5 53.5t53.5 28.5l52 5
q15 2 29 -3t26 -14t20 -22t11 -28l7 -38q2 -32 -16.5 -55.5t-49.5 -31.5z" />
    <glyph glyph-name="uni0650" unicode="&#xfe7a;" horiz-adv-x="1" arabic-form="isolated" 
d="M-161 -67l308 67l15 -63l-312 -66z" />
    <glyph glyph-name="uni0651" unicode="&#xfe7c;" arabic-form="isolated" 
d="M99 700h-36q-17 0 -32.5 6.5t-26.5 23.5q-11 -17 -30.5 -23.5t-37.5 -6.5q-19 0 -36 7t-29.5 20t-20 30t-7.5 36v80h59v-81q1 -11 9.5 -19.5t20.5 -9.5h6q12 0 21 8t11 19l16 77l58 -10l-13 -67q-2 -13 7 -19.5t20 -7.5h40v113h59v-119q0 -26 -16 -41.5t-42 -15.5z" />
    <glyph glyph-name="uni0652" unicode="&#xfe7e;" arabic-form="isolated" 
d="M5 893q19 0 35.5 -7t29 -19.5t19.5 -29t7 -35.5v-11q0 -38 -26.5 -64.5t-64.5 -26.5h-10q-19 0 -35.5 7.5t-29 20t-19.5 29t-7 34.5v11q0 38 26 64.5t65 26.5h10zM43 794v8q0 14 -9.5 23.5t-22.5 9.5h-21q-14 -1 -23 -10t-9 -23v-8q0 -14 9 -23t23 -9h21q13 0 22.5 9
t9.5 23z" />
    <glyph glyph-name="uni0671" unicode="&#x671;" horiz-adv-x="331" arabic-form="isolated" 
d="M208 588v-588h-82v588h82zM291 700q11 0 18.5 7.5t7.5 18.5v26q0 11 -8.5 19.5t-20.5 8.5h-36q-14 0 -28 -6t-25 -17l-60 -57h152zM120 635q-23 0 -38.5 7.5t-28.5 23.5q-24 -31 -65 -31h-28v65h33q13 0 22 9t9 22v43h55v-24q0 -11 3 -18t6 -10l82 82q38 38 89 38h24
q37 0 62.5 -25.5t25.5 -61.5v-32q0 -18 -7 -34t-19 -28t-28 -19t-33 -7h-164z" />
    <glyph glyph-name="uni067E" unicode="&#x67e;" horiz-adv-x="857" arabic-form="isolated" 
d="M653 98q26 0 45 18.5t19 45.5v192h82v-192q0 -34 -13 -63.5t-35 -51.5t-51.5 -34.5t-63.5 -12.5h-379q-39 0 -73 14.5t-59.5 40t-40 59t-14.5 72.5v168h82v-157q0 -42 29 -70.5t71 -28.5h401zM321 -215h95v95h-95v-95zM468 -215h95v95h-95v-95zM395 -347h95v95h-95v-95z
" />
    <glyph glyph-name="uni0686" unicode="&#x686;" horiz-adv-x="681" arabic-form="isolated" 
d="M86 -78q0 57 25.5 107t70.5 82q21 15 50.5 37t60 44.5t57.5 42t42 30.5q10 7 18 12t11 7l-201 60q-15 5 -29 -4t-19 -24l-28 -87l-74 20l24 84q8 27 25.5 46.5t40 30.5t47 13.5t46.5 -4.5l370 -112l-24 -78l-59 16q-28 8 -52 -8l-253 -185q-29 -22 -45 -53t-15 -67
q0 -33 12.5 -62t34 -51t50.5 -34.5t62 -12.5h243v-97h-242q-52 0 -97 19.5t-79 53t-53.5 78.5t-19.5 96zM334 38h86v-85h-86v85zM466 38h85v-85h-85v85zM402 -80h86v-85h-86v85z" />
    <glyph glyph-name="uni0698" unicode="&#x698;" horiz-adv-x="371" arabic-form="isolated" 
d="M-14 -251l-26 81l129 42q42 14 66.5 49t24.5 78v327h82v-319q0 -37 -11 -70.5t-31 -62t-48 -50t-63 -33.5zM341 435h-95v95h95v-95zM194 435h-95v95h95v-95zM266 567h-95v95h95v-95z" />
    <glyph glyph-name="uni06A9" unicode="&#x6a9;" horiz-adv-x="881" arabic-form="isolated" 
d="M613 0h-354q-40 0 -74.5 15t-60 40.5t-39.5 60t-14 73.5v166h82v-161q0 -42 27 -69t69 -27h375q31 0 55.5 15.5t37 40.5t10.5 55.5t-24 61.5l-164 225v65l317 161l37 -73l-270 -138l147 -193q39 -51 43 -107t-20 -103t-71 -77.5t-109 -30.5z" />
    <glyph glyph-name="uni06AF" unicode="&#x6af;" horiz-adv-x="881" arabic-form="isolated" 
d="M623 511l147 -193q39 -51 43 -107t-20 -103t-71 -77.5t-109 -30.5h-354q-40 0 -74.5 15t-60 40.5t-39.5 60t-14 73.5v166h82v-161q0 -42 27 -69t69 -27h375q31 0 55.5 15.5t37 40.5t10.5 55.5t-24 61.5l-164 225v65l317 161l37 -73zM795 832l-288 -147l26 -60l289 147z
" />
    <glyph glyph-name="uni06C0" unicode="&#x6c0;" horiz-adv-x="493" arabic-form="isolated" 
d="M153 544l250 128l-28 56l-128 -67q-2 5 -5.5 12t-7.5 14t-7 13t-5 9q-7 14 -1.5 28.5t17.5 19.5l78 34l-24 59l-77 -32q-18 -7 -31.5 -21t-21 -31.5t-7.5 -38t10 -40.5q4 -7 9.5 -19t7.5 -14q6 -10 12 -13q4 -2 7 -3l-76 -36zM175 252q-10 -8 -16 -18t-7 -27v-39
q0 -31 23.5 -55.5t60.5 -24.5h34q20 0 35 7.5t26 19.5t16.5 26t5.5 27v38q0 13 -6 25.5t-19 21.5q-4 3 -17 11t-27 17q-16 11 -35 23zM159 467q56 -37 101 -68q20 -13 39 -26t34.5 -23.5t26.5 -18t14 -9.5q32 -23 46.5 -55.5t14.5 -67.5v-36q0 -32 -12 -63t-34 -55.5
t-54 -39.5t-73 -15h-21q-39 0 -70.5 15t-54 39.5t-34.5 55.5t-12 63v33q0 42 18.5 76t46.5 51q10 6 18.5 11t14.5 9q8 4 14 8l-68 45z" />
    <glyph glyph-name="uni06CC" unicode="&#x6cc;" horiz-adv-x="729" arabic-form="isolated" 
d="M591 147q34 -8 54.5 -32.5t20.5 -59.5v-39q0 -39 -14.5 -73.5t-40 -60t-59.5 -40t-73 -14.5h-201q-43 0 -81.5 16.5t-66.5 44.5t-44.5 66t-16.5 81v230h82v-217q0 -25 10 -47.5t27 -39.5t39.5 -26.5t48.5 -9.5h209q42 0 70.5 28.5t28.5 70.5v35l-275 65v109q0 38 13 70.5
t35.5 57.5t52.5 41t65 20l124 16l13 -88l-141 -19q-36 -5 -59 -33t-23 -64v-42z" />
    <glyph glyph-name="uniFB51" unicode="&#x671;" horiz-adv-x="315" arabic-form="final" 
d="M329 14q0 -5 -4 -9.5t-10 -4.5h-39q-33 0 -62 12.5t-51 34.5t-34.5 51.5t-12.5 63.5v427h82v-426q0 -27 19 -46t46 -19h52q6 0 10 -4.5t4 -10.5v-69zM291 700q11 0 18.5 7.5t7.5 18.5v26q0 11 -8.5 19.5t-20.5 8.5h-36q-30 0 -53 -23l-60 -57h152zM120 635q-40 0 -66 28
q-25 -28 -66 -28h-28v65h33q13 0 22 9t9 22v43h55v-24q0 -11 3 -18t6 -10l82 82q38 38 89 38h24q37 0 62.5 -25.5t25.5 -61.5v-32q0 -18 -7 -34t-19 -28t-28 -19t-33 -7h-164z" />
    <glyph glyph-name="uniFB57" unicode="&#x67e;" horiz-adv-x="893" arabic-form="final" 
d="M322 -215h95v95h-95v-95zM469 -215h95v95h-95v-95zM396 -347h95v95h-95v-95zM152 354v-157q0 -42 28.5 -70.5t70.5 -28.5h402q26 0 45 19t19 45v164h82v-163q0 -27 19 -46t46 -19h29q14 0 14 -14v-70q0 -14 -14 -14h-15q-36 0 -67 17t-52 47q-23 -32 -54 -48t-68 -16
h-380q-39 0 -73 14.5t-59.5 40t-40 59.5t-14.5 73v167h82z" />
    <glyph glyph-name="uniFB58" unicode="&#x67e;" horiz-adv-x="412" arabic-form="initial" 
d="M198 98q26 0 45 19t19 45v192h82v-192q0 -33 -12.5 -62.5t-34.5 -51.5t-51.5 -35t-63.5 -13h-182q-6 0 -10 4.5t-4 9.5v69q0 6 4 10.5t10 4.5h198zM14 -215h95v95h-95v-95zM161 -215h95v95h-95v-95zM88 -347h95v95h-95v-95z" />
    <glyph glyph-name="uniFB59" unicode="&#x67e;" horiz-adv-x="356" arabic-form="medial" 
d="M61 -215h95v95h-95v-95zM208 -215h95v95h-95v-95zM135 -347h95v95h-95v-95zM370 14q0 -5 -4 -9.5t-10 -4.5h-67q-16 0 -33.5 5t-32 13.5t-25.5 20.5t-16 25q-17 -27 -49 -45.5t-66 -18.5h-67q-14 0 -14 14v70q0 14 14 14h72q26 0 45.5 16t24.5 41l33 166l81 -14l-27 -139
q-3 -13 1 -26t12.5 -22.5t21 -15.5t26.5 -6h66q14 0 14 -14v-70z" />
    <glyph glyph-name="uniFB7B" unicode="&#x686;" horiz-adv-x="692" arabic-form="final" 
d="M145 229l-74 20l24 84q8 27 25.5 46.5t39.5 30.5t46.5 13.5t46.5 -4.5l371 -112l-24 -76l-60 14q-24 6 -45 -5v-77q0 -28 19 -46.5t46 -18.5h132q14 0 14 -14v-70q0 -14 -14 -14h-118q-33 0 -61.5 12.5t-48.5 34t-31.5 50t-11.5 60.5v31l-185 -136q-29 -22 -45 -53
t-16 -67q0 -33 12.5 -62t34.5 -51t51 -34.5t62 -12.5h243v-97h-243q-51 0 -96.5 19.5t-79 53t-53.5 78t-20 95.5q0 58 26 108t71 82q21 15 49 36t57.5 43t57 42t46.5 33q5 4 14.5 10t14.5 9l-202 60q-14 5 -28 -4t-19 -24zM266 -8h66v-67h-66v67zM369 -8h67v-67h-67v67z
M319 -98h67v-67h-67v67z" />
    <glyph glyph-name="uniFB7C" unicode="&#x686;" horiz-adv-x="680" arabic-form="initial" 
d="M203 -214h95v95h-95v-95zM350 -214h95v95h-95v-95zM277 -347h95v96h-95v-96zM-14 83q0 15 14 15h168q47 0 90.5 15.5t75.5 47.5l79 75q10 10 16 13l-230 69q-16 5 -29 -3t-18 -23l-30 -87l-72 20l24 83q8 27 24.5 46.5t38 31t47 14t49.5 -4.5l390 -117l-26 -79l-42 13
q-27 9 -45 0t-36 -26l-115 -108q-42 -39 -94 -58t-109 -20h-156q-6 0 -10 4.5t-4 9.5v69z" />
    <glyph glyph-name="uniFB7D" unicode="&#x686;" horiz-adv-x="685" arabic-form="medial" 
d="M198 -119h95v-95h-95v95zM345 -119h95v-95h-95v95zM272 -251h95v-96h-95v96zM0 0q-14 0 -14 14v70q0 5 4.5 9.5t9.5 4.5h168q46 0 89.5 15t75.5 47l79 75q8 8 16 14l-229 68q-16 5 -29.5 -3t-18.5 -23l-30 -86l-72 19l24 84q8 26 24.5 45.5t38.5 31t47 14.5t49 -5
l390 -117l-25 -79l-43 13q-20 7 -36.5 2t-29.5 -15v-36q0 -27 18.5 -45.5t45.5 -18.5h133q14 0 14 -14v-70q0 -14 -14 -14h-119q-30 0 -55 10t-44.5 28t-32 42t-17.5 52l-59 -55q-42 -39 -94 -58t-109 -19h-155z" />
    <glyph glyph-name="uniFB8B" unicode="&#x698;" horiz-adv-x="425" arabic-form="final" 
d="M263 325v-167q0 -26 19.5 -43t45.5 -17h97q14 0 14 -14v-70q0 -14 -14 -14h-83q-23 0 -44 8.5t-35 28.5v-36q0 -36 -11.5 -69t-32 -61t-48.5 -48.5t-62 -32.5l-123 -42l-26 80l129 43q42 14 67 49t25 79v326h82zM342 434h-95v95h95v-95zM195 434h-95v95h95v-95zM266 566
h-95v95h95v-95z" />
    <glyph glyph-name="uniFB8F" unicode="&#x6a9;" horiz-adv-x="1000" arabic-form="final" 
d="M623 511l277 -366q16 -21 38.5 -34t50.5 -13h11q5 0 9.5 -4.5t4.5 -10.5v-69q0 -5 -4 -9.5t-10 -4.5h-9q-43 0 -78.5 20.5t-63.5 58.5l-50 72q-5 -35 -22.5 -63t-43 -47.5t-56.5 -30t-64 -10.5h-354q-40 0 -74.5 15t-60 40.5t-39.5 60t-14 73.5v166h82v-161q0 -42 27 -69
t69 -27h375q32 0 56.5 16t36.5 41t9.5 55.5t-24.5 60.5l-164 225v65l317 161l38 -73z" />
    <glyph glyph-name="uniFB90" unicode="&#x6a9;" horiz-adv-x="393" arabic-form="initial" 
d="M125 0h-125q-6 0 -10 4.5t-4 10.5v69q0 5 4 9.5t10 4.5h135q32 0 56.5 15.5t37 40.5t10.5 56t-25 61l-164 225v65l318 161l37 -74l-271 -137l148 -193q39 -51 42.5 -107t-20 -103t-70.5 -77.5t-109 -30.5z" />
    <glyph glyph-name="uniFB91" unicode="&#x6a9;" horiz-adv-x="513" arabic-form="medial" 
d="M125 0h-125q-6 0 -10 4.5t-4 10.5v69q0 5 4 9.5t10 4.5h135q32 0 56.5 16t37 40.5t10 55.5t-24.5 61l-164 224v66l318 161l37 -74l-271 -137l278 -366q16 -22 39 -34.5t50 -12.5h12q14 0 14 -14v-70q0 -5 -4 -9.5t-10 -4.5h-10q-88 0 -142 79l-50 72q-5 -35 -22.5 -63
t-43 -47.5t-56.5 -30t-64 -10.5z" />
    <glyph glyph-name="uniFB93" unicode="&#x6af;" horiz-adv-x="1000" arabic-form="final" 
d="M795 832l-288 -147l26 -60l289 147zM623 511l277 -366q16 -21 38.5 -34t50.5 -13h11q5 0 9.5 -4.5t4.5 -10.5v-69q0 -5 -4 -9.5t-10 -4.5h-9q-43 0 -78.5 20.5t-63.5 58.5l-50 72q-5 -35 -22.5 -63t-43 -47.5t-56.5 -30t-64 -10.5h-354q-40 0 -74.5 15t-60 40.5t-39.5 60
t-14 73.5v166h82v-161q0 -42 27 -69t69 -27h375q32 0 56.5 16t36.5 41t9.5 55.5t-24.5 60.5l-164 225v65l317 161l38 -73z" />
    <glyph glyph-name="uniFB94" unicode="&#x6af;" horiz-adv-x="394" arabic-form="initial" 
d="M126 0h-126q-6 0 -10 4.5t-4 10.5v69q0 5 4 9.5t10 4.5h136q32 0 56.5 15.5t37 40.5t10.5 56t-25 61l-164 225v65l318 161l37 -74l-271 -137l148 -193q39 -51 42.5 -107t-20 -103t-70.5 -77.5t-109 -30.5zM25 685l289 147l26 -60l-288 -148z" />
    <glyph glyph-name="uniFB95" unicode="&#x6af;" horiz-adv-x="514" arabic-form="medial" 
d="M24 685l289 147l26 -60l-288 -148zM126 0h-126q-6 0 -10 4.5t-4 10.5v69q0 5 4 9.5t10 4.5h136q32 0 56.5 16t37 40.5t10 55.5t-24.5 61l-164 224v66l318 161l37 -74l-271 -137l278 -366q16 -22 39 -34.5t50 -12.5h12q5 0 9.5 -4t4.5 -10v-70q0 -5 -4 -9.5t-10 -4.5h-10
q-88 0 -142 79l-50 72q-5 -35 -22.5 -63t-43 -47.5t-56.5 -30t-64 -10.5z" />
    <glyph glyph-name="uniFBA5" unicode="&#x6c0;" horiz-adv-x="519" arabic-form="final" 
d="M71 245q0 63 35 106.5t89 57.5l138 35v79h82v-355q0 -14 6 -27t16.5 -22.5t23.5 -15t28 -5.5h30q14 0 14 -14v-70q0 -14 -14 -14h-30q-48 0 -84 25t-56 66q-9 -8 -23 -12t-28 -4h-123q-48 0 -76 28.5t-28 76.5v65zM333 354l-118 -29q-29 -7 -45.5 -31t-16.5 -53v-68h180
v181zM120 596l77 36q-3 1 -6 3q-6 3 -12 13q-2 2 -8 13.5t-10 18.5q-10 21 -10 41t7.5 38t21 32t31.5 21l77 32l24 -59l-77 -34q-12 -6 -18 -20t2 -28q1 -3 4 -9t7 -13t7.5 -14t5.5 -12l128 67l28 -57l-250 -128z" />
    <glyph glyph-name="uniFBE8" unicode="&#x649;" horiz-adv-x="342" arabic-form="initial" 
d="M138 98q26 0 45 19t19 45v192h82v-192q0 -33 -12.5 -62.5t-34.5 -51.5t-51.5 -35t-63.5 -13h-122q-6 0 -10 4.5t-4 9.5v69q0 6 4 10.5t10 4.5h138z" />
    <glyph glyph-name="uniFBE9" unicode="&#x649;" horiz-adv-x="356" arabic-form="medial" 
d="M370 14q0 -5 -4 -9.5t-10 -4.5h-67q-16 0 -33.5 5t-32 13.5t-25.5 20.5t-16 25q-17 -27 -49 -45.5t-66 -18.5h-67q-14 0 -14 14v70q0 14 14 14h72q26 0 45.5 16t24.5 41l33 166l81 -14l-27 -139q-3 -13 1 -26t12.5 -22.5t21 -15.5t26.5 -6h66q14 0 14 -14v-70z" />
    <glyph glyph-name="uniFBFD" unicode="&#x6cc;" horiz-adv-x="740" arabic-form="final" 
d="M455 -137q42 0 71 28.5t30 70.5v38h-191v98h375q14 0 14 -13v-71q0 -14 -14 -14h-106q1 -3 2.5 -8.5t1.5 -13.5v-29q0 -39 -15 -72.5t-40.5 -58t-60 -39t-73.5 -14.5h-171q-43 0 -81 16.5t-66 44.5t-44.5 66t-16.5 81v248h82v-235q0 -26 10 -48t27 -39t40 -26.5t48 -9.5
h178z" />
    <glyph glyph-name="uniFBFE" unicode="&#x6cc;" horiz-adv-x="424" arabic-form="initial" 
d="M8 -120h94v-95h-94v95zM154 -120h95v-95h-95v95zM198 98q26 0 45 19t19 45v192h82v-192q0 -33 -12.5 -62.5t-34.5 -51.5t-51.5 -35t-63.5 -13h-182q-6 0 -10 4.5t-4 9.5v69q0 6 4 10.5t10 4.5h198z" />
    <glyph glyph-name="uniFBFF" unicode="&#x6cc;" horiz-adv-x="355" arabic-form="medial" 
d="M58 -215h94v95h-94v-95zM204 -215h95v95h-95v-95zM369 14q0 -5 -4 -9.5t-10 -4.5h-67q-16 0 -33 5t-32 13.5t-26 20.5t-16 25q-16 -27 -48.5 -45.5t-66.5 -18.5h-66q-14 0 -14 14v70q0 14 14 14h71q26 0 45.5 16t24.5 41l34 166l81 -14l-28 -139q-5 -27 13.5 -48.5
t47.5 -21.5h66q14 0 14 -14v-70z" />
    <glyph glyph-name="uniFC5E" unicode="&#xfc5e;" arabic-form="isolated" 
d="M57 700q-34 0 -58 24q-12 -12 -28.5 -18t-34.5 -7q-19 0 -36 7.5t-29.5 20t-20 29.5t-7.5 36v80h59v-80q1 -11 9.5 -19.5t19.5 -9.5h7q11 0 20.5 7.5t11.5 18.5l16 78l57 -11l-12 -66q-2 -14 6.5 -20.5t19.5 -6.5h41v113h59v-120q0 -26 -15.5 -41t-41.5 -15h-43z
M102 1092q-2 10 -9.5 13.5t-15.5 2.5l-46 -5q-8 -1 -14.5 -8t-4.5 -20l16 -59l64 14q8 2 14.5 8t4.5 15zM-159 1077l64 15l21 -98l42 10q-3 15 -6 29q-3 11 -5.5 24t-4.5 22q-3 13 1.5 27t14 25.5t23.5 20t30 9.5l52 5q31 3 56 -17t30 -49l7 -38q2 -32 -17 -56t-50 -32
l-12 -2.5t-30.5 -6.5t-42.5 -9t-49 -10q-58 -12 -131 -28l-11 54l39 8z" />
    <glyph glyph-name="uniFC5F" unicode="&#xfc5f;" arabic-form="isolated" 
d="M100 986h-42q-35 0 -58 25q-12 -12 -29 -18.5t-34 -6.5q-19 0 -36 7.5t-29.5 20t-20 29.5t-7.5 36v80h59v-80q0 -12 8.5 -20.5t20.5 -8.5h7q11 0 20.5 7.5t11.5 18.5l15 77l58 -10l-13 -67q-2 -13 7 -19.5t20 -6.5h41v113h58v-120q0 -26 -15.5 -41.5t-41.5 -15.5z
M-161 756l309 66l13 -55l-312 -67zM-161 878l309 66l13 -55l-312 -67z" />
    <glyph glyph-name="uniFC60" unicode="&#xfc60;" arabic-form="isolated" 
d="M102 700h-42q-36 2 -58 25q-12 -11 -29 -18t-34 -7q-39 0 -66 27.5t-27 66.5v80h58v-80q1 -12 9.5 -20.5t20.5 -9.5h7q11 0 20 8t11 19l16 77l58 -10l-13 -67q-2 -13 7 -19.5t20 -7.5h41v113h58v-119q0 -26 -15.5 -42t-41.5 -16zM-160 970l308 66l13 -55l-311 -66z" />
    <glyph glyph-name="uniFC61" unicode="&#xfc61;" arabic-form="isolated" 
d="M57 700q-34 0 -58 24q-11 -11 -28 -17.5t-35 -6.5q-19 0 -36 7t-29.5 20t-20 30t-7.5 36v80h59v-81q1 -11 9.5 -19.5t20.5 -9.5h6q12 0 21 8t11 19l16 77l58 -10l-13 -67q-2 -13 7 -19.5t20 -7.5h40v113h59v-119q0 -26 -16 -41.5t-42 -15.5h-42zM104 1039l-9 38
q-2 10 -10 14.5t-16 2.5l-45 -6q-9 -1 -15 -8t-4 -19l15 -61l65 15q8 2 14.5 8t4.5 16zM93 960l-10.5 -2t-27 -5.5t-37 -8t-42.5 -9.5q-51 -11 -116 -25l-12 55l113 24q-3 13 -8 35.5t-8 40.5q-2 15 2 29t13.5 25t23 18.5t30.5 9.5l53 5q30 2 55 -18t30 -49l7 -39
q5 -32 -14.5 -55t-51.5 -31z" />
    <glyph glyph-name="uniFC62" unicode="&#xfc62;" arabic-form="isolated" 
d="M100 851h-42q-36 0 -58 25q-12 -12 -29 -19t-34 -7q-19 0 -36 7.5t-29.5 20t-20 30t-7.5 36.5v80h58v-80q1 -12 9.5 -20.5t20.5 -9.5h7q11 0 20 8t11 19l16 77l58 -10l-13 -67q-2 -13 7 -19.5t20 -6.5h41v112h58v-119q0 -26 -15.5 -41.5t-41.5 -15.5zM-161 755l309 67
l13 -56l-312 -66z" />
    <glyph glyph-name="uniFC63" unicode="&#xfc63;" arabic-form="isolated" 
d="M-30 908v147h57v-148zM99 700h-42q-36 0 -58 25q-12 -12 -29 -18.5t-34 -6.5q-39 0 -66 27t-27 66v80h58v-80q1 -12 9.5 -20.5t20.5 -9.5h7q11 0 20 8t11 19l16 77l58 -10l-13 -67q-2 -13 7 -19.5t20 -6.5h40l1 113h58v-120q0 -26 -15.5 -41.5t-41.5 -15.5z" />
    <glyph glyph-name="uniFE82" unicode="&#x622;" horiz-adv-x="297" arabic-form="final" 
d="M58 740q-16 0 -31 -6t-26.5 -17t-18.5 -26.5t-7 -33.5v-43h63v30q0 9 6.5 16.5t17.5 7.5h192v72h-196zM311 14q1 -5 -3.5 -9.5t-10.5 -4.5h-38q-33 0 -62.5 12.5t-51.5 34.5t-34.5 51t-12.5 62v428h82v-426q0 -26 19 -45t46 -19h52q6 0 10 -4.5t4 -10.5v-69z" />
    <glyph glyph-name="uniFE84" unicode="&#x623;" horiz-adv-x="255" arabic-form="final" 
d="M138 161q0 -26 19 -44.5t46 -18.5h52q6 0 10 -4.5t4 -10.5v-69q0 -14 -14 -14h-39q-33 0 -62 12.5t-51 34.5t-34.5 51t-12.5 62v430h82v-429zM-20 691l76 35q-3 1 -7 2q-7 5 -12 14q-1 2 -7 13.5t-9 18.5q-10 21 -10 41t7 38t20.5 31.5t31.5 20.5l77 32l25 -58l-78 -35
q-12 -5 -18 -19t2 -28l25 -48l128 67l28 -57l-250 -128z" />
    <glyph glyph-name="uniFE86" unicode="&#x624;" horiz-adv-x="498" arabic-form="final" 
d="M200 0q-33 0 -61 14t-46.5 37t-27 53t-2.5 62l17 91q10 50 48.5 82t88.5 32h57q31 0 57.5 -11.5t46.5 -32t31.5 -47.5t11.5 -57v-125h77q14 0 14 -14v-70q0 -14 -14 -14h-77v-9q-4 -71 -45.5 -125.5t-108.5 -77.5l-123 -42l-26 81l128 43q42 14 67 47t25 78v14
q-9 -5 -21.5 -7t-24.5 -2h-92zM191 98h148v126q0 23 -16 38.5t-39 15.5h-71q-20 0 -34.5 -12t-18.5 -32l-16 -81q-4 -22 10 -38.5t37 -16.5zM100 442l251 127l-28 57l-128 -68q-5 10 -14 26.5t-11 21.5q-8 15 -2 29t18 19l78 34l-25 60l-77 -32q-18 -7 -31.5 -21t-21 -32
t-7 -38t10.5 -41q3 -7 9 -18.5t7 -13.5q5 -11 11.5 -13.5t7.5 -2.5l-76 -35z" />
    <glyph glyph-name="uniFE88" unicode="&#x625;" horiz-adv-x="271" arabic-form="final" 
d="M285 83v-69q0 -14 -14 -14h-39q-33 0 -62 12.5t-51 34.5t-34.5 51.5t-12.5 62.5v468h82v-467q0 -26 19 -45t46 -19h52q6 0 10 -4.5t4 -10.5zM47 -356l-28 60l76 35q-3 1 -7 2q-7 3 -12 14q-1 2 -7 13.5t-10 19.5q-10 20 -10 40.5t7.5 38t21 31t31.5 21.5l76 31l25 -58
l-78 -35q-12 -5 -17.5 -19t2.5 -28l24 -48l129 67l27 -57z" />
    <glyph glyph-name="uniFE8A" unicode="&#x626;" horiz-adv-x="742" arabic-form="final" 
d="M457 -137q42 0 71 28.5t30 70.5v38h-191v98h375q14 0 14 -13v-71q0 -14 -14 -14h-106q1 -3 2.5 -8.5t1.5 -13.5v-29q0 -39 -15 -72.5t-40.5 -58t-60 -39t-73.5 -14.5h-171q-43 0 -81 16.5t-66 44.5t-44.5 66t-16.5 81v248h82v-235q0 -26 10 -48t27 -39t40 -26.5t48 -9.5
h178zM70 390l75 35q0 1 -6.5 3t-11.5 13q-2 2 -7.5 14t-9.5 19q-10 21 -10.5 41t7 37.5t21.5 31.5t32 21l76 32l25 -59l-78 -34q-12 -5 -17.5 -19.5t1.5 -28.5q3 -5 11.5 -21.5t13.5 -26.5l128 67l28 -56l-250 -128z" />
    <glyph glyph-name="uniFE8B" unicode="&#x626;" horiz-adv-x="355" arabic-form="initial" 
d="M138 98q26 0 45 19t19 45v192h82v-192q0 -33 -12.5 -62.5t-34.5 -51.5t-51.5 -35t-63.5 -13h-122q-6 0 -10 4.5t-4 9.5v69q0 6 4 10.5t10 4.5h138zM-2 436l76 35q-1 1 -7.5 3t-12.5 13l-7 14t-9 19q-10 20 -10 40.5t7.5 38t21 31.5t31.5 21l76 32l25 -59l-78 -34
q-12 -5 -17.5 -19.5t1.5 -28.5q3 -5 11.5 -21.5t13.5 -26.5q19 10 40.5 21t40.5 21t32 17t15 8l28 -56l-250 -128z" />
    <glyph glyph-name="uniFE8C" unicode="&#x626;" horiz-adv-x="355" arabic-form="medial" 
d="M39 448l76 35q-1 0 -7 2.5t-11 13.5q-2 3 -8 14.5t-10 18.5q-10 20 -10 40.5t7.5 38t21 31.5t31.5 21l77 32l24 -59l-77 -34q-13 -5 -18.5 -19.5t2.5 -28.5q2 -5 10.5 -21.5t13.5 -25.5l129 66l27 -56l-249 -128zM369 14q0 -5 -4 -9.5t-10 -4.5h-67q-16 0 -33 5t-32 13.5
t-26 20.5t-16 25q-16 -27 -48.5 -45.5t-66.5 -18.5h-66q-14 0 -14 14v70q0 14 14 14h71q26 0 45.5 16t24.5 41l34 166l81 -14l-28 -139q-5 -27 13.5 -48.5t47.5 -21.5h66q14 0 14 -14v-70z" />
    <glyph glyph-name="uniFE8E" unicode="&#x627;" horiz-adv-x="266" arabic-form="final" 
d="M280 14q0 -14 -14 -14h-35q-33 0 -62 12.5t-51 34.5t-34.5 51.5t-12.5 62.5v507h82v-506q0 -26 19 -45t45 -19h49q6 0 10 -4.5t4 -10.5v-69z" />
    <glyph glyph-name="uniFE90" unicode="&#x628;" horiz-adv-x="892" arabic-form="final" 
d="M386 -217h95v95h-95v-95zM152 354v-157q0 -42 28.5 -70.5t70.5 -28.5h401q26 0 45 19t19 45v164h82v-163q0 -27 19 -46t46 -19h29q14 0 14 -14v-70q0 -14 -14 -14h-15q-36 0 -67 17t-52 47q-23 -32 -54 -48t-68 -16h-380q-38 0 -72 14.5t-59.5 40t-40 59.5t-14.5 73v167
h82z" />
    <glyph glyph-name="uniFE91" unicode="&#x628;" horiz-adv-x="342" arabic-form="initial" 
d="M21 -120h95v-95h-95v95zM138 98q26 0 45 19t19 45v192h82v-192q0 -33 -12.5 -62.5t-34.5 -51.5t-51.5 -35t-63.5 -13h-122q-6 0 -10 4.5t-4 9.5v69q0 6 4 10.5t10 4.5h138z" />
    <glyph glyph-name="uniFE92" unicode="&#x628;" horiz-adv-x="355" arabic-form="medial" 
d="M132 -216h95v95h-95v-95zM369 14q0 -5 -4 -9.5t-10 -4.5h-67q-16 0 -33 5t-32 13.5t-26 20.5t-16 25q-16 -27 -48.5 -45.5t-66.5 -18.5h-66q-14 0 -14 14v70q0 14 14 14h71q26 0 45.5 16t24.5 41l34 166l81 -14l-28 -139q-5 -27 13.5 -48.5t47.5 -21.5h66q14 0 14 -14
v-70z" />
    <glyph glyph-name="uniFE94" unicode="&#x629;" horiz-adv-x="519" arabic-form="final" 
d="M71 245q0 63 35 106.5t89 57.5l138 35v79h82v-355q0 -14 6 -27t16.5 -22.5t23.5 -15t28 -5.5h30q14 0 14 -14v-70q0 -14 -14 -14h-30q-48 0 -84 25t-56 66q-9 -8 -23.5 -12t-28.5 -4h-122q-48 0 -76 28.5t-28 76.5v65zM333 354l-118 -29q-29 -7 -45.5 -31t-16.5 -53v-68
h180v181zM119 626h95v95h-95v-95zM266 626h95v95h-95v-95z" />
    <glyph glyph-name="uniFE96" unicode="&#x62a;" horiz-adv-x="893" arabic-form="final" 
d="M314 354h95v95h-95v-95zM461 354h95v95h-95v-95zM152 354v-158q0 -42 29 -70t71 -28h401q26 0 45 18.5t19 45.5v163h82v-163q0 -27 19 -45.5t46 -18.5h29q14 0 14 -14v-70q0 -14 -14 -14h-15q-36 0 -67 16.5t-52 47.5q-23 -32 -54 -48t-68 -16h-380q-39 0 -73 14.5
t-59.5 40t-40 59.5t-14.5 73v167h82z" />
    <glyph glyph-name="uniFE97" unicode="&#x62a;" horiz-adv-x="342" arabic-form="initial" 
d="M138 98q26 0 45 19t19 45v192h82v-192q0 -33 -12.5 -62.5t-34.5 -51.5t-51.5 -35t-63.5 -13h-122q-6 0 -10 4.5t-4 9.5v69q0 6 4 10.5t10 4.5h138zM42 463h95v95h-95v-95zM189 463h95v95h-95v-95z" />
    <glyph glyph-name="uniFE98" unicode="&#x62a;" horiz-adv-x="355" arabic-form="medial" 
d="M54 430h95v95h-95v-95zM201 430h95v95h-95v-95zM369 14q0 -5 -4 -9.5t-10 -4.5h-67q-16 0 -33 5t-32 13.5t-26 20.5t-16 25q-16 -27 -48.5 -45.5t-66.5 -18.5h-66q-14 0 -14 14v70q0 14 14 14h71q26 0 45.5 16t24.5 41l34 166l81 -14l-28 -139q-5 -27 13.5 -48.5
t47.5 -21.5h66q14 0 14 -14v-70z" />
    <glyph glyph-name="uniFE9A" unicode="&#x62b;" horiz-adv-x="893" arabic-form="final" 
d="M556 449h-95v-95h95v95zM409 449h-95v-95h95v95zM480 581h-95v-95h95v95zM152 354v-157q0 -42 28.5 -70.5t70.5 -28.5h402q26 0 45 19t19 45v164h82v-163q0 -27 19 -46t46 -19h29q14 0 14 -14v-70q0 -14 -14 -14h-15q-36 0 -67 17t-52 47q-23 -32 -54 -48t-68 -16h-380
q-39 0 -73 14.5t-59.5 40t-40 59.5t-14.5 73v167h82z" />
    <glyph glyph-name="uniFE9B" unicode="&#x62b;" horiz-adv-x="342" arabic-form="initial" 
d="M283 462h-95v95h95v-95zM136 462h-95v95h95v-95zM208 595h-95v95h95v-95zM138 98q26 0 45 19t19 45v192h82v-192q0 -33 -12.5 -62.5t-34.5 -51.5t-51.5 -35t-63.5 -13h-122q-6 0 -10 4.5t-4 9.5v69q0 6 4 10.5t10 4.5h138z" />
    <glyph glyph-name="uniFE9C" unicode="&#x62b;" horiz-adv-x="355" arabic-form="medial" 
d="M296 526h-95v-95h95v95zM149 526h-95v-95h95v95zM220 658h-95v-95h95v95zM369 14q0 -5 -4 -9.5t-10 -4.5h-67q-16 0 -33 5t-32 13.5t-26 20.5t-16 25q-16 -27 -48.5 -45.5t-66.5 -18.5h-66q-14 0 -14 14v70q0 14 14 14h71q26 0 45.5 16t24.5 41l34 166l81 -14l-28 -139
q-5 -27 13.5 -48.5t47.5 -21.5h66q14 0 14 -14v-70z" />
    <glyph glyph-name="uniFE9E" unicode="&#x62c;" horiz-adv-x="692" arabic-form="final" 
d="M144 229l-74 20l24 84q8 27 25.5 46.5t40 30.5t47 13.5t46.5 -4.5l370 -112l-24 -76l-59 14q-23 6 -46 -5v-77q0 -28 19.5 -46.5t45.5 -18.5h133q14 0 14 -14v-70q0 -14 -14 -14h-119q-33 0 -61 12.5t-48.5 34t-32 50t-11.5 60.5v31l-185 -136q-29 -22 -45 -53t-15 -67
q0 -33 12.5 -62t34 -51t50.5 -34.5t62 -12.5h243v-97h-242q-52 0 -97 19.5t-79 53t-53.5 78t-19.5 95.5q0 58 25.5 108t70.5 82q21 15 49.5 36t58 43t57 42t45.5 33q5 4 14.5 10t14.5 9l-201 60q-15 5 -29 -4t-19 -24zM313 -5h95v-95h-95v95z" />
    <glyph glyph-name="uniFE9F" unicode="&#x62c;" horiz-adv-x="680" arabic-form="initial" 
d="M-14 83q0 15 14 15h168q47 0 90.5 15.5t75.5 47.5l79 75q10 10 16 13l-230 69q-16 5 -29 -3t-18 -23l-30 -87l-72 20l24 83q8 27 24.5 46.5t38 31t47 14t49.5 -4.5l390 -117l-26 -79l-42 13q-27 9 -45 0t-36 -26l-115 -108q-42 -39 -94 -58t-109 -20h-156q-6 0 -10 4.5
t-4 9.5v69zM276 -215h95v95h-95v-95z" />
    <glyph glyph-name="uniFEA0" unicode="&#x62c;" horiz-adv-x="685" arabic-form="medial" 
d="M0 0q-14 0 -14 14v70q0 5 4.5 9.5t9.5 4.5h168q46 0 89.5 15t75.5 47l79 75q8 8 16 14l-229 68q-16 5 -29.5 -3t-18.5 -23l-30 -86l-72 19l24 84q8 26 24.5 45.5t38.5 31t47 14.5t49 -5l390 -117l-25 -79l-43 13q-20 7 -36.5 2t-29.5 -15v-36q0 -27 18.5 -45.5
t45.5 -18.5h133q14 0 14 -14v-70q0 -14 -14 -14h-119q-30 0 -55 10t-44.5 28t-32 42t-17.5 52l-59 -55q-42 -39 -94 -58t-109 -19h-155zM275 -121h95v-95h-95v95z" />
    <glyph glyph-name="uniFEA2" unicode="&#x62d;" horiz-adv-x="691" arabic-form="final" 
d="M144 229l-74 20l24 84q8 27 25.5 46.5t39.5 30.5t46.5 13.5t46.5 -4.5l371 -112l-24 -76l-60 14q-24 6 -45 -5v-77q0 -28 19 -46.5t46 -18.5h132q15 0 15 -14v-70q0 -6 -4.5 -10t-10.5 -4h-118q-33 0 -61.5 12.5t-48.5 34t-31.5 50t-11.5 60.5v31l-185 -136
q-29 -22 -45 -53t-16 -67q0 -33 12.5 -62t34.5 -51t51 -34.5t62 -12.5h243v-97h-243q-51 0 -96.5 19.5t-79 53t-53.5 78t-20 95.5q0 58 26 108t71 82q21 15 49 36t57.5 43t57 42t46.5 33q5 4 14.5 10t14.5 9l-202 60q-14 5 -28 -4t-19 -24z" />
    <glyph glyph-name="uniFEA3" unicode="&#x62d;" horiz-adv-x="680" arabic-form="initial" 
d="M-14 83q0 15 14 15h168q47 0 90.5 15.5t75.5 47.5l79 75q10 10 16 13l-230 69q-16 5 -29 -3t-18 -23l-30 -87l-72 20l24 83q8 27 24.5 46.5t38 31t47 14t49.5 -4.5l390 -117l-26 -79l-42 13q-27 9 -45 0t-36 -26l-115 -108q-42 -39 -94 -58t-109 -20h-156q-6 0 -10 4.5
t-4 9.5v69z" />
    <glyph glyph-name="uniFEA4" unicode="&#x62d;" horiz-adv-x="685" arabic-form="medial" 
d="M0 0q-14 0 -14 14v70q0 5 4.5 9.5t9.5 4.5h168q46 0 89.5 15t75.5 47l79 75q8 8 16 14l-229 68q-16 5 -29.5 -3t-18.5 -23l-30 -86l-72 19l24 84q8 26 24.5 45.5t38.5 31t47 14.5t49 -5l390 -117l-25 -79l-43 13q-20 7 -36.5 2t-29.5 -15v-36q0 -27 18.5 -45.5
t45.5 -18.5h133q14 0 14 -14v-70q0 -14 -14 -14h-119q-30 0 -55 10t-44.5 28t-32 42t-17.5 52l-59 -55q-42 -39 -94 -58t-109 -19h-155z" />
    <glyph glyph-name="uniFEA6" unicode="&#x62e;" horiz-adv-x="692" arabic-form="final" 
d="M144 229l-74 20l24 84q8 27 25.5 46.5t40 30.5t47 13.5t46.5 -4.5l370 -112l-24 -76l-59 14q-11 3 -23 1t-23 -7v-77q0 -27 19.5 -45.5t45.5 -18.5h133q14 0 14 -14v-70q0 -14 -14 -14h-119q-33 0 -61 12.5t-48.5 34t-32 50t-11.5 60.5v30l-185 -135q-29 -22 -44.5 -53
t-15.5 -68q0 -33 12.5 -61.5t34 -50.5t50.5 -34.5t62 -12.5h243v-97h-242q-52 0 -97 19.5t-79 53t-53.5 78t-19.5 95.5q0 58 25.5 108t70.5 82q21 15 49.5 36t58 43t57 42t45.5 33q5 3 14.5 9.5t14.5 9.5l-201 60q-15 5 -29 -4t-19 -24zM156 627h95v-95h-95v95z" />
    <glyph glyph-name="uniFEA7" unicode="&#x62e;" horiz-adv-x="680" arabic-form="initial" 
d="M152 508h95v95h-95v-95zM-14 83q0 15 14 15h168q47 0 90.5 15.5t75.5 47.5l79 75q10 10 16 13l-230 69q-16 5 -29 -3t-18 -23l-30 -87l-72 20l24 83q8 27 24.5 46.5t38 31t47 14t49.5 -4.5l390 -117l-26 -79l-42 13q-27 9 -45 0t-36 -26l-115 -108q-42 -39 -94 -58
t-109 -20h-156q-6 0 -10 4.5t-4 9.5v69z" />
    <glyph glyph-name="uniFEA8" unicode="&#x62e;" horiz-adv-x="685" arabic-form="medial" 
d="M152 603h95v-95h-95v95zM0 0q-14 0 -14 14v70q0 5 4.5 9.5t9.5 4.5h168q46 0 89.5 15t75.5 47l79 75q8 8 16 14l-229 68q-16 5 -29.5 -3t-18.5 -23l-30 -86l-72 19l24 84q8 26 24.5 45.5t38.5 31t47 14.5t49 -5l390 -117l-25 -79l-43 13q-20 7 -36.5 2t-29.5 -15v-36
q0 -27 18.5 -45.5t45.5 -18.5h133q14 0 14 -14v-70q0 -14 -14 -14h-119q-30 0 -55 10t-44.5 28t-32 42t-17.5 52l-59 -55q-42 -39 -94 -58t-109 -19h-155z" />
    <glyph glyph-name="uniFEAA" unicode="&#x62f;" horiz-adv-x="586" arabic-form="final" 
d="M562 98h24q5 0 9.5 -4.5t4.5 -10.5v-69q0 -14 -14 -14h-20q-38 0 -69 18.5t-51 48.5q-21 -32 -54 -49.5t-71 -17.5h-135q-24 0 -45 9.5t-37 25t-25 37t-9 45.5v114h71v-97q0 -15 9 -25.5t25 -10.5h146q19 0 34.5 8t26 21.5t15 30.5t0.5 34l-76 276l78 29l97 -348
q6 -23 24.5 -37t41.5 -14z" />
    <glyph glyph-name="uniFEAC" unicode="&#x630;" horiz-adv-x="586" arabic-form="final" 
d="M562 98h24q5 0 9.5 -4.5t4.5 -10.5v-69q0 -14 -14 -14h-20q-38 0 -69 18.5t-51 48.5q-21 -32 -54 -49.5t-71 -17.5h-135q-24 0 -45 9.5t-37 25t-25 37t-9 45.5v114h71v-97q0 -15 9 -25.5t25 -10.5h146q19 0 34.5 8t26 21.5t15 30.5t0.5 34l-76 276l78 29l97 -348
q6 -23 24.5 -37t41.5 -14zM292 700h95v-95h-95v95z" />
    <glyph glyph-name="uniFEAE" unicode="&#x631;" horiz-adv-x="418" arabic-form="final" 
d="M262 325v-167q0 -26 19.5 -43t45.5 -17h91q14 0 14 -14v-70q0 -14 -14 -14h-77q-23 0 -44 8.5t-35 28.5v-36q0 -36 -11.5 -69t-32 -61t-48.5 -48.5t-62 -32.5l-123 -42l-26 80l129 43q42 14 67 49t25 79v326h82z" />
    <glyph glyph-name="uniFEB0" unicode="&#x632;" horiz-adv-x="425" arabic-form="final" 
d="M262 325v-167q0 -26 19.5 -43t45.5 -17h98q14 0 14 -14v-70q0 -14 -14 -14h-83q-23 0 -44.5 8.5t-35.5 28.5v-36q0 -36 -11.5 -69t-32 -61t-48.5 -48.5t-62 -32.5l-123 -42l-26 80l129 43q42 14 67 49t25 79v326h82zM173 530h95v-95h-95v95z" />
    <glyph glyph-name="uniFEB2" unicode="&#x633;" horiz-adv-x="1210" arabic-form="final" 
d="M1105 159q0 -24 19 -42.5t45 -18.5h41q14 0 14 -14v-69q0 -6 -4 -10.5t-10 -4.5h-27q-36 0 -67 16t-53 48q-22 -32 -54.5 -48t-68.5 -16q-34 0 -62 16t-46 48q-22 -33 -50.5 -48.5t-63.5 -15.5q-21 0 -43 7.5t-39 29.5v-36q0 -36 -15 -68t-40.5 -56t-59 -38t-70.5 -14
h-173q-43 0 -81 16.5t-66 45t-44.5 66.5t-16.5 81v275h82v-262q0 -25 10 -48t26.5 -39.5t39.5 -26.5t48 -10h176q21 0 40 8t32.5 22t21.5 33t8 40v300h82v-165q0 -26 19.5 -44.5t45.5 -18.5h21q26 0 45.5 16t24.5 41l33 166l81 -15l-27 -138q-2 -14 2 -26.5t12 -22.5
t20.5 -15.5t26.5 -5.5h18q26 0 45 18.5t19 44.5v194h83v-196z" />
    <glyph glyph-name="uniFEB3" unicode="&#x633;" horiz-adv-x="714" arabic-form="initial" 
d="M267 0q-36 0 -67 16t-53 48q-21 -32 -52 -48t-68 -16h-27q-6 0 -10 4.5t-4 9.5v70q0 6 4.5 10t9.5 4h42q27 0 45.5 19.5t18.5 46.5v163h83v-165q0 -26 18.5 -45t44.5 -19h22q26 0 45.5 16t24.5 42l33 165l81 -14l-27 -138q-6 -28 13 -49.5t48 -21.5h82v257h82v-254
q0 -44 -28 -72.5t-72 -28.5h-65q-33 0 -62 16t-46 49q-21 -34 -51.5 -49.5t-64.5 -15.5z" />
    <glyph glyph-name="uniFEB4" unicode="&#x633;" horiz-adv-x="761" arabic-form="medial" 
d="M268 0q-37 0 -68 16t-53 48q-22 -32 -53 -48t-68 -16h-26q-5 0 -9.5 4.5t-4.5 9.5v70q0 14 14 14h41q26 1 45 19.5t19 44.5v164h83v-166q0 -26 19 -44t44 -18h23q26 0 46 16t25 41l32 166l81 -15l-27 -138q-6 -29 13.5 -49.5t49.5 -20.5h16q26 0 45 18.5t19 44.5v193h83
v-195q0 -26 19 -43.5t45 -17.5h40q14 0 14 -14v-70q0 -5 -3.5 -9.5t-10.5 -4.5h-26q-36 0 -67 16t-52 48q-22 -32 -53.5 -48t-67.5 -16q-34 0 -64 15t-47 49q-22 -34 -52 -49t-64 -15z" />
    <glyph glyph-name="uniFEB6" unicode="&#x634;" horiz-adv-x="1210" arabic-form="final" 
d="M1105 159q0 -24 19 -42.5t45 -18.5h41q14 0 14 -14v-69q0 -6 -4 -10.5t-10 -4.5h-27q-36 0 -67 16t-53 48q-22 -32 -54 -48t-67 -16t-63.5 16t-46.5 48q-42 -64 -113 -64q-21 0 -43.5 7.5t-39.5 29.5v-36q0 -36 -15 -68t-40.5 -56t-59 -38t-70.5 -14h-173q-43 0 -81 16.5
t-66 45t-44.5 66.5t-16.5 81v275h82v-262q0 -25 9.5 -48t26.5 -39.5t39.5 -26.5t48.5 -10h175q21 0 40 8t33 22t22 33t8 40v300h82v-165q0 -26 19.5 -44.5t45.5 -18.5h21q26 0 45.5 16t24.5 41l33 166l81 -15l-27 -138q-2 -14 2 -26.5t12 -22.5t20.5 -15.5t26.5 -5.5h18
q26 0 45 18.5t19 44.5v194h83v-196zM946 429h-95v95h95v-95zM799 429h-95v95h95v-95zM870 561h-95v95h95v-95z" />
    <glyph glyph-name="uniFEB7" unicode="&#x634;" horiz-adv-x="716" arabic-form="initial" 
d="M269 0q-37 0 -68 15.5t-52 47.5q-22 -32 -53 -47.5t-68 -15.5h-28q-14 0 -14 14v69q0 6 4.5 10.5t9.5 4.5h43q27 0 46 19t19 46v163h82v-164q0 -27 19 -45.5t45 -18.5h20q26 0 45.5 16t24.5 41l34 166l82 -15l-27 -137q-6 -29 13 -50t48 -21h82v256h82v-253
q0 -45 -28 -73t-72 -28h-65q-33 0 -62 16t-46 48q-21 -33 -51.5 -48.5t-64.5 -15.5zM499 429h-95v95h95v-95zM352 429h-95v95h95v-95zM424 561h-95v95h95v-95z" />
    <glyph glyph-name="uniFEB8" unicode="&#x634;" horiz-adv-x="764" arabic-form="medial" 
d="M270 0q-37 0 -68 16t-53 48q-22 -32 -53 -48t-68 -16h-28q-5 0 -9.5 4.5t-4.5 9.5v70q0 14 14 14h43q26 0 45 19.5t19 45.5v164h83v-169q0 -26 19 -43t44 -17h23q26 0 46 16.5t25 41.5l32 166l82 -15l-28 -138q-5 -29 14 -50t50 -21h15q26 0 45 19t19 45v193h83v-196
q2 -26 20 -43.5t44 -17.5h41q14 0 14 -14v-70q0 -5 -3.5 -9.5t-10.5 -4.5h-27q-36 0 -67 16t-52 48q-22 -32 -53.5 -48t-67.5 -16q-34 0 -64 15t-47 49q-22 -34 -52 -49t-64 -15zM500 429h-95v95h95v-95zM353 429h-95v95h95v-95zM424 561h-95v95h95v-95z" />
    <glyph glyph-name="uniFEBA" unicode="&#x635;" horiz-adv-x="1272" arabic-form="final" 
d="M1032 98q25 0 42.5 17t17.5 42v58q0 26 -18.5 44.5t-44.5 18.5h-73q-29 0 -54 -12t-45 -32l-127 -136h302zM1174 162q0 -27 19 -45.5t46 -18.5h32q5 0 10 -4t5 -10v-70q0 -6 -4.5 -10t-9.5 -4h-19q-36 0 -66.5 15t-51.5 43q-21 -28 -51 -43t-65 -15h-261q-38 0 -70 8.5
t-51 30.5v-38q0 -37 -15 -69t-40.5 -56t-59 -37.5t-71.5 -13.5h-173q-43 0 -81 16.5t-66 44.5t-44.5 66t-16.5 82v275h83v-262q0 -25 9.5 -48t26.5 -39.5t39.5 -26.5t47.5 -10h176q21 0 39.5 8t33 22t22.5 33t8 40v300h82v-137q0 -16 3 -26t7 -16q4 -7 10 -11l154 167
q29 32 69 49.5t85 17.5h61q31 0 58 -11.5t47 -31.5t31.5 -47t11.5 -58v-60z" />
    <glyph glyph-name="uniFEBB" unicode="&#x635;" horiz-adv-x="788" arabic-form="initial" 
d="M588 98q25 0 42.5 17t17.5 43v58q0 26 -18.5 44t-44.5 18h-73q-30 0 -55 -11.5t-44 -31.5l-127 -137h302zM193 190q0 -16 3 -26t7 -16q4 -7 10 -11l154 167q29 32 69 49.5t84 17.5h62q31 0 58 -11.5t47 -32t31.5 -47.5t11.5 -57v-67q0 -32 -12.5 -60.5t-33.5 -49.5
t-49 -33.5t-60 -12.5h-301q-37 0 -71.5 16t-51.5 48q-22 -32 -53 -48t-67 -16h-31q-6 0 -10 4.5t-4 9.5v69q0 6 4 10.5t10 4.5h46q27 0 46 18.5t19 45.5v147h82v-119z" />
    <glyph glyph-name="uniFEBC" unicode="&#x635;" horiz-adv-x="828" arabic-form="medial" 
d="M588 98q25 0 43 17.5t18 41.5v59q0 26 -19 44t-45 18h-73q-29 0 -54 -12t-45 -32l-128 -136h303zM194 184q0 -15 2.5 -24.5t6.5 -14.5q3 -7 8 -10l156 168q30 32 69.5 49.5t84.5 17.5h61q31 0 58 -11.5t47.5 -31.5t32 -47t11.5 -58v-65q0 -25 19 -42t45 -17h33
q5 0 9.5 -4t4.5 -10v-70q0 -5 -4 -9.5t-10 -4.5h-19q-36 0 -67 15.5t-51 47.5q-43 -63 -116 -63h-302q-39 0 -70.5 14.5t-51.5 48.5q-45 -63 -119 -63h-32q-14 0 -14 14v70q0 6 4.5 10t9.5 4h48q27 0 45.5 18.5t18.5 44.5v148h82v-125z" />
    <glyph glyph-name="uniFEBE" unicode="&#x636;" horiz-adv-x="1271" arabic-form="final" 
d="M1031 98q25 0 42.5 17t17.5 42v58q0 26 -18.5 44t-44.5 18h-73q-29 0 -54 -11.5t-45 -31.5l-127 -136h302zM1173 162q0 -27 19 -45.5t46 -18.5h32q5 0 10 -4t5 -10v-70q0 -6 -4.5 -10t-9.5 -4h-19q-36 0 -66.5 14.5t-51.5 42.5q-43 -57 -116 -57h-261q-38 0 -70 8.5
t-51 30.5v-38q0 -37 -15 -69t-40.5 -56t-59 -37.5t-71.5 -13.5h-173q-43 0 -81 16.5t-66 44.5t-44.5 66t-16.5 82v275h82v-262q0 -25 10 -48t26.5 -39.5t39.5 -26.5t48 -10h176q21 0 39.5 8t33 22t22.5 33t8 40v300h82v-137q0 -16 3 -26t7 -16q4 -7 10 -11l154 167
q29 32 69 49.5t85 17.5h61q31 0 58 -11.5t47 -31.5t31.5 -47t11.5 -58v-60zM913 575h95v-95h-95v95z" />
    <glyph glyph-name="uniFEBF" unicode="&#x636;" horiz-adv-x="788" arabic-form="initial" 
d="M588 98q25 0 42.5 17t17.5 43v58q0 26 -18.5 44.5t-44.5 18.5h-73q-30 0 -55 -12t-44 -32l-127 -137h302zM193 190q0 -16 3 -26t7 -16q4 -7 10 -11l154 167q29 32 69 49.5t84 17.5h62q31 0 58 -11.5t47 -32t31.5 -47.5t11.5 -57v-67q0 -32 -12.5 -60.5t-33.5 -49.5
t-49 -33.5t-60 -12.5h-311q-37 0 -66.5 16t-46.5 48q-22 -32 -53 -48t-67 -16h-31q-6 0 -10 4.5t-4 9.5v69q0 6 4 10.5t10 4.5h46q27 0 46 18.5t19 45.5v147h82v-119zM485 480h95v95h-95v-95z" />
    <glyph glyph-name="uniFEC0" unicode="&#x636;" horiz-adv-x="829" arabic-form="medial" 
d="M588 98q25 0 43 17.5t18 41.5v59q0 26 -19 44t-45 18h-73q-29 0 -54 -12t-45 -32l-128 -136h303zM194 184q0 -15 2.5 -24.5t6.5 -14.5q3 -7 8 -10l156 168q30 32 69.5 49.5t84.5 17.5h61q31 0 58 -11.5t47.5 -31.5t32 -47t11.5 -58v-65q0 -25 19 -42t45 -17h33q5 0 10 -4
t5 -10v-70q0 -5 -4.5 -9.5t-10.5 -4.5h-19q-36 0 -67 15.5t-51 47.5q-43 -63 -116 -63h-302q-39 0 -70.5 14.5t-51.5 48.5q-45 -63 -119 -63h-32q-14 0 -14 14v69q0 6 4.5 10t9.5 4h47q27 0 46 19t19 45v148h82v-125zM486 479h95v95h-95v-95z" />
    <glyph glyph-name="uniFEC2" unicode="&#x637;" horiz-adv-x="780" arabic-form="final" 
d="M538 98q25 0 42.5 17.5t17.5 42.5v58q0 26 -18.5 44t-44.5 18h-73q-29 0 -54.5 -11t-45.5 -32l-128 -137h304zM71 98h54l110 118v452h82v-328q0 -17 -4 -31.5t-5 -14.5l10.5 10.5t14.5 13.5q26 25 62 39t75 14h62q31 0 58 -11.5t47 -31.5t31.5 -47t11.5 -58v-61
q0 -27 19 -45.5t46 -18.5h36q5 0 9.5 -4t4.5 -10v-70q0 -6 -4.5 -10t-9.5 -4h-22q-36 0 -67 15.5t-51 46.5q-21 -31 -51 -46.5t-66 -15.5h-453v98z" />
    <glyph glyph-name="uniFEC3" unicode="&#x637;" horiz-adv-x="677" arabic-form="initial" 
d="M619 156q0 -32 -12.5 -60.5t-33.5 -49.5t-49.5 -33.5t-60.5 -12.5h-463q-6 0 -10 4.5t-4 10.5v69q0 14 14 14h64l109 118v452h83v-327q0 -8 -1 -16.5t-3 -15.5q-2 -8 -5 -15l4 4t6.5 7t6.5 7l4 4q29 27 65.5 41t75.5 14h62q31 0 58 -11.5t47 -31.5t31.5 -47t11.5 -58v-67
zM477 98q25 0 42.5 17.5t17.5 42.5v59q0 26 -18.5 44t-44.5 18h-73q-59 0 -100 -44l-128 -137h304z" />
    <glyph glyph-name="uniFEC4" unicode="&#x637;" horiz-adv-x="720" arabic-form="medial" 
d="M734 14q0 -6 -4.5 -10t-9.5 -4h-22q-36 0 -67 15.5t-51 47.5q-21 -32 -51 -47.5t-66 -15.5h-463q-14 0 -14 14v70q0 14 14 14h64l110 118v452h82v-328q0 -17 -4 -31.5t-5 -14.5l10.5 10.5t14.5 13.5q26 25 62 39t75 14h62q31 0 58 -11.5t47 -31.5t31.5 -47t11.5 -58v-61
q0 -27 19 -45.5t46 -18.5h36q5 0 9.5 -4t4.5 -10v-70zM477 98q25 0 42.5 17.5t17.5 42.5v58q0 26 -18.5 44t-44.5 18h-73q-29 0 -54.5 -11t-45.5 -32l-128 -137h304z" />
    <glyph glyph-name="uniFEC6" unicode="&#x638;" horiz-adv-x="780" arabic-form="final" 
d="M538 98q25 0 42.5 17.5t17.5 42.5v58q0 26 -18.5 44t-44.5 18h-73q-29 0 -54.5 -11t-45.5 -32l-128 -137h304zM71 98h54l110 118v452h82v-328q0 -17 -4 -31.5t-5 -14.5l10.5 10.5t14.5 13.5q26 25 62 39t75 14h62q31 0 58 -11.5t47 -31.5t31.5 -47t11.5 -58v-61
q0 -27 19 -45.5t46 -18.5h36q5 0 9.5 -4t4.5 -10v-70q0 -6 -4.5 -10t-9.5 -4h-22q-36 0 -67 15.5t-51 46.5q-21 -31 -51 -46.5t-66 -15.5h-453v98zM433 480h95v95h-95v-95z" />
    <glyph glyph-name="uniFEC7" unicode="&#x638;" horiz-adv-x="676" arabic-form="initial" 
d="M619 156q0 -32 -12.5 -60.5t-33.5 -49.5t-49.5 -33.5t-60.5 -12.5h-463q-6 0 -10 4.5t-4 9.5v70q0 14 14 14h64l109 118v452h83v-327q0 -8 -1 -16.5t-3 -15.5q-2 -8 -5 -15q1 1 4 4.5t6.5 7l6.5 6.5l4 4q29 27 65.5 41t75.5 14h62q31 0 58 -11.5t47 -31.5t31.5 -47
t11.5 -58v-67zM477 98q25 0 42.5 17.5t17.5 42.5v59q0 26 -18.5 44t-44.5 18h-73q-59 0 -100 -44l-128 -137h304zM375 480h95v95h-95v-95z" />
    <glyph glyph-name="uniFEC8" unicode="&#x638;" horiz-adv-x="720" arabic-form="medial" 
d="M734 14q0 -6 -4.5 -10t-9.5 -4h-22q-36 0 -67 15.5t-51 47.5q-21 -32 -51 -47.5t-66 -15.5h-463q-14 0 -14 14v70q0 14 14 14h64l110 118v452h82v-328q0 -17 -4 -31.5t-5 -14.5l10.5 10.5t14.5 13.5q26 25 62 39t75 14h62q31 0 58 -11.5t47 -31.5t31.5 -47t11.5 -58v-61
q0 -27 19 -45.5t46 -18.5h36q5 0 9.5 -4t4.5 -10v-70zM477 98q25 0 42.5 17.5t17.5 42.5v58q0 26 -18.5 44t-44.5 18h-73q-29 0 -54.5 -11t-45.5 -32l-128 -137h304zM375 574h95v-95h-95v95z" />
    <glyph glyph-name="uniFECA" unicode="&#x639;" horiz-adv-x="606" arabic-form="final" 
d="M186 311v-75l131 -86l118 82v26q0 23 -17.5 38t-40.5 15h-191zM376 404q29 0 54.5 -11t44.5 -29.5t30 -43.5t11 -54v-25q0 -23 -11 -45.5t-31 -36.5l-67 -47q20 -8 42.5 -10.5t45.5 -2.5h111q7 0 9.5 -5t2.5 -11v-70q0 -13 -12 -13h-112q-50 0 -95.5 12t-87.5 34l-92 -66
q-29 -21 -45 -52.5t-16 -68.5q0 -33 12.5 -61.5t34.5 -50.5t51 -34.5t62 -12.5h246v-97h-246q-51 0 -96 19.5t-79 53.5t-53.5 79t-19.5 96q0 57 24.5 106t70.5 82l74 55l-134 91v128q0 42 24.5 66.5t65.5 24.5h181z" />
    <glyph glyph-name="uniFECB" unicode="&#x639;" horiz-adv-x="479" arabic-form="initial" 
d="M422 36l-153 -21q-59 -8 -116.5 -12t-114.5 -4h-39q-6 0 -9.5 4.5t-4.5 10.5v69q0 6 4 10.5t12 4.5h112q-8 13 -11 28l-22 117q-6 32 2.5 61.5t27.5 52.5t47 37t60 14h163v-93h-168q-25 0 -40.5 -19t-10.5 -43l30 -153l218 23z" />
    <glyph glyph-name="uniFECC" unicode="&#x639;" horiz-adv-x="609" arabic-form="medial" 
d="M189 237q12 -8 33.5 -22.5t42.5 -28.5q24 -17 51 -36l122 83v26q0 24 -16 39.5t-39 15.5h-194v-77zM383 405q28 0 53 -10.5t43.5 -29.5t29.5 -43.5t11 -53.5v-25q0 -24 -11 -46t-31 -36l-71 -49q16 -5 41.5 -9.5t54.5 -4.5h106q6 1 10 -4t4 -11v-69q0 -5 -4 -9.5t-9 -4.5
h-118q-48 0 -93.5 13t-87.5 36q-42 -23 -87.5 -36t-93.5 -13h-130q-5 0 -9.5 4.5t-4.5 9.5v69q0 6 4.5 10.5t9.5 4.5h127q24 0 50 3.5t42 9.5l-112 76v129q0 40 24 64.5t64 24.5h188z" />
    <glyph glyph-name="uniFECE" unicode="&#x63a;" horiz-adv-x="607" arabic-form="final" 
d="M249 512h95v95h-95v-95zM186 310v-74l131 -86l118 81v27q0 23 -17.5 37.5t-40.5 14.5h-191zM376 404q29 0 54.5 -11t44.5 -29.5t30 -43.5t11 -54v-25q0 -23 -11 -46t-31 -37l-67 -47q20 -7 42.5 -10t45.5 -3h111q15 0 15 -16v-68q0 -13 -15 -13h-112q-100 0 -183 44
l-92 -66q-29 -20 -45 -52t-16 -69q0 -32 12.5 -61t34.5 -50.5t51 -34t62 -12.5h246v-97h-246q-51 0 -96 19.5t-79 53t-53.5 79t-19.5 96.5q0 56 24.5 105.5t70.5 81.5l74 55l-134 91v129q0 42 24.5 66.5t65.5 24.5h181z" />
    <glyph glyph-name="uniFECF" unicode="&#x63a;" horiz-adv-x="479" arabic-form="initial" 
d="M204 492h95v95h-95v-95zM422 36l-153 -21q-117 -15 -231 -15h-38q-12 0 -14 14v69q0 6 3.5 10.5t10.5 4.5h113q-8 13 -11 28l-22 117q-6 32 2.5 61.5t27.5 52.5t47 37t60 14h163v-93h-168q-25 0 -40.5 -19t-10.5 -43l30 -153l218 23z" />
    <glyph glyph-name="uniFED0" unicode="&#x63a;" horiz-adv-x="609" arabic-form="medial" 
d="M194 237q12 -8 33.5 -22.5t42.5 -28.5q25 -17 52 -36l122 83v26q0 24 -16 39.5t-39 15.5h-195v-77zM388 405q28 0 53 -10.5t44 -29.5t30 -43.5t11 -53.5v-25q0 -24 -11 -46t-32 -36l-70 -49q15 -5 38 -9.5t57 -4.5h101q7 0 10.5 -4.5t3.5 -10.5v-69q0 -5 -4.5 -9.5
t-9.5 -4.5h-111q-48 0 -93.5 13t-87.5 36q-42 -23 -87.5 -36t-93.5 -13h-136q-5 0 -9.5 4.5t-4.5 9.5v69q0 6 4 10.5t10 4.5h132q26 0 51.5 3.5t40.5 9.5l-111 76v129q0 40 24 64.5t64 24.5h187zM256 516h95v94h-95v-94z" />
    <glyph glyph-name="uniFED2" unicode="&#x641;" horiz-adv-x="932" arabic-form="final" 
d="M707 111q42 17 69 42.5t27 50.5v30q0 36 -26 61.5t-63 25.5h-15q-36 0 -62 -25.5t-26 -61.5v-30q0 -26 27.5 -50.5t68.5 -42.5zM885 211q0 -32 -14.5 -60.5t-39.5 -52.5h33h69q6 0 10 -4.5t4 -10.5v-69q0 -6 -4.5 -10t-9.5 -4h-90q-18 0 -33 1.5t-31 5t-33 9.5t-39 16
q-43 -19 -72 -25.5t-64 -6.5h-310q-41 0 -75.5 14.5t-60 40t-40 60t-14.5 74.5v164h82v-159q0 -42 27.5 -69t69.5 -27h300h33q-25 24 -39.5 52.5t-14.5 60.5v29q0 35 14 66.5t38 55.5t55 38t65 14h14q35 0 66 -13.5t54 -36.5t36.5 -54.5t13.5 -66.5v-32zM658 617h95v-95h-95
v95z" />
    <glyph glyph-name="uniFED3" unicode="&#x641;" horiz-adv-x="464" arabic-form="initial" 
d="M181 270h142v119q0 23 -16 39t-39 16h-66q-20 0 -35.5 -12.5t-18.5 -32.5l-14 -72q-4 -23 10 -40t37 -17zM405 162q0 -34 -12.5 -63.5t-34.5 -51.5t-51.5 -34.5t-63.5 -12.5h-243q-14 0 -14 14v70q0 5 4 9.5t10 4.5h253q28 0 49 16t21 51v16q-22 -9 -47 -9h-85
q-33 0 -61.5 14t-47.5 37.5t-27 54t-2 62.5l16 83q5 25 17.5 45.5t30.5 35.5t41 23.5t48 8.5h53q30 0 57 -11.5t46.5 -31.5t31 -47t11.5 -57v-227zM189 739h95v-95h-95v95z" />
    <glyph glyph-name="uniFED4" unicode="&#x641;" horiz-adv-x="461" arabic-form="medial" 
d="M136 207q0 -29 26 -52.5t68 -43.5q42 20 69 43.5t27 52.5v27q0 37 -26 62.5t-63 25.5h-15q-36 0 -61 -25.5t-25 -62.5v-27zM54 241q0 36 14 68t37 55t54 36.5t65 13.5h14q35 0 66 -13.5t54 -36.5t36.5 -54t13.5 -66v-33q0 -32 -14.5 -60.5t-39.5 -51.5q5 -1 14.5 -1h15.5
h77q6 0 10 -4.5t4 -10.5v-69q0 -14 -14 -14h-95q-35 0 -66 7t-70 25q-39 -18 -70 -25t-66 -7h-94q-14 0 -14 14v69q0 6 4 10.5t10 4.5h77h15.5t14.5 1q-25 23 -39 51.5t-14 60.5v30zM181 523h95v95h-95v-95z" />
    <glyph glyph-name="uniFED6" unicode="&#x642;" horiz-adv-x="734" arabic-form="final" 
d="M748 14q0 -5 -4 -9.5t-10 -4.5h-97v-39q0 -39 -14.5 -72.5t-40 -59t-59 -40t-72.5 -14.5h-173q-43 0 -81 16.5t-66 44.5t-44.5 66t-16.5 81v248h82v-235q0 -26 10 -48t26.5 -39t39.5 -26.5t48 -9.5h176q43 0 72.5 28t29.5 69v38q-7 -2 -19 -5t-27 -3h-85q-33 0 -61.5 14
t-47.5 37.5t-27 54t-2 62.5l15 83q10 50 48.5 81.5t88.5 31.5h53q31 0 57.5 -11.5t46.5 -31t31.5 -46.5t11.5 -57v-120h97q6 0 10 -4.5t4 -10.5v-69zM555 217q0 23 -16 38.5t-39 15.5h-66q-20 0 -35 -12t-19 -32l-14 -72q-5 -23 9.5 -40t37.5 -17h142v119zM337 473h95v95
h-95v-95zM484 473h95v95h-95v-95z" />
    <glyph glyph-name="uniFED7" unicode="&#x642;" horiz-adv-x="464" arabic-form="initial" 
d="M182 270h142v120q0 23 -16 39t-39 16h-67q-20 0 -35 -12.5t-19 -32.5l-13 -72q-5 -23 9.5 -40.5t37.5 -17.5zM406 163q0 -34 -13 -63.5t-35 -51.5t-51.5 -35t-63.5 -13h-243q-6 0 -10 4.5t-4 10.5v68q0 6 4 10.5t10 4.5h254q28 0 48.5 16.5t20.5 50.5v17q-21 -9 -47 -9
h-84q-33 0 -61.5 14t-47.5 37.5t-27 53.5t-2 63l15 83q10 50 48.5 81.5t88.5 31.5h53q31 0 57.5 -11.5t46.5 -31.5t31.5 -47t11.5 -57v-227zM110 740h95v-95h-95v95zM257 740h95v-95h-95v95z" />
    <glyph glyph-name="uniFED8" unicode="&#x642;" horiz-adv-x="461" arabic-form="medial" 
d="M136 207q0 -29 26 -52.5t68 -43.5q42 20 69 43.5t27 52.5v27q0 37 -26 62.5t-63 25.5h-15q-36 0 -61 -25.5t-25 -62.5v-27zM54 241q0 36 14 68t37 55t54 36.5t65 13.5h14q35 0 66 -13.5t54 -36.5t36.5 -54t13.5 -66v-33q0 -32 -14.5 -60.5t-39.5 -51.5q5 -1 14.5 -1h15.5
h76q6 0 10.5 -4.5t4.5 -10.5v-69q0 -6 -4.5 -10t-10.5 -4h-94q-35 0 -66 7t-70 25q-39 -18 -70 -25t-66 -7h-94q-14 0 -14 14v69q0 6 4 10.5t10 4.5h77h15.5t14.5 1q-25 23 -39 51.5t-14 60.5v30zM108 523h95v95h-95v-95zM255 523h95v95h-95v-95z" />
    <glyph glyph-name="uniFEDA" unicode="&#x643;" horiz-adv-x="893" arabic-form="final" 
d="M70 187v167h82v-157q0 -42 29 -70.5t71 -28.5h400q26 0 45.5 19t19.5 46v520h82v-520q0 -27 19 -46t46 -19h29q14 0 14 -14v-70q0 -14 -14 -14h-15q-37 0 -67.5 15.5t-52.5 43.5q-22 -28 -53.5 -43.5t-67.5 -15.5h-380q-39 0 -73 14.5t-59.5 40t-40 59.5t-14.5 73z
M317 286l251 127l-28 57l-129 -67q-5 10 -13.5 26.5t-10.5 21.5q-8 14 -2.5 28t18.5 20l77 34l-24 59l-77 -31q-18 -7 -31.5 -21t-21 -32t-7.5 -38.5t10 -40.5q4 -8 10 -19.5t7 -14.5q5 -8 10 -11.5t9 -3.5l-76 -35z" />
    <glyph glyph-name="uniFEDB" unicode="&#x643;" horiz-adv-x="393" arabic-form="initial" 
d="M125 0h-125q-6 0 -10 4.5t-4 10.5v69q0 5 4 9.5t10 4.5h135q32 0 56.5 15.5t37 40.5t10.5 56t-25 61l-164 225v65l318 161l37 -74l-271 -137l148 -193q39 -51 42.5 -107t-20 -103t-70.5 -77.5t-109 -30.5z" />
    <glyph glyph-name="uniFEDC" unicode="&#x643;" horiz-adv-x="513" arabic-form="medial" 
d="M125 0h-125q-6 0 -10 4.5t-4 10.5v69q0 5 4 9.5t10 4.5h135q32 0 56.5 16t37 40.5t10 55.5t-24.5 61l-164 224v66l318 161l37 -74l-271 -137l278 -366q16 -22 39 -35t50 -13h12q14 0 14 -14v-69q0 -5 -4 -9.5t-10 -4.5h-10q-88 0 -142 79l-50 72q-5 -35 -22.5 -63
t-43 -47.5t-56.5 -30t-64 -10.5z" />
    <glyph glyph-name="uniFEDE" unicode="&#x644;" horiz-adv-x="757" arabic-form="final" 
d="M278 -174q-43 0 -81 16.5t-66 45t-44.5 66.5t-16.5 81v246h82v-233q0 -25 10 -48t26.5 -39.5t39.5 -26.5t48 -10h176q21 0 40 8t33 22t22 33t8 40v641h82v-506q0 -26 19 -45t46 -19h55q6 0 10 -4.5t4 -9.5v-69q0 -6 -4 -10.5t-10 -4.5h-40q-23 0 -43 7.5t-37 30.5v-33
q0 -33 -13.5 -65t-38 -57.5t-59 -41t-75.5 -15.5h-173z" />
    <glyph glyph-name="uniFEDF" unicode="&#x644;" horiz-adv-x="265" arabic-form="initial" 
d="M-14 84q0 14 14 14h60q27 0 46 19t19 45v506h83v-506q0 -34 -13 -63.5t-35 -51.5t-51.5 -34.5t-63.5 -12.5h-45q-14 0 -14 14v70z" />
    <glyph glyph-name="uniFEE0" unicode="&#x644;" horiz-adv-x="333" arabic-form="medial" 
d="M333 98q14 0 14 -14v-70q0 -14 -14 -14h-45q-36 0 -67 14.5t-52 40.5q-22 -26 -53.5 -40.5t-67.5 -14.5h-48q-14 0 -14 14v70q0 14 14 14h63q27 0 46 19t19 45v506h82v-510q2 -26 20 -43t44 -17h59z" />
    <glyph glyph-name="uniFEE2" unicode="&#x645;" horiz-adv-x="742" arabic-form="final" 
d="M331 154q-5 -22 8.5 -39t38.5 -17h148v126q0 23 -16.5 39t-39.5 16h-116zM386 0q-33 0 -61 14t-46.5 37t-27 53t-2.5 63l21 112h-53q-26 0 -45.5 -20.5t-19.5 -47.5v-462h-82v459q0 34 13 63.5t35 51.5t51.5 35t63.5 13h226q31 0 58 -11.5t47.5 -31.5t32 -47t11.5 -58
v-60q0 -27 19 -46t45 -19h70q14 0 14 -14v-70q0 -5 -4 -9.5t-10 -4.5h-56q-29 0 -56.5 11t-47.5 36q-11 -27 -30 -37t-45 -10h-121z" />
    <glyph glyph-name="uniFEE3" unicode="&#x645;" horiz-adv-x="520" arabic-form="initial" 
d="M232 98h148v126q0 23 -16 38.5t-39 15.5h-71q-20 0 -34.5 -12t-18.5 -32l-16 -80q-4 -22 10 -39t37 -17zM101 155l20 103q10 49 48.5 81t88.5 32h56q31 0 58 -11.5t47 -31.5t31.5 -47t11.5 -58v-122q0 -44 -28 -72.5t-72 -28.5h-121q-31 0 -58 14t-45 49
q-20 -35 -49.5 -49t-61.5 -14h-27q-14 0 -14 14v70q0 5 4 9.5t10 4.5h32q25 0 44.5 16t24.5 41z" />
    <glyph glyph-name="uniFEE4" unicode="&#x645;" horiz-adv-x="561" arabic-form="medial" 
d="M0 0q-14 0 -14 14v70q0 5 4 9.5t9 4.5h33q25 0 44.5 16t24.5 41l20 103q10 49 48.5 81t88.5 32h56q31 0 58 -11.5t47 -31.5t31.5 -47t11.5 -58v-61q0 -26 19 -45t46 -19h34q14 0 14 -14v-70q0 -6 -4.5 -10t-9.5 -4h-20q-29 0 -56.5 11t-47.5 37q-11 -29 -30 -38.5
t-45 -9.5h-121q-31 0 -58 14t-45 49q-20 -35 -49.5 -49t-61.5 -14h-27zM232 98h148v126q0 23 -16 38.5t-39 15.5h-71q-20 0 -34.5 -12t-18.5 -32l-16 -80q-4 -22 10 -39t37 -17z" />
    <glyph glyph-name="uniFEE6" unicode="&#x646;" horiz-adv-x="762" arabic-form="final" 
d="M70 32v276h82v-263q0 -25 10 -47.5t26.5 -39.5t39.5 -26.5t48 -9.5h176q21 0 40 8t33 22t22 33t8 40v300h82v-162q0 -33 21 -49t48 -16h56q14 0 14 -14v-70q0 -5 -4 -9.5t-10 -4.5h-47q-29 0 -49 11.5t-29 25.5v-36q0 -37 -15 -69t-40.5 -56t-59 -38t-71.5 -14h-173
q-43 0 -81 16.5t-66 44.5t-44.5 66t-16.5 81zM306 420h95v-95h-95v95z" />
    <glyph glyph-name="uniFEE7" unicode="&#x646;" horiz-adv-x="345" arabic-form="initial" 
d="M138 98q26 0 45 19t19 45v192h82v-192q0 -33 -12.5 -62.5t-34.5 -51.5t-51.5 -35t-63.5 -13h-122q-6 0 -10 4.5t-4 9.5v69q0 6 4 10.5t10 4.5h138zM192 464h95v95h-95v-95z" />
    <glyph glyph-name="uniFEE8" unicode="&#x646;" horiz-adv-x="355" arabic-form="medial" 
d="M142 430h95v95h-95v-95zM369 14q0 -5 -4 -9.5t-10 -4.5h-67q-16 0 -33 5t-32 13.5t-26 20.5t-16 25q-16 -27 -48.5 -45.5t-66.5 -18.5h-66q-14 0 -14 14v70q0 14 14 14h71q26 0 45.5 16t24.5 41l34 166l81 -14l-28 -139q-5 -27 13.5 -48.5t47.5 -21.5h66q14 0 14 -14v-70
z" />
    <glyph glyph-name="uniFEEA" unicode="&#x647;" horiz-adv-x="519" arabic-form="final" 
d="M71 245q0 63 35 106.5t90 57.5l137 35v79h82v-355q0 -14 6 -27t16.5 -22.5t23.5 -15t28 -5.5h30q14 0 14 -14v-70q0 -14 -14 -14h-30q-48 0 -84 25t-56 66q-9 -8 -23 -12t-28 -4h-123q-48 0 -76 29t-28 76v65zM333 355l-117 -29q-29 -8 -46 -32t-17 -53v-68h180v182z" />
    <glyph glyph-name="uniFEEB" unicode="&#x647;" horiz-adv-x="704" arabic-form="initial" 
d="M0 0q-14 0 -14 13v71q0 14 14 14h101q-14 6 -19 29t0 44l15 70q5 24 17.5 44t30 34.5t40 23t46.5 8.5h38q30 0 56.5 -11.5t46 -31t30.5 -45.5t11 -55v-72q0 -17 -4 -27t-4 -11h159v141q0 29 -15.5 49.5t-40.5 28.5l-338 104l23 85l329 -102q54 -17 89.5 -61t35.5 -107
v-131q0 -48 -29 -76.5t-77 -28.5h-154v55q-3 -10 -12.5 -19.5t-22.5 -17.5t-28 -13t-30 -5h-294zM330 98v115q0 22 -15 37t-38 15h-51q-19 0 -33.5 -12t-18.5 -31l-13 -71q-5 -22 9.5 -37.5t36.5 -15.5h123z" />
    <glyph glyph-name="uniFEEC" unicode="&#x647;" horiz-adv-x="585" arabic-form="medial" 
d="M78 98v115q0 30 11.5 57t31.5 47t46.5 31.5t57.5 11.5h40q50 0 88.5 -32t48.5 -81l15 -79q6 -33 -2 -63t-27.5 -53.5t-47.5 -37.5t-61 -14h-71q-25 0 -48 9q0 -1 1 -3v-7q-2 -79 66 -92l99 -19l87 125q29 41 68.5 63t90.5 22h13q5 0 9.5 -4t4.5 -10v-70q0 -14 -14 -14
h-30q-53 0 -85 -49q-3 -5 -20 -29t-36 -51.5t-34.5 -50.5t-17.5 -25l-173 42q-52 11 -81 53.5t-29 109.5h-79q-5 0 -9.5 4t-4.5 10v70q0 6 4.5 10t9.5 4h78zM161 213v-115h128q23 0 37.5 17t9.5 39l-13 68q-3 20 -18.5 32.5t-35.5 12.5h-54q-23 0 -38.5 -15.5t-15.5 -38.5z
" />
    <glyph glyph-name="uniFEEE" unicode="&#x648;" horiz-adv-x="498" arabic-form="final" 
d="M200 0q-33 0 -61 14t-46.5 37t-27 53t-2.5 62l17 91q10 50 48.5 82t88.5 32h57q31 0 58 -11.5t47 -32t31.5 -47.5t11.5 -57v-125h76q14 0 14 -14v-70q0 -14 -14 -14h-77v-5t-1 -8q-3 -68 -44.5 -122t-108.5 -77l-123 -42l-26 81l128 43q42 14 67 47t25 78v14
q-9 -5 -21.5 -7t-24.5 -2h-92zM191 98h148v125q0 23 -16 39t-39 16h-71q-20 0 -34.5 -12t-18.5 -32l-16 -81q-4 -22 10 -38.5t37 -16.5z" />
    <glyph glyph-name="uniFEF0" unicode="&#x649;" horiz-adv-x="740" arabic-form="final" 
d="M455 -137q42 0 71 28.5t30 70.5v38h-191v98h375q14 0 14 -13v-71q0 -14 -14 -14h-106q1 -3 2.5 -8.5t1.5 -13.5v-29q0 -39 -15 -72.5t-40.5 -58t-60 -39t-73.5 -14.5h-171q-43 0 -81 16.5t-66 44.5t-44.5 66t-16.5 81v248h82v-235q0 -26 10 -48t27 -39t40 -26.5t48 -9.5
h178z" />
    <glyph glyph-name="uniFEF2" unicode="&#x64a;" horiz-adv-x="740" arabic-form="final" 
d="M455 -138q42 0 71 29t30 71v38h-190v98h374q14 0 14 -13v-71q0 -14 -14 -14h-106q1 -3 2.5 -8.5t1.5 -13.5v-29q0 -39 -15 -72.5t-40.5 -58t-60 -39t-73.5 -14.5h-171q-43 0 -81 16.5t-66 44.5t-44.5 66t-16.5 81v248h82v-235q0 -26 10 -48.5t27 -39t40 -26.5t48 -10h178
zM234 -416h94v95h-94v-95zM380 -416h95v95h-95v-95z" />
    <glyph glyph-name="uniFEF3" unicode="&#x64a;" horiz-adv-x="394" arabic-form="initial" 
d="M7 -120h95v-95h-95v95zM154 -120h95v-95h-95v95zM198 98q26 0 45 19t19 45v192h82v-192q0 -33 -12.5 -62.5t-34.5 -51.5t-51.5 -35t-63.5 -13h-182q-6 0 -10 4.5t-4 9.5v69q0 6 4 10.5t10 4.5h198z" />
    <glyph glyph-name="uniFEF4" unicode="&#x64a;" horiz-adv-x="355" arabic-form="medial" 
d="M59 -215h95v95h-95v-95zM206 -215h95v95h-95v-95zM369 14q0 -5 -4 -9.5t-10 -4.5h-67q-16 0 -33 5t-32 13.5t-26 20.5t-16 25q-16 -27 -48.5 -45.5t-66.5 -18.5h-66q-14 0 -14 14v70q0 14 14 14h71q26 0 45.5 16t24.5 41l34 166l81 -14l-28 -139q-5 -27 13.5 -48.5
t47.5 -21.5h66q14 0 14 -14v-70z" />
    <glyph glyph-name=".notdef" horiz-adv-x="250" 
 />
    <glyph glyph-name=".null" 
 />
    <glyph glyph-name=".null" 
 />
    <glyph glyph-name="uni000D" unicode="&#xd;" horiz-adv-x="250" 
 />
    <glyph glyph-name="space" unicode=" " horiz-adv-x="120" 
 />
    <glyph glyph-name="exclam" unicode="!" horiz-adv-x="247" 
d="M70 687h107l-9 -450h-90zM76 118h96v-118h-96v118z" />
    <glyph glyph-name="quotedbl" unicode="&#x22;" horiz-adv-x="398" 
d="M60 687h98l-6 -229h-89zM240 687h97l-5 -229h-89z" />
    <glyph glyph-name="numbersign" unicode="#" horiz-adv-x="659" 
d="M175 164h-105v84h105v161h-105v84h105v171h88v-171h133v171h88v-171h105v-84h-105v-161h105v-84h-105v-164h-88v164h-133v-164h-88v164zM396 248v161h-133v-161h133z" />
    <glyph glyph-name="dollar" unicode="$" horiz-adv-x="580" 
d="M266 -126q-58 3 -58 6l14 110l-32.5 5t-39.5 6.5t-39 7t-33 6.5l11 79q10 -1 31 -3.5t43.5 -4.5t42.5 -4t27 -3l27 214q-39 11 -74 25t-61 36t-40.5 54.5t-14.5 79.5q0 34 9.5 67.5t35.5 60t72.5 42.5t120.5 15l18 130l57 1l-17 -135q12 -1 29 -3.5t35 -5t35 -5.5t29 -6
l-8 -81q-10 1 -29 3t-38.5 4t-37 3.5t-26.5 2.5l-27 -206q47 -13 81 -27t56.5 -34t33.5 -48.5t11 -70.5q-1 -101 -58.5 -155t-163.5 -54h-9zM297 583q-27 -1 -50 -4.5t-39.5 -13t-26 -26.5t-9.5 -46q0 -21 5.5 -36t17.5 -26t31.5 -20t46.5 -17zM291 77q60 2 88.5 29t28.5 78
q0 21 -5 35t-16 24t-28.5 17.5t-42.5 15.5z" />
    <glyph glyph-name="percent" unicode="%" horiz-adv-x="596" 
d="M161 -6l217 695l58 -20l-217 -693zM155 387q-115 0 -115 144q0 140 115 140q114 0 114 -140q0 -72 -29 -108t-85 -36zM155 450q43 0 43 81q0 77 -43 77q-44 0 -44 -77q0 -81 44 -81zM441 -11q-56 0 -85 36t-29 108q0 140 114 140q115 0 115 -140q0 -72 -29.5 -108
t-85.5 -36zM442 52q43 0 43 81q0 77 -43 77q-24 0 -34 -18.5t-10 -57.5q0 -82 44 -82z" />
    <glyph glyph-name="ampersand" unicode="&#x26;" horiz-adv-x="759" 
d="M314 -11q-126 0 -185 53.5t-59 159.5q0 41 9 72.5t27.5 55t47 41t67.5 31.5q-34 38 -48 70t-14 72q0 80 49 121t140 41q90 0 137 -40t47 -115q0 -36 -10.5 -65t-30 -52.5t-46.5 -42.5t-60 -36l130 -128q5 13 8.5 31t6.5 38t5.5 40.5t3.5 37.5l97 -2q-15 -123 -48 -205
l121 -112l-57 -66l-115 103q-41 -53 -93.5 -78t-129.5 -25zM329 412q18 9 36.5 21.5t33 29t23.5 36.5t9 45q0 36 -20.5 55.5t-63.5 19.5q-44 0 -65.5 -19.5t-21.5 -53.5q0 -19 6.5 -38.5t16.5 -36.5t22.5 -32t23.5 -27zM314 79q54 0 94 17.5t60 51.5l-194 194
q-54 -19 -78.5 -49.5t-24.5 -84.5q0 -129 143 -129z" />
    <glyph glyph-name="quotesingle" unicode="'" horiz-adv-x="218" 
d="M60 687h98l-6 -229h-89z" />
    <glyph glyph-name="parenleft" unicode="(" horiz-adv-x="314" 
d="M274 -125h-95q-22 42 -42 96t-35 111.5t-23.5 114.5t-8.5 105q0 51 8 107t22 113.5t34 115.5t45 112h95q-16 -42 -32.5 -99.5t-30.5 -119.5t-23 -123.5t-9 -109.5q0 -44 7.5 -95.5t20 -106t30 -111t37.5 -110.5z" />
    <glyph glyph-name="parenright" unicode=")" horiz-adv-x="314" 
d="M40 -125q21 54 38 110.5t30 111t20 106t7 95.5q0 48 -9 109.5t-22.5 123.5t-30.5 119.5t-33 99.5h96q24 -54 44 -112t34.5 -115.5t22 -113.5t7.5 -107q0 -48 -8.5 -105t-23 -114.5t-34 -111.5t-42.5 -96h-96z" />
    <glyph glyph-name="asterisk" unicode="*" horiz-adv-x="566" 
d="M347 253l149 -149l-64 -64l-149 150l-149 -150l-64 64l150 149l-150 149l64 64l149 -149l149 149l64 -64z" />
    <glyph glyph-name="plus" unicode="+" horiz-adv-x="595" 
d="M251 206h-181v90h181v184h91v-184h183v-90h-183v-185h-91v185z" />
    <glyph glyph-name="comma" unicode="," horiz-adv-x="274" 
d="M170 -54q-16 6 -30 11.5t-25 11.5q-15 8 -29.5 22t-15.5 36q0 16 6 37t10 32l43 125l58 -20l-44 -130l62 -23z" />
    <glyph glyph-name="hyphen" unicode="-" horiz-adv-x="440" 
d="M70 318h300v-92h-300v92z" />
    <glyph glyph-name="period" unicode="." horiz-adv-x="246" 
d="M75 118h96v-118h-96v118z" />
    <glyph glyph-name="slash" unicode="/" horiz-adv-x="443" 
d="M35 9l285 704l88 -33l-284 -702z" />
    <glyph glyph-name="zero" unicode="0" horiz-adv-x="594" 
d="M297 -10q-63 0 -109 19t-77 60t-46 106t-15 156q0 92 15 156.5t45.5 106t77 60.5t108.5 19q63 0 109.5 -19t77 -60.5t46 -106t15.5 -156.5q0 -91 -15 -156t-46 -106t-77.5 -60t-108.5 -19zM297 81q38 0 64.5 13t43.5 42t25 77t8 118q0 71 -8 119t-25 77t-43.5 42
t-64.5 13q-37 0 -64 -13t-44 -42t-25 -77t-8 -119q0 -70 8 -118t25 -77t44 -42t64 -13z" />
    <glyph glyph-name="one" unicode="1" horiz-adv-x="433" 
d="M261 545l-159 -103l-47 76l214 142h94v-660h-102v545z" />
    <glyph glyph-name="two" unicode="2" horiz-adv-x="555" 
d="M65 89l171 177l77 82q26 31 41.5 63.5t15.5 71.5q0 51 -29.5 74t-92.5 23q-65 0 -146 -15l-26 -4l-6 82q48 14 96.5 21t97.5 7q108 0 159.5 -44t51.5 -138q0 -57 -19 -98q-14 -34 -44 -69t-79 -83l-151 -147h308v-92h-425v89z" />
    <glyph glyph-name="three" unicode="3" horiz-adv-x="565" 
d="M73 640q94 32 198 32q114 0 164.5 -41.5t50.5 -133.5q0 -51 -24 -89.5t-66 -61.5q28 -12 48 -25.5t32.5 -31.5t18 -41.5t5.5 -56.5q0 -103 -53 -152.5t-170 -49.5q-39 0 -84 5t-96 18l-32 7l7 81q54 -11 96.5 -16.5t77.5 -5.5q68 0 108.5 26t40.5 85q0 51 -30.5 78.5
t-89.5 27.5h-133v88h133q20 0 39 7.5t34 21.5t24 34.5t9 47.5q0 45 -29.5 66t-98.5 21q-62 0 -146 -15l-26 -4z" />
    <glyph glyph-name="four" unicode="4" horiz-adv-x="561" 
d="M343 121h-303v78l178 461h112l-185 -450h198v198h103v-198h75v-89h-75v-121h-103v121z" />
    <glyph glyph-name="five" unicode="5" horiz-adv-x="579" 
d="M292 -11q-44 0 -95 7.5t-98 18.5l-34 8l12 78q114 -21 197 -21q66 0 100 34.5t34 99.5q0 59 -29 86.5t-87 27.5q-30 0 -56.5 -6t-46 -13.5t-31 -14t-12.5 -7.5l-67 12l18 361h393v-90h-310l-18 -186q36 17 71.5 25.5t77.5 8.5q100 0 151.5 -49t51.5 -151q0 -109 -58 -169
t-164 -60z" />
    <glyph glyph-name="six" unicode="6" horiz-adv-x="609" 
d="M310 -11q-123 0 -184 85t-61 252q0 177 67.5 261t194.5 84q47 0 97 -7t94 -15l-9 -81q-48 7 -92 10.5t-83 3.5q-79 0 -120.5 -50t-41.5 -147q19 6 40 12t40.5 10.5t37 7.5t30.5 3q224 0 224 -205q0 -110 -61 -167t-173 -57zM307 79q64 0 97.5 33t33.5 96q0 60 -31.5 90
t-91.5 30q-15 0 -34 -3t-39 -7.5t-38.5 -10t-32.5 -10.5q1 -106 34.5 -162t101.5 -56z" />
    <glyph glyph-name="seven" unicode="7" horiz-adv-x="525" 
d="M138 18l239 522v28h-312v92h415v-124l-246 -547z" />
    <glyph glyph-name="eight" unicode="8" horiz-adv-x="608" 
d="M299 -11q-244 0 -244 183q0 58 25 98t76 73q-48 29 -69 63.5t-21 84.5q0 49 22.5 83.5t57 56t76 31.5t80.5 10q47 0 90 -11t77 -33.5t54 -56.5t20 -80q0 -27 -5 -48t-16 -38t-29 -32t-44 -30q53 -30 78.5 -67.5t25.5 -95.5q0 -96 -64.5 -143.5t-189.5 -47.5zM351 383
q43 17 63 41t20 60q0 95 -129 95q-130 0 -130 -96q0 -35 19 -59t59 -41h98zM304 82q140 0 140 108q0 43 -22.5 65.5t-70.5 37.5h-98q-45 -14 -66.5 -38.5t-21.5 -65.5q0 -107 139 -107z" />
    <glyph glyph-name="nine" unicode="9" horiz-adv-x="576" 
d="M270 -11q-36 0 -75.5 5t-82.5 13l-28 5l9 80q48 -7 92.5 -10t86.5 -3q160 0 161 202q-51 -18 -88 -26.5t-69 -8.5q-106 0 -161 50.5t-55 148.5q0 108 63 167t174 59q120 0 181 -87.5t61 -258.5q0 -175 -67 -255.5t-202 -80.5zM286 335q30 0 61 6.5t64 17.5l22 7
q-1 216 -141 216q-59 0 -92.5 -34.5t-33.5 -97.5q0 -115 120 -115z" />
    <glyph glyph-name="colon" unicode=":" horiz-adv-x="244" 
d="M75 444h96v-118h-96v118zM75 118h96v-118h-96v118z" />
    <glyph glyph-name="semicolon" unicode=";" horiz-adv-x="272" 
d="M81 437h95v-114h-95v114zM104 169q16 -6 29.5 -11t24.5 -12q17 -10 30 -25.5t13 -32.5q0 -7 -1.5 -16.5t-4 -19t-5 -18t-4.5 -13.5l-44 -124l-55 20l45 132l-62 23z" />
    <glyph glyph-name="less" unicode="&#x3c;" horiz-adv-x="492" 
d="M40 209v84l412 195v-102l-307 -133l307 -138v-103z" />
    <glyph glyph-name="equal" unicode="=" horiz-adv-x="577" 
d="M70 394h437v-91h-437v91zM70 200h437v-91h-437v91z" />
    <glyph glyph-name="greater" unicode="&#x3e;" horiz-adv-x="492" 
d="M40 115l307 138l-307 133v102l412 -195v-84l-412 -197v103z" />
    <glyph glyph-name="question" unicode="?" horiz-adv-x="494" 
d="M179 208q-6 11 -11 24q-4 11 -7.5 24.5t-3.5 27.5q0 18 13.5 38t32.5 39t38.5 36t32.5 29q17 16 27.5 28t16.5 23.5t8.5 24t2.5 28.5q0 40 -27.5 59t-87.5 19q-23 0 -60 -4.5t-88 -15.5l-6 78q48 16 93 24.5t83 7.5q100 -1 149 -36t49 -119q0 -33 -3.5 -57.5t-13 -45.5
t-26.5 -40t-44 -40q-37 -29 -62 -58t-25 -61v-33h-81zM168 118h96v-117h-96v117z" />
    <glyph glyph-name="at" unicode="@" horiz-adv-x="1032" 
d="M499 86q42 0 122 37q-4 23 -5.5 58.5t-1.5 86.5v131q-27 8 -49.5 12.5t-43.5 4.5q-31 0 -52 -9t-34 -29t-18 -52t-5 -78q0 -162 87 -162zM862 295q0 87 -19 151.5t-59.5 107t-104 63.5t-153.5 21q-179 0 -267 -93.5t-88 -291.5q0 -89 17.5 -158t59 -116.5t110 -72
t169.5 -24.5l143 9l5 -87q-16 -2 -37 -3.5l-42 -3t-39.5 -2.5t-30.5 -1q-116 -3 -201.5 26t-142 88t-84.5 146.5t-28 201.5q0 120 30 208t88 146.5t143.5 87t195.5 28.5q221 0 328 -110.5t107 -324.5q0 -59 -8.5 -112.5t-29.5 -94t-55.5 -64.5t-86.5 -24q-48 0 -80 15.5
t-47 44.5q-46 -29 -87 -44t-81 -15q-41 0 -73.5 12.5t-55 41.5t-34.5 76.5t-12 116.5t10.5 118t34 80.5t61 46t90.5 14.5q23 0 53 -8.5t53 -16.5v14h100v-209q0 -61 1.5 -100t8 -61.5t20.5 -31.5t39 -9q28 0 43.5 20t23.5 51t10 69t2 74z" />
    <glyph glyph-name="A" unicode="A" horiz-adv-x="601" 
d="M203 689h195l179 -689h-93l-44 163h-279l-44 -163h-93zM180 246h241l-95 363h-50z" />
    <glyph glyph-name="B" unicode="B" horiz-adv-x="598" 
d="M70 688h258q106 0 156.5 -43.5t50.5 -137.5q0 -58 -20.5 -94t-64.5 -59q53 -20 78 -59t25 -104q0 -98 -55 -144.5t-160 -46.5h-268v688zM329 390q109 0 109 108q0 55 -27 80t-87 25h-156v-213h161zM334 85q61 0 91 25t30 81q0 60 -33.5 87t-91.5 27h-162v-220h166z" />
    <glyph glyph-name="C" unicode="C" horiz-adv-x="540" 
d="M50 345q0 60 9.5 123t37.5 114t78 83.5t131 32.5q85 0 194 -24l-3 -84q-50 8 -92 12.5t-77 4.5q-57 0 -91 -26t-52.5 -66t-24 -88.5t-5.5 -93.5t6 -90.5t24.5 -81.5t54.5 -58.5t97 -22.5q31 0 71.5 4t88.5 13l3 -86q-53 -11 -98.5 -16.5t-82.5 -5.5q-79 0 -131 28
t-82.5 76t-43 113t-12.5 139z" />
    <glyph glyph-name="D" unicode="D" horiz-adv-x="630" 
d="M310 687q79 0 131 -27t83 -73t43.5 -105.5t12.5 -125.5q0 -171 -64.5 -263.5t-205.5 -92.5h-240v687h240zM310 90q48 0 80 22t51 59t26.5 86t7.5 102q0 57 -8.5 101.5t-28 74.5t-51 46t-77.5 16h-137v-507h137z" />
    <glyph glyph-name="E" unicode="E" horiz-adv-x="551" 
d="M72 687h429v-90h-326v-205h266v-90h-266v-212h326v-90h-429v687z" />
    <glyph glyph-name="F" unicode="F" horiz-adv-x="523" 
d="M173 597v-240h267v-90h-267v-268h-103v688h423v-90h-320z" />
    <glyph glyph-name="G" unicode="G" horiz-adv-x="610" 
d="M50 348q0 92 14 158t47 108.5t86 63t131 20.5t187 -20l35 -7l-3 -82q-123 18 -207 18q-56 0 -92 -19t-56.5 -54t-28.5 -84t-8 -109q0 -41 5.5 -87t23.5 -85t53 -64.5t94 -25.5q35 0 62 2.5t54 7.5v180h-100v90h203v-346q-136 -24 -223 -24q-77 0 -130 25t-85.5 72
t-47 113.5t-14.5 148.5z" />
    <glyph glyph-name="H" unicode="H" horiz-adv-x="655" 
d="M70 687h103v-297h310v297h102v-686h-102v299h-310v-299h-103v686z" />
    <glyph glyph-name="I" unicode="I" horiz-adv-x="243" 
d="M70 687h103v-687h-103v687z" />
    <glyph glyph-name="J" unicode="J" horiz-adv-x="279" 
d="M19 19q27 0 45.5 3.5t30 14t16.5 28.5t5 48v574h103v-584q0 -49 -14 -82t-40 -53.5t-63 -29.5t-83 -9v90z" />
    <glyph glyph-name="K" unicode="K" horiz-adv-x="568" 
d="M70 0v687h103v-311l104 6l151 305h117l-179 -344l187 -343h-120l-155 292l-105 -6v-286h-103z" />
    <glyph glyph-name="L" unicode="L" horiz-adv-x="479" 
d="M454 91v-91h-384v687h103v-596h281z" />
    <glyph glyph-name="M" unicode="M" horiz-adv-x="827" 
d="M757 687v-687h-103v575h-14l-173 -548h-107l-174 548h-13v-575h-103v687h180l164 -545l163 545h180z" />
    <glyph glyph-name="N" unicode="N" horiz-adv-x="663" 
d="M593 687v-687h-178l-229 598h-13v-598h-103v687h181l225 -597h14v597h103z" />
    <glyph glyph-name="O" unicode="O" horiz-adv-x="654" 
d="M50 340q0 125 27 202.5t87.5 116.5t163.5 39q101 0 162 -39t87.5 -117t26.5 -203q0 -123 -25.5 -199t-86 -113.5t-164.5 -37.5t-164.5 37t-87 114t-26.5 200zM155 341q0 -95 15 -151t52 -83.5t106 -27.5q67 0 103.5 26t52 82t15.5 153q0 96 -16 154t-53 86t-102 28
q-67 0 -104 -28t-53 -85.5t-16 -153.5z" />
    <glyph glyph-name="P" unicode="P" horiz-adv-x="587" 
d="M70 687h253q118 0 173.5 -57t55.5 -172q0 -118 -57 -178.5t-172 -60.5h-150v-219h-103v687zM322 309q127 0 127 150q0 72 -30 105t-97 33h-149v-288h149z" />
    <glyph glyph-name="Q" unicode="Q" horiz-adv-x="664" 
d="M404 -5q-24 -6 -65 -6q-78 0 -131.5 23.5t-86.5 68.5t-47 110.5t-14 149.5q0 92 14.5 159t47 111t85.5 65.5t130 21.5t129.5 -21.5t85.5 -65t47.5 -110.5t14.5 -158q0 -49 -5.5 -96.5t-18 -89t-33.5 -74t-53 -52.5l83 -136l-94 -45zM339 79q50 0 83 17.5t52.5 50.5
t27 80.5t7.5 108.5q0 59 -7.5 109t-27 86t-53 56.5t-85.5 20.5q-50 0 -83 -19t-52.5 -54t-27.5 -84.5t-8 -111.5q0 -40 4.5 -86t22 -84.5t52.5 -64t95 -25.5z" />
    <glyph glyph-name="R" unicode="R" horiz-adv-x="612" 
d="M70 687h260q229 0 229 -213q0 -152 -116 -201l118 -273h-112l-106 250h-170v-250h-103v687zM331 340q61 0 92 33.5t31 96.5q0 127 -124 127h-157v-257h158z" />
    <glyph glyph-name="S" unicode="S" horiz-adv-x="556" 
d="M276 -11q-42 0 -96 8t-123 19l10 82q137 -18 203 -18q133 0 133 117q0 26 -10 43t-29 29t-45.5 21t-59.5 17q-49 12 -88 28t-66 39t-41 55.5t-14 78.5q0 191 234 191q37 0 85 -5.5t123 -17.5l-9 -84q-57 7 -108 12t-90 5q-132 0 -132 -91q0 -31 16 -51.5t41 -34.5
t55 -22.5t58 -16.5q33 -10 66 -23.5t59 -35.5t42 -54.5t16 -79.5q0 -103 -59 -157t-171 -54z" />
    <glyph glyph-name="T" unicode="T" horiz-adv-x="530" 
d="M215 596h-200v91h500v-91h-197v-596h-103v596z" />
    <glyph glyph-name="U" unicode="U" horiz-adv-x="629" 
d="M65 687h103v-471q0 -137 147 -137q73 0 109.5 33t36.5 104v471h103v-469q0 -119 -62 -174t-189 -55q-126 0 -187 55t-61 174v469z" />
    <glyph glyph-name="V" unicode="V" horiz-adv-x="600" 
d="M25 687h107l142 -597h52l142 597h107l-172 -687h-206z" />
    <glyph glyph-name="W" unicode="W" horiz-adv-x="903" 
d="M25 687h108l103 -598h23l134 595h119l133 -595h23l104 598h106l-136 -687h-169l-121 561l-121 -561h-169z" />
    <glyph glyph-name="X" unicode="X" horiz-adv-x="584" 
d="M232 334l-207 353h115l155 -277l156 277h108l-206 -349l206 -338h-115l-154 266l-157 -266h-108z" />
    <glyph glyph-name="Y" unicode="Y" horiz-adv-x="574" 
d="M237 285l-217 402h115l152 -302l153 302h114l-215 -402v-285h-102v285z" />
    <glyph glyph-name="Z" unicode="Z" horiz-adv-x="530" 
d="M40 101l329 476v20h-329v90h450v-103l-329 -475v-19h329v-91h-450v102z" />
    <glyph glyph-name="bracketleft" unicode="[" horiz-adv-x="338" 
d="M70 749h228v-89h-126v-694h126v-89h-228v872z" />
    <glyph glyph-name="backslash" unicode="\" horiz-adv-x="470" 
d="M35 672l87 39l313 -697l-87 -37z" />
    <glyph glyph-name="bracketright" unicode="]" horiz-adv-x="338" 
d="M40 -123v89h126v694h-126v89h228v-872h-228z" />
    <glyph glyph-name="asciicircum" unicode="^" horiz-adv-x="548" 
d="M229 660h87l191 -343h-105l-128 246l-129 -246h-105z" />
    <glyph glyph-name="underscore" unicode="_" horiz-adv-x="568" 
d="M70 -84h428v-86h-428v86z" />
    <glyph glyph-name="a" unicode="a" horiz-adv-x="501" 
d="M35 145q0 75 38.5 110t123.5 43l136 12v38q0 42 -18 60t-54 18q-48 0 -96.5 -3t-96.5 -8l-4 71q54 13 103 19t93 6q92 0 132.5 -38.5t40.5 -124.5v-236q2 -21 13 -31t35 -14l-4 -78q-45 0 -74.5 9t-54.5 30q-82 -39 -166 -39q-73 0 -110 40t-37 116zM204 72q25 0 52.5 5
t56.5 14l20 6v141l-124 -12q-73 -6 -73 -79q0 -75 68 -75z" />
    <glyph glyph-name="b" unicode="b" horiz-adv-x="521" 
d="M248 -11q-42 0 -87.5 4t-90.5 9v709h100v-231q39 17 70 24t67 7q49 0 84 -14t57 -45t32.5 -80t10.5 -120t-13 -121t-42 -81.5t-75 -46t-113 -14.5zM253 78q77 0 107 40t30 135q0 47 -5.5 79.5t-18.5 52.5t-32.5 29t-48.5 9q-24 0 -52 -5.5t-63 -16.5v-318q9 -1 21 -1.5
t24 -1.5t22.5 -1.5t15.5 -0.5z" />
    <glyph glyph-name="c" unicode="c" horiz-adv-x="436" 
d="M50 251q0 62 11 110t35 82t62.5 51.5t93.5 17.5q33 0 68 -4.5t86 -14.5l-4 -79q-2 0 -16.5 1t-33 2.5t-38 3t-30.5 1.5q-40 0 -66 -10t-40.5 -31.5t-20 -54.5t-5.5 -79q0 -32 3 -62t16 -53.5t40 -38t75 -14.5l117 9l3 -81q-100 -18 -154 -18q-55 0 -93.5 15t-62.5 46.5
t-35 81.5t-11 119z" />
    <glyph glyph-name="d" unicode="d" horiz-adv-x="545" 
d="M232 -11q-97 0 -139.5 62t-42.5 193q0 141 49.5 204t155.5 63q26 0 55.5 -3.5t64.5 -9.5v213h100v-711h-100v28q-41 -21 -74.5 -30t-68.5 -9zM252 78q23 0 52 6t53 15l18 6v310q-61 11 -98 11q-35 0 -59 -10t-38.5 -31t-21 -55t-6.5 -82q0 -90 23 -130t77 -40z" />
    <glyph glyph-name="e" unicode="e" horiz-adv-x="508" 
d="M50 242q0 135 52 202t164 67q103 0 156.5 -57t49.5 -173l-6 -67h-315q1 -37 7.5 -63t22 -42.5t40.5 -24t63 -7.5q32 0 69 1t71 4l30 3l2 -74q-109 -22 -191 -22q-59 0 -100 16.5t-66.5 48.5t-37 79t-11.5 109zM150 286h222q0 77 -24.5 109.5t-81.5 32.5q-60 0 -88 -33.5
t-28 -108.5z" />
    <glyph glyph-name="f" unicode="f" horiz-adv-x="361" 
d="M95 412h-60v85h60v39q0 54 7 89.5t23.5 57t43.5 30.5t66 9l106 -8l-1 -83q-24 1 -44 2q-17 0 -31 0.5t-16 0.5q-30 2 -42 -25t-12 -74v-38h135v-85h-135v-412h-100v412z" />
    <glyph glyph-name="g" unicode="g" horiz-adv-x="549" 
d="M50 -93q0 41 19.5 70t56.5 58q-15 11 -23 28t-8 34q0 20 10.5 42t24.5 48q-74 42 -74 149q0 88 50 131t144 43q49 0 104 -13l155 5v-83l-86 4q15 -19 21 -39t6 -51q0 -91 -47.5 -129.5t-147.5 -38.5q-34 0 -51 4q-5 -11 -10 -28t-4 -27q0 -21 24.5 -28t66.5 -7
q26 -1 53.5 -2t41.5 -3q28 -3 51.5 -11t40.5 -24.5t26.5 -42t9.5 -62.5q0 -86 -57 -126.5t-183 -40.5q-112 0 -163 32.5t-51 107.5zM149 -80q0 -21 6 -35.5t20 -22.5t37 -12t58 -4q73 0 103 19t30 59q0 23 -9.5 37.5t-25 23t-35.5 11.5t-41 3h-100q-21 -17 -32 -35t-11 -44z
M253 243q51 0 74 21.5t23 72.5q0 50 -22.5 72t-73.5 22t-74.5 -22t-23.5 -73q0 -50 23 -71.5t74 -21.5z" />
    <glyph glyph-name="h" unicode="h" horiz-adv-x="519" 
d="M70 711h100v-237q40 19 74.5 28t71.5 9q49 0 81.5 -15.5t51.5 -46.5t27 -76t8 -105v-267h-100v264q0 35 -3 64t-12.5 50t-28 32.5t-48.5 11.5q-14 0 -30.5 -2.5t-33 -6t-31.5 -8t-27 -8.5v-397h-100v710z" />
    <glyph glyph-name="i" unicode="i" horiz-adv-x="210" 
d="M55 500h100v-500h-100v500zM55 706h100v-107h-100v107z" />
    <glyph glyph-name="j" unicode="j" horiz-adv-x="221" 
d="M-46 -151q51 31 73.5 52t30.5 46t8 71v482h100v-483q0 -67 -14.5 -106.5t-50 -70t-107.5 -66.5zM66 706h100v-107h-100v107z" />
    <glyph glyph-name="k" unicode="k" horiz-adv-x="496" 
d="M65 711h100v-413l67 6l125 196h112l-150 -233l157 -267h-113l-129 217l-69 -6v-211h-100v711z" />
    <glyph glyph-name="l" unicode="l" horiz-adv-x="230" 
d="M65 711h100v-711h-100v711z" />
    <glyph glyph-name="m" unicode="m" horiz-adv-x="812" 
d="M56 499h99v-31q38 22 70.5 32t67.5 10q40 0 72 -12t51 -36q44 23 91.5 35.5t89.5 12.5q49 0 81 -17.5t50.5 -49t26 -76.5t7.5 -100v-267h-100v264q0 35 -3 64t-12 50t-27 32.5t-48 11.5q-27 0 -60.5 -9t-59.5 -21q9 -14 9 -132v-260h-100v258q0 27 -1.5 56t-9.5 53
t-25.5 39.5t-49.5 15.5q-26 0 -61 -9t-58 -20v-393h-100v499z" />
    <glyph glyph-name="n" unicode="n" horiz-adv-x="519" 
d="M56 499h99v-31q42 23 75.5 32.5t68.5 9.5q50 0 82.5 -16.5t52 -47.5t27.5 -76t8 -103v-267h-100v264q0 33 -3 62t-13 50.5t-27.5 33.5t-47.5 12t-65 -10t-57 -19v-393h-100v499z" />
    <glyph glyph-name="o" unicode="o" horiz-adv-x="532" 
d="M45 249q0 57 12 105.5t38.5 83t68.5 54t102 19.5q57 0 99 -18t69 -52t40 -82.5t13 -109.5q0 -58 -12.5 -106t-39 -82t-68.5 -53t-101 -19q-114 0 -167.5 68.5t-53.5 191.5zM147 249q0 -40 5.5 -72t19 -54.5t36.5 -35t59 -12.5q67 0 92.5 44t25.5 131q0 39 -5 71.5
t-18.5 55.5t-37 36t-59.5 13q-67 0 -92.5 -45.5t-25.5 -131.5z" />
    <glyph glyph-name="p" unicode="p" horiz-adv-x="512" 
d="M55 -217v717h99v-31q40 23 72.5 32.5t67.5 9.5q95 0 139 -62t44 -199q0 -71 -12 -121t-38.5 -81t-68 -45t-101.5 -14q-53 0 -102 10v-216h-100zM250 75q68 0 97 40t29 134q0 93 -24.5 133.5t-74.5 40.5q-28 0 -63.5 -10.5t-58.5 -21.5v-308q32 -4 55 -6t40 -2z" />
    <glyph glyph-name="q" unicode="q" horiz-adv-x="515" 
d="M281 511l179 -11v-717h-100v236q-38 -16 -67.5 -23t-64.5 -7q-98 0 -143 60t-45 198q0 65 13 115t41.5 84t74.5 50.5t112 14.5zM251 78q23 0 54.5 7t54.5 15v321q-8 1 -19 1.5t-22.5 1.5t-21 1.5t-14.5 0.5q-42 2 -69.5 -8.5t-44 -33t-23 -56.5t-6.5 -80q0 -92 26 -131
t85 -39z" />
    <glyph glyph-name="r" unicode="r" horiz-adv-x="350" 
d="M55 500h99v-61q88 55 174 73v-101q-19 -3 -41 -9t-45 -14t-45.5 -17t-41.5 -17v-354h-100v500z" />
    <glyph glyph-name="s" unicode="s" horiz-adv-x="478" 
d="M237 -11q-45 0 -92 6.5t-92 15.5l4 84q60 -8 103.5 -14t76.5 -6q45 0 70.5 14.5t25.5 49.5q0 18 -10.5 30.5t-28 21.5t-41 15.5t-50.5 12.5q-36 7 -65.5 16.5t-50 25.5t-31.5 40t-11 59q0 78 50.5 114t142.5 36q43 0 89 -6.5t90 -14.5l-2 -84q-53 8 -97 14t-79 6
q-46 0 -70 -14t-24 -46q0 -29 23.5 -43t80.5 -26q31 -6 63.5 -14.5t59.5 -24.5t44 -41t17 -65q0 -85 -48 -123.5t-148 -38.5z" />
    <glyph glyph-name="t" unicode="t" horiz-adv-x="369" 
d="M233 -12q-40 0 -67.5 9t-44 30.5t-23.5 57.5t-7 89v241h-66v85h66v147h100v-147h143v-85h-143v-232q0 -25 1.5 -45t7.5 -33.5t17.5 -20.5t32.5 -7l84 5l5 -80q-38 -8 -62 -11t-44 -3z" />
    <glyph glyph-name="u" unicode="u" horiz-adv-x="510" 
d="M218 -11q-52 0 -84.5 17t-51 49t-25.5 78t-7 105v261h100v-261q0 -31 1.5 -60t10.5 -51.5t29 -35.5t57 -13q24 0 50.5 6.5t61.5 22.5v392h100v-499h-100v31q-41 -22 -73 -32t-69 -10z" />
    <glyph glyph-name="v" unicode="v" horiz-adv-x="498" 
d="M25 500h105l102 -414h33l106 414h102l-133 -500h-183z" />
    <glyph glyph-name="w" unicode="w" horiz-adv-x="760" 
d="M25 500h99l85 -414h19l101 404h103l101 -404h20l83 414h99l-109 -500h-154l-92 356l-91 -356h-155z" />
    <glyph glyph-name="x" unicode="x" horiz-adv-x="475" 
d="M25 0l149 251l-149 249h108l104 -179l105 179h108l-152 -246l151 -254h-107l-105 178l-104 -178h-108z" />
    <glyph glyph-name="y" unicode="y" horiz-adv-x="499" 
d="M124 500l111 -414h29l111 414h99l-195 -717h-98l60 217h-82l-134 500h99z" />
    <glyph glyph-name="z" unicode="z" horiz-adv-x="431" 
d="M30 89l251 323h-251v88h371v-88l-250 -323h250v-89h-371v89z" />
    <glyph glyph-name="braceleft" unicode="{" horiz-adv-x="387" 
d="M335 -131q-52 2 -89.5 12.5t-60.5 31.5t-33.5 53t-9.5 78l7 121q3 79 -109 108v79q57 13 84 37.5t25 65.5l-7 127q-1 47 9 79.5t33.5 53t61 31t91.5 12.5v-86q-55 -4 -76.5 -26t-20.5 -70l7 -125q1 -32 -3.5 -54.5t-17 -38t-33.5 -26t-54 -19.5q32 -9 53.5 -20
t33.5 -27.5t17 -39.5t4 -55l-7 -116q-2 -50 20 -73.5t76 -26.5z" />
    <glyph glyph-name="bar" unicode="|" horiz-adv-x="231" 
d="M68 711h99v-928h-99v928z" />
    <glyph glyph-name="braceright" unicode="}" horiz-adv-x="389" 
d="M53 -45q55 3 77 26.5t20 73.5l-7 116q-1 32 4 55t17 39.5t33.5 27.5t53.5 20q-33 9 -54 19.5t-33.5 26t-17 38t-3.5 54.5l7 125q1 48 -20.5 70t-76.5 26v86q54 -2 91.5 -12.5t60.5 -31t33.5 -53t8.5 -79.5l-7 -127q-1 -41 25.5 -65.5t83.5 -37.5v-79q-110 -29 -109 -108
l7 -121q2 -46 -8.5 -78t-33.5 -53t-60 -31.5t-90 -12.5z" />
    <glyph glyph-name="asciitilde" unicode="~" horiz-adv-x="570" 
d="M384 185q-29 0 -104 27q-78 27 -96 27q-9 0 -23.5 -5t-29.5 -11.5t-29 -14t-23 -13.5l-11 81q62 53 119 53q29 0 104 -27q74 -27 94 -27q11 0 25 4.5t28.5 10.5t28.5 13.5t23 13.5l9 -80q-25 -23 -57 -37.5t-58 -14.5z" />
    <glyph glyph-name="exclamdown" unicode="&#xa1;" horiz-adv-x="247" 
d="M172 500v-118h-96v118h96zM168 263l9 -450h-107l9 450h89z" />
    <glyph glyph-name="cent" unicode="&#xa2;" horiz-adv-x="456" 
d="M209 33q-92 6 -135.5 56.5t-43.5 158.5q0 107 44 160t135 59v111h84v-114l92 -12l-4 -77q-15 1 -33.5 2t-36.5 1.5t-34 1t-25 0.5q-65 1 -92 -29.5t-27 -102.5q0 -36 6.5 -60.5t21.5 -39.5t39.5 -21.5t60.5 -6.5l121 6l3 -78q-26 -5 -49 -7.5t-43 -3.5v-116h-84v112z" />
    <glyph glyph-name="sterling" unicode="&#xa3;" horiz-adv-x="548" 
d="M68 86h81v252h-66v86h66v56q0 50 7 86t25 59.5t48 34.5t75 11q33 0 71.5 -6t70.5 -14l-2 -79q-41 5 -68.5 7t-51.5 2q-25 0 -40 -8t-23.5 -23t-11.5 -35.5t-3 -44.5v-46h164v-86h-164v-252h142l74 16l16 -84l-82 -18h-328v86z" />
    <glyph glyph-name="currency" unicode="&#xa4;" horiz-adv-x="608" 
d="M70 88l71 71q-25 43 -25 93t25 93l-71 72l70 69l70 -72q44 26 94 26q47 0 93 -26l72 72l69 -69l-72 -72q26 -46 26 -93q0 -50 -26 -93l72 -71l-69 -69l-72 71q-44 -25 -93 -25q-52 0 -93 25l-71 -72zM304 149q21 0 39.5 8.5t32.5 22.5t22.5 32.5t8.5 39.5t-8.5 39.5
t-22.5 32.5t-32.5 22.5t-39.5 8.5t-39.5 -8.5t-32.5 -22.5t-22.5 -32.5t-8.5 -39.5q0 -42 31 -72q31 -31 72 -31z" />
    <glyph glyph-name="yen" unicode="&#xa5;" horiz-adv-x="670" 
d="M285 151h-172v79h172v80h-173v80h120l-162 270h114l152 -245l150 245h114l-160 -270h117v-80h-169v-80h169v-79h-169v-151h-103v151z" />
    <glyph glyph-name="brokenbar" unicode="&#xa6;" horiz-adv-x="231" 
d="M68 711h99v-374h-99v374zM68 162h99v-379h-99v379z" />
    <glyph glyph-name="section" unicode="&#xa7;" horiz-adv-x="544" 
d="M268 -167q-44 0 -90 6t-90 14l10 81q108 -15 163 -15q114 0 114 82q0 24 -16.5 39t-39 24t-47 14t-41.5 9q-36 8 -66 18.5t-51.5 28t-33.5 43t-12 61.5q0 14 5.5 32.5t14 37t19.5 34.5t22 25q-44 32 -44 110q0 169 202 169q18 0 39.5 -2t44 -5t44.5 -6.5t41 -6.5l-5 -82
q-55 8 -95.5 12t-69.5 4q-56 0 -80.5 -19t-24.5 -62q0 -20 9 -33t25.5 -22t41 -15.5t55.5 -13.5q33 -7 63.5 -17.5t53.5 -27t36.5 -41.5t13.5 -61q0 -69 -47 -136q20 -18 29 -42t9 -62q0 -91 -49.5 -133t-152.5 -42zM356 148q10 13 16 38t5 51q-1 32 -21 47.5t-70 26.5
q-8 1 -20.5 3.5t-26 6t-25.5 6.5t-20 6q-26 -44 -26 -79q0 -19 4 -31.5t14.5 -21.5t29 -15t46.5 -12q30 -7 53.5 -13t40.5 -13z" />
    <glyph glyph-name="copyright" unicode="&#xa9;" horiz-adv-x="674" 
d="M338 157q-76 0 -138 36q-62 37 -97 101t-35 142q0 76 35 140q35 63 96 99.5t139 36.5q75 0 137 -37q62 -38 96 -101.5t34 -141.5t-34 -140q-35 -63 -95.5 -99t-137.5 -36zM336 207q62 0 111 30q50 30 78 81.5t28 114.5t-28 115q-29 53 -78.5 83.5t-109.5 30.5
q-92 0 -155 -67q-62 -66 -62 -161q0 -64 28 -114q29 -53 78 -83t110 -30zM340 273q-65 0 -92.5 37t-27.5 125q0 44 6.5 74.5t21.5 49t38.5 27t57.5 8.5q41 0 69 -9l10 -3l-6 -67q-36 6 -67 6q-30 0 -40.5 -18t-10.5 -66t11 -69.5t39 -21.5l68 6l6 -65q-36 -14 -83 -14z" />
    <glyph glyph-name="guillemotleft" unicode="&#xab;" horiz-adv-x="540" 
d="M40 208v75l203 152v-101l-117 -86l117 -97v-102zM297 208v75l203 152v-101l-118 -86l118 -97v-102z" />
    <glyph glyph-name="registered" unicode="&#xae;" horiz-adv-x="674" 
d="M339 157q-77 0 -139 36q-62 37 -97 100.5t-35 141.5q0 77 35 141q35 63 96 99.5t138 36.5q75 0 138 -37q61 -37 95.5 -100.5t34.5 -141.5q0 -79 -34 -141q-35 -63 -95 -99t-137 -36zM337 207q61 0 110 30q50 31 78 82.5t28 114.5t-28 115q-29 52 -78.5 82.5t-109.5 30.5
t-111 -31q-50 -31 -78 -83t-28 -114t28 -114q29 -52 79 -82.5t110 -30.5zM222 587h121q55 0 84.5 -23t29.5 -68t-9.5 -66.5t-35.5 -36.5l49 -113h-75l-40 101h-54v-101h-70v307zM341 438q44 0 44 46t-50 46h-44v-92h50z" />
    <glyph glyph-name="degree" unicode="&#xb0;" horiz-adv-x="429" 
d="M213 409q-64 0 -104.5 39.5t-40.5 104.5t40 105t105 40q32 0 58.5 -10.5t46 -29.5t30.5 -46t11 -59q0 -65 -40.5 -104.5t-105.5 -39.5zM213 467q38 0 61.5 24t23.5 62t-23.5 62.5t-61.5 24.5t-60.5 -24.5t-22.5 -62.5t22.5 -62t60.5 -24z" />
    <glyph glyph-name="plusminus" unicode="&#xb1;" horiz-adv-x="595" 
d="M251 290h-181v89h181v119h91v-119h183v-89h-183v-116h-91v116zM70 120h455v-90h-455v90z" />
    <glyph glyph-name="paragraph" unicode="&#xb6;" horiz-adv-x="657" 
d="M261 308h-7q-40 0 -74 15t-59 41t-39 61t-14 75t14 74.5t39 59.5t59.5 39t75.5 14h330v-85h-57v-602h-88v602h-92v-602h-88v308z" />
    <glyph glyph-name="periodcentered" unicode="&#xb7;" horiz-adv-x="246" 
d="M76 339h96v-118h-96v118z" />
    <glyph glyph-name="guillemotright" unicode="&#xbb;" horiz-adv-x="540" 
d="M40 150l118 98l-118 86v101l203 -152v-75l-203 -159v101zM297 150l118 98l-118 86v101l203 -152v-75l-203 -159v101z" />
    <glyph glyph-name="questiondown" unicode="&#xbf;" horiz-adv-x="494" 
d="M314 293q6 -11 11 -24q5 -11 8 -24.5t3 -27.5q0 -18 -13.5 -38t-32 -39t-38.5 -36t-33 -29q-17 -16 -27.5 -28t-16.5 -23.5t-8.5 -24t-2.5 -28.5q0 -40 27.5 -59t87.5 -19q23 0 60 4.5t88 15.5l5 -78q-48 -16 -92.5 -24.5t-82.5 -7.5q-100 1 -149 36t-49 119
q0 33 3.5 57.5t13 45.5t26.5 40t44 40q37 29 62 58t25 61v33h81zM324 383h-96v117h96v-117z" />
    <glyph glyph-name="multiply" unicode="&#xd7;" horiz-adv-x="566" 
d="M347 253l149 -149l-64 -64l-149 150l-149 -150l-64 64l150 149l-150 149l64 64l149 -149l149 149l64 -64z" />
    <glyph glyph-name="divide" unicode="&#xf7;" horiz-adv-x="518" 
d="M210 586h99v-114h-99v114zM70 390h378v-92h-378v92zM210 216h99v-114h-99v114z" />
    <glyph glyph-name="tilde" unicode="&#x2dc;" horiz-adv-x="570" 
d="M384 185q-29 0 -104 27q-78 27 -96 27q-9 0 -23.5 -5t-29.5 -11.5t-29 -14t-23 -13.5l-11 81q62 53 119 53q29 0 104 -27q74 -27 94 -27q11 0 25 4.5t28.5 10.5t28.5 13.5t23 13.5l9 -80q-25 -23 -57 -37.5t-58 -14.5z" />
    <glyph glyph-name="uni060C" unicode="&#x60c;" horiz-adv-x="274" 
d="M170 -54q-16 6 -30 11.5t-26 12.5q-15 8 -29 23t-15 36q-1 17 5.5 36.5t10.5 30.5l43 125l58 -20l-44 -130l62 -23z" />
    <glyph glyph-name="uni060D" unicode="&#x60d;" horiz-adv-x="224" 
d="M118 -117h-78l46 231h104z" />
    <glyph glyph-name="uni061B" unicode="&#x61b;" horiz-adv-x="275" 
d="M193 -1h-100v119h100v-119zM169 268q-13 4 -27 9t-27 13q-17 10 -31 25.5t-15 35.5q0 13 5.5 32.5t10.5 33.5l43 124l58 -20l-44 -130l62 -23z" />
    <glyph glyph-name="uni061F" unicode="&#x61f;" horiz-adv-x="494" 
d="M233 209v33q0 32 -25 61t-62 58q-27 21 -44 40t-26.5 40t-13 45.5t-3.5 57.5q0 84 49 119t149 36q38 1 83 -7.5t93 -24.5l-6 -78q-51 11 -88 15.5t-60 4.5q-60 0 -87.5 -19t-27.5 -59q0 -18 3 -31.5t10 -25t17 -22.5t25 -25q13 -12 33 -29t38.5 -36t32 -39.5t13.5 -40.5
q0 -13 -3 -25.5t-8 -23.5q-5 -13 -11 -24h-81zM324 2h-96v117h96v-117z" />
    <glyph glyph-name="uni0640" unicode="&#x640;" horiz-adv-x="168" 
d="M0 98h168q14 0 14 -14v-70q0 -14 -14 -14h-168q-14 0 -14 14v70q0 14 14 14z" />
    <glyph glyph-name="uni0653" unicode="&#x653;" 
d="M-57 826h196v-73h-192q-11 0 -17.5 -7t-6.5 -16v-30h-63l1 43q0 35 25 59t57 24z" />
    <glyph glyph-name="uni0653" unicode="&#x6e4;" 
d="M-57 826h196v-73h-192q-11 0 -17.5 -7t-6.5 -16v-30h-63l1 43q0 35 25 59t57 24z" />
    <glyph glyph-name="uni0654" unicode="&#x654;" 
d="M131 815l16 -57l-284 -58l-11 60l81 14q-1 1 -4 6t-5 15q-1 4 -2.5 14t-3.5 16q-5 27 2.5 47.5t20.5 34.5t29.5 22t30.5 10l82 9l8 -63l-83 -9q-14 -2 -25.5 -12t-6.5 -33l8 -47q19 4 44 9t48 10q27 6 55 12z" />
    <glyph glyph-name="uni0655" unicode="&#x655;" 
d="M132 -135l15 -56l-284 -58l-10 59l81 14q-1 1 -4 6t-5 14l-1 4t-2 9t-1.5 9.5t-0.5 5.5q-5 28 2 49t20 35.5t29.5 22.5t30.5 10l82 10l8 -63l-89 -11q-11 -2 -21.5 -10.5t-6.5 -28.5l10 -52q19 4 44 9t48 10q27 6 55 12z" />
    <glyph glyph-name="uni0656" unicode="&#x656;" 
d="M-29 -147v147h58v-147h-58z" />
    <glyph glyph-name="uni0660" unicode="&#x660;" horiz-adv-x="279" 
d="M73 52v134h133v-134h-133z" />
    <glyph glyph-name="uni0661" unicode="&#x661;" horiz-adv-x="261" 
d="M103 -1v421q0 93 -18 183l-15 67l87 16l15 -76q9 -48 14 -95.5t5 -95.5v-420h-88z" />
    <glyph glyph-name="uni0662" unicode="&#x662;" horiz-adv-x="534" 
d="M159 686l4 -17t9 -43t10 -58t7 -63q2 -23 21 -37t42 -14h140v228h87v-225q0 -44 -28 -72t-72 -28h-116q-24 0 -42 9.5t-27 20.5l-1 -388h-87v421q0 47 -5 92.5t-14 90.5l-14 67z" />
    <glyph glyph-name="uni0663" unicode="&#x663;" horiz-adv-x="707" 
d="M652 462q0 -22 -8 -41t-22.5 -33t-33.5 -22.5t-41 -8.5h-62q-32 0 -60 13.5t-48 36.5q-21 -23 -50.5 -36.5t-64.5 -13.5q-20 0 -38 5t-33 18v-381h-88v421q0 95 -19 183l-14 67l86 16q0 -2 4 -18t8.5 -41t10 -56.5t8.5 -64.5q1 -18 17.5 -35t45.5 -17h14q26 0 45 16.5
t24 40.5l34 167l86 -16l-28 -140q-3 -26 14 -47t46 -21h80l-1 229l88 -1v-220z" />
    <glyph glyph-name="uni0664" unicode="&#x664;" horiz-adv-x="466" 
d="M213 681h138v-92h-147q-22 0 -36.5 -19t-9.5 -42l15 -80q2 -9 7.5 -19t13.5 -17.5t17.5 -11.5t17.5 -1l126 35l23 -83l-163 -48q-25 -7 -43 -29.5t-18 -48.5l-1 -78q0 -21 15 -36t37 -15h207v-96h-200q-29 0 -55 11t-45 29.5t-30 44.5t-11 56v79q1 44 18 77t44 56
q-14 14 -24.5 32t-14.5 39l-18 92q-6 33 2 62.5t27 52.5t47 36.5t61 13.5z" />
    <glyph glyph-name="uni0665" unicode="&#x665;" horiz-adv-x="599" 
d="M359 567q41 -39 76 -79.5t60.5 -86.5t40 -99.5t14.5 -119.5q0 -37 -10 -70.5t-30 -58t-50.5 -39t-72.5 -14.5h-174q-42 0 -72.5 14.5t-50.5 39t-29.5 58t-9.5 70.5q0 63 13.5 113t38 94t58.5 84.5t75 84.5l-62 58l53 75zM397 98q28 0 46.5 19t18.5 64q0 48 -7.5 86.5
t-26 74.5t-49.5 73.5t-79 82.5q-48 -46 -79 -84t-49.5 -74t-26 -74t-7.5 -85q0 -45 19 -64t46 -19h194z" />
    <glyph glyph-name="uni0666" unicode="&#x666;" horiz-adv-x="526" 
d="M423 687v-421q0 -94 19 -182l14 -68l-86 -15l-15 75q-10 48 -14.5 95.5t-4.5 95.5v312q-7 0 -23.5 -1t-35.5 -1.5t-36 -1.5t-25 -1q-27 0 -55 2.5t-54 5.5t-47.5 6t-34.5 5l8 90q13 -1 35 -3.5t48.5 -5t55 -4t54.5 -1.5q34 0 68.5 3t62.5 6t46 6t20 3z" />
    <glyph glyph-name="uni0667" unicode="&#x667;" horiz-adv-x="586" 
d="M253 0q-23 166 -58.5 284t-70 194.5t-60 114t-28.5 41.5l71 59q2 -2 15 -22.5t32 -55t41 -81t42 -101.5t35.5 -116.5t21.5 -125.5q2 46 13.5 96.5t28 101.5t36.5 99.5t40 89.5t38 71t30 44l71 -59q-2 -3 -16 -23.5t-35 -57.5t-46 -90.5t-48.5 -123t-43 -154.5t-28.5 -185
h-81z" />
    <glyph glyph-name="uni0668" unicode="&#x668;" horiz-adv-x="586" 
d="M333 693q10 -100 29 -185t42.5 -154.5t48.5 -123t46 -90.5t35 -57.5t16 -23.5l-71 -59q-12 14 -30 44t-38 71t-40 89.5t-36.5 99.5t-28 102t-13.5 96q-6 -64 -21.5 -125.5t-35.5 -116.5t-42 -101.5t-41 -81t-32 -55t-15 -22.5l-71 59q3 5 28.5 42t60 113.5t70 194.5
t58.5 284h81z" />
    <glyph glyph-name="uni0669" unicode="&#x669;" horiz-adv-x="505" 
d="M320 536q0 25 -16 40t-39 15h-71q-20 0 -34.5 -12t-18.5 -32l-15 -80q-5 -24 9.5 -40t36.5 -16h148v125zM403 265q-1 -46 4 -91t14 -91l14 -68l-81 -15l-15 75q-10 48 -14.5 95.5t-4.5 95.5v56q-5 -2 -15.5 -5.5t-26.5 -3.5h-97q-33 0 -61 12.5t-47 35t-27 53t-2 65.5
l18 92q5 24 17.5 45t30.5 36t41 23.5t48 8.5h56q30 0 57 -11.5t47.5 -32t32 -47.5t11.5 -57v-271z" />
    <glyph glyph-name="uni066A" unicode="&#x66a;" horiz-adv-x="503" 
d="M25 39l392 632l46 -31l-393 -631zM330 9v134h133v-134h-133zM29 536v134h133v-134h-133z" />
    <glyph glyph-name="uni066B" unicode="&#x66b;" horiz-adv-x="158" 
d="M118 -117h-78l46 231h104z" />
    <glyph glyph-name="uni066C" unicode="&#x66c;" horiz-adv-x="158" 
d="M118 395h-78l46 231h104z" />
    <glyph glyph-name="uni066D" unicode="&#x66d;" horiz-adv-x="267" 
d="M213 489l-105 -79l-38 48l107 79l-104 75l37 51l104 -76l40 124l60 -20l-39 -125h127v-60h-128l39 -123l-59 -18z" />
    <glyph glyph-name="uni0670" unicode="&#x670;" 
d="M-29 700v147h58v-147h-58z" />
    <glyph glyph-name="uni06F0" unicode="&#x6f0;" horiz-adv-x="466" 
d="M257 398q31 0 58 -11.5t47.5 -31.5t32 -47t11.5 -58v-51q0 -30 -11.5 -57t-32 -47.5t-47.5 -32t-58 -11.5h-49q-30 0 -57 11.5t-47.5 32t-32 47.5t-11.5 57v51q0 31 11.5 58t31.5 47t47 31.5t58 11.5h49zM318 203v48q0 23 -16 38.5t-40 15.5h-58q-23 0 -39 -15.5
t-16 -38.5v-48q0 -23 16 -38.5t39 -15.5h58q24 0 40 15.5t16 38.5z" />
    <glyph glyph-name="uni06F1" unicode="&#x6f1;" horiz-adv-x="256" 
d="M103 -1v421q0 47 -5 92.5t-14 90.5l-14 67l82 16l15 -76q9 -48 14 -95.5t5 -95.5v-420h-83z" />
    <glyph glyph-name="uni06F2" unicode="&#x6f2;" horiz-adv-x="532" 
d="M151 686l4 -17t9 -43t10 -58t7 -63q2 -23 21 -37t42 -14h140v228h87v-225q0 -44 -28 -72t-72 -28h-112q-21 0 -40 7t-34 26v-391h-82v421q0 47 -5 92.5t-14 90.5l-14 67z" />
    <glyph glyph-name="uni06F3" unicode="&#x6f3;" horiz-adv-x="702" 
d="M647 458q0 -44 -28 -72t-72 -28h-67q-33 0 -60.5 14t-47.5 43q-22 -29 -48.5 -43t-61.5 -14q-20 0 -40.5 6.5t-35.5 26.5v-392h-83v422q0 95 -19 183l-14 67l81 16q0 -2 4 -18t8.5 -41t10 -56.5t8.5 -64.5q1 -18 17.5 -35t45.5 -17h14q26 0 45 16.5t24 40.5l34 167
l81 -16l-28 -140q-3 -26 14 -47t46 -21h89v229h83v-226z" />
    <glyph glyph-name="uni06F4" unicode="&#x6f4;" horiz-adv-x="632" 
d="M572 394q-25 -3 -63.5 -9t-82.5 -12t-89 -10.5t-83 -4.5q-19 0 -36.5 5t-32.5 18v-380h-82v420q0 63 -10 126.5t-23 123.5l81 16q2 -12 6 -31.5t8.5 -43.5t8.5 -51t7 -54q5 -23 21.5 -37.5t39.5 -14.5h40q-2 3 -5 10t-4 16q-3 15 -5 28q-2 12 -4.5 24t-4.5 20
q-6 33 3 63.5t28 53t47 36t59 13.5h132v-87h-143q-26 0 -38.5 -19t-8.5 -42l22 -113q19 1 52 4t65.5 6.5t56.5 6.5l24 3z" />
    <glyph glyph-name="uni06F5" unicode="&#x6f5;" horiz-adv-x="679" 
d="M275 589l-38 34l56 72l115 -106q34 -31 71.5 -70.5t68.5 -89t51 -111t20 -136.5q0 -37 -9.5 -70.5t-29.5 -58t-50 -39t-72 -14.5q-37 0 -65 14t-53 41q-25 -26 -54.5 -40.5t-64.5 -14.5q-43 0 -73.5 15t-49.5 40.5t-28 58t-9 68.5q0 68 18.5 125.5t48.5 107t68.5 92.5
t78.5 82zM339 531q-47 -45 -83 -84.5t-60 -80t-36 -85t-12 -99.5q0 -35 15.5 -59.5t52.5 -24.5h10q26 0 45 16t27 48l21 90l86 -15l-20 -88q5 -18 25 -34.5t43 -16.5h10q37 0 53 23.5t16 60.5q0 56 -11.5 101t-35.5 85t-60.5 79t-85.5 84z" />
    <glyph glyph-name="uni06F6" unicode="&#x6f6;" horiz-adv-x="596" 
d="M256 746l45 -64l-121 -102q-8 -7 -13 -16.5t-5.5 -19.5t3 -19.5t12.5 -16.5l143 -107q26 35 54.5 68t60.5 64l55 53l61 -61l-50 -47q-18 -17 -33 -32.5t-29 -32t-27.5 -34.5t-29.5 -41l-240 -346l-72 51l211 299q-11 0 -27.5 6.5t-25.5 13.5l-95 74q-27 21 -39 49.5
t-11 58.5t15 58.5t39 48.5z" />
    <glyph glyph-name="uni06F7" unicode="&#x6f7;" horiz-adv-x="586" 
d="M253 0q-19 155 -55.5 272.5t-72.5 198.5q-42 94 -89 163l71 59l12 -19t30.5 -53t40.5 -79.5t42.5 -98.5t37 -111.5t23.5 -116.5q5 44 15.5 88t24.5 86t30.5 80.5t32.5 72.5q39 79 84 151l71 -59q-51 -79 -95 -177q-18 -42 -37 -92.5t-35.5 -108t-29.5 -122t-20 -134.5
h-81z" />
    <glyph glyph-name="uni06F8" unicode="&#x6f8;" horiz-adv-x="586" 
d="M334 693q7 -70 20 -134t29.5 -122t35.5 -108.5t37 -92.5q44 -98 95 -177l-71 -59q-45 72 -84 151q-16 34 -32.5 73t-30.5 81t-24.5 85.5t-15.5 87.5q-7 -58 -23.5 -116.5t-37 -111.5t-42.5 -98.5t-40.5 -79.5t-30.5 -53l-12 -19l-71 59q47 69 89 163q36 81 72.5 198.5
t55.5 272.5h81z" />
    <glyph glyph-name="uni06F9" unicode="&#x6f9;" horiz-adv-x="499" 
d="M318 536q0 25 -16 40t-39 15h-71q-20 0 -34.5 -12t-18.5 -32l-15 -80q-5 -24 9.5 -40t36.5 -16h148v125zM401 265q-1 -46 4 -91t14 -91l14 -68l-81 -15l-15 75q-10 48 -15 95.5t-4 95.5v56q-5 -2 -15.5 -5.5t-26.5 -3.5h-97q-33 0 -61 12.5t-47 35t-27 53t-2 65.5l18 92
q5 24 17.5 45t30.5 36t41 23.5t48 8.5h56q30 0 57 -11.5t47.5 -32t32 -47.5t11.5 -57v-271z" />
    <glyph glyph-name="uni200B" unicode="&#x200b;" horiz-adv-x="333" 
 />
    <glyph glyph-name="uni200C" unicode="&#x200c;" horiz-adv-x="333" 
 />
    <glyph glyph-name="endash" unicode="&#x2013;" horiz-adv-x="640" 
d="M70 310h500v-86h-500v86z" />
    <glyph glyph-name="emdash" unicode="&#x2014;" horiz-adv-x="1140" 
d="M70 310h1000v-86h-1000v86z" />
    <glyph glyph-name="quoteleft" unicode="&#x2018;" horiz-adv-x="230" 
d="M113 696h77l-45 -231h-105z" />
    <glyph glyph-name="quoteright" unicode="&#x2019;" horiz-adv-x="230" 
d="M117 466h-77l46 230h104z" />
    <glyph glyph-name="quotesinglbase" unicode="&#x201a;" horiz-adv-x="239" 
d="M112 114h78l-46 -231h-104z" />
    <glyph glyph-name="quotedblleft" unicode="&#x201c;" horiz-adv-x="396" 
d="M113 696h77l-45 -230h-105zM279 696h77l-45 -230h-105z" />
    <glyph glyph-name="quotedblright" unicode="&#x201d;" horiz-adv-x="396" 
d="M283 466h-77l46 231h104zM118 466h-78l46 231h104z" />
    <glyph glyph-name="quotedblbase" unicode="&#x201e;" horiz-adv-x="396" 
d="M112 114h78l-46 -231h-104zM279 114h77l-46 -231h-104z" />
    <glyph glyph-name="dagger" unicode="&#x2020;" horiz-adv-x="554" 
d="M227 414h-159v86h159v187h99v-187h158v-86h-158l-7 -488h-86z" />
    <glyph glyph-name="daggerdbl" unicode="&#x2021;" horiz-adv-x="555" 
d="M227 113h-159v86h159v215h-159v86h159v187h99v-187h157v-86h-157v-215h158v-86h-158v-187h-99v187z" />
    <glyph glyph-name="bullet" unicode="&#x2022;" horiz-adv-x="428" 
d="M89 109v288h250v-288h-250z" />
    <glyph glyph-name="ellipsis" unicode="&#x2026;" horiz-adv-x="755" 
d="M75 118h96v-118h-96v118zM329 118h96v-118h-96v118zM585 118h95v-118h-95v118z" />
    <glyph glyph-name="guilsinglleft" unicode="&#x2039;" horiz-adv-x="283" 
d="M40 208v75l203 152v-101l-117 -86l117 -98v-101z" />
    <glyph glyph-name="guilsinglright" unicode="&#x203a;" horiz-adv-x="283" 
d="M40 155l118 97l-118 86v101l203 -152v-75l-203 -159v102z" />
    <glyph glyph-name="fraction" unicode="&#x2044;" horiz-adv-x="126" 
d="M-214 29l392 632l46 -31l-393 -631z" />
    <glyph glyph-name="Euro" unicode="&#x20ac;" horiz-adv-x="631" 
d="M369 -11q-111 0 -165.5 59.5t-69.5 171.5h-64v77h58v84h-58v78h64q6 60 22.5 102.5t44.5 69.5t70 39.5t99 12.5q44 0 90.5 -6.5t99.5 -17.5l-3 -81q-46 8 -87.5 12t-79.5 4t-65 -7t-45 -23t-28.5 -41.5t-15.5 -63.5h265v-78h-271v-84h271v-77h-263q10 -70 43.5 -105.5
t107.5 -35.5q75 0 168 15l3 -83q-50 -11 -97.5 -16.5t-93.5 -5.5z" />
    <glyph glyph-name="trademark" unicode="&#x2122;" horiz-adv-x="652" 
d="M144 574h-76v62h200v-62h-55v-242h-69v242zM296 636h86l55 -187l60 187h83v-305h-64v203l-53 -186h-48l-54 186v-203h-65v305z" />
    <glyph glyph-name="minus" unicode="&#x2212;" horiz-adv-x="571" 
d="M70 296h431v-90h-431v90z" />
    <glyph glyph-name="uniFBB2" unicode="&#xfbb2;" 
d="M275 95h96l-1 -94h-95v94z" />
    <glyph glyph-name="uniFBB3" unicode="&#xfbb3;" 
d="M275 0h96v-95h-96v95z" />
    <glyph glyph-name="uniFBB4" unicode="&#xfbb4;" 
d="M212 95h95v-95h-95v95zM359 95h95v-95h-95v95z" />
    <glyph glyph-name="uniFBB5" unicode="&#xfbb5;" 
d="M212 0h95v-95h-95v95zM359 0h95v-95h-95v95z" />
    <glyph glyph-name="uniFBB6" unicode="&#xfbb6;" 
d="M452 0h-95v95h95v-95zM305 0h-95v95h95v-95zM376 132h-95v95h95v-95z" />
    <glyph glyph-name="uniFBB7" unicode="&#xfbb7;" 
d="M212 0h95v-95h-95v95zM359 0h95v-95h-95v95zM286 -132h95v-95h-95v95z" />
    <glyph glyph-name="uniFBB7" unicode="&#xfbb9;" 
d="M212 0h95v-95h-95v95zM359 0h95v-95h-95v95zM286 -132h95v-95h-95v95z" />
    <glyph glyph-name="uniFE70FE7C" 
d="M102 700h-42q-35 0 -58 25q-25 -25 -63 -25q-19 0 -36 7t-29.5 20t-20 30t-7.5 36v80h59v-80q0 -12 9 -20.5t20 -8.5h7q11 0 20.5 7.5t11.5 18.5l16 77l57 -10l-13 -67q-2 -13 7 -19.5t20 -6.5h41v113h59v-120q0 -26 -16 -41.5t-42 -15.5zM-161 978l309 66l13 -55
l-312 -67zM-161 1100l309 66l13 -55l-312 -67z" />
    <glyph glyph-name="uniFB8E.alt" horiz-adv-x="1110" 
d="M259 0q-40 0 -75 15t-60 40.5t-39.5 60t-14.5 73.5v173h82v-168q0 -41 27.5 -68.5t69.5 -27.5h668q23 0 38.5 16t15.5 39v69q0 25 -17 42.5t-42 17.5h-474l-60 56l273 320l60 -55l-196 -231h390q31 0 58 -11.5t47 -32t31.5 -47.5t11.5 -57v-75q0 -31 -12 -58t-32.5 -47.5
t-47 -32t-56.5 -11.5h-646z" />
    <glyph glyph-name="uniFB8F.alt" horiz-adv-x="1163" 
d="M259 0q-40 0 -75 15t-60 40.5t-39.5 60t-14.5 73.5v173h82v-168q0 -41 27 -68.5t69 -27.5h669q23 0 38.5 16t15.5 39v69q0 25 -17 42.5t-42 17.5h-474l-60 56l273 320l60 -55l-196 -231h390q31 0 58 -11.5t47 -32t31.5 -47.5t11.5 -57v-63q1 -26 19.5 -44.5t44.5 -18.5
h46q6 0 10 -4.5t4 -10.5v-68q0 -6 -4 -10.5t-10 -4.5h-31q-35 0 -65.5 15t-51.5 42q-20 -27 -48.5 -42t-61.5 -15h-646z" />
    <glyph glyph-name="uniFB91.alt" horiz-adv-x="832" 
d="M721 161q0 -26 19.5 -44.5t45.5 -18.5h46q14 0 14 -14v-70q0 -5 -4 -9.5t-10 -4.5h-32q-35 0 -65.5 14.5t-51.5 42.5q-42 -57 -112 -57h-571q-6 0 -10 4.5t-4 9.5v70q0 14 14 14h584q22 0 38 15.5t16 38.5v68q1 26 -16.5 43t-42.5 17h-472l-61 57l273 319l60 -55
l-196 -231h390q31 0 58 -11.5t47 -31.5t31.5 -47t11.5 -58v-61z" />
    <glyph glyph-name="uniFB90.alt" horiz-adv-x="778" 
d="M107 280l-61 57l273 319l60 -55l-196 -231h390q31 0 58 -11.5t47 -31.5t31.5 -47t11.5 -58v-74q0 -31 -12 -58.5t-32.5 -47t-48 -31t-57.5 -11.5h-571q-6 0 -10 4.5t-4 9.5v70q0 14 14 14h584q22 0 38.5 16t16.5 39v67q1 26 -16.5 43t-42.5 17h-473z" />
    <glyph glyph-name="uniFB92.alt" horiz-adv-x="1110" 
d="M259 0q-40 0 -75 15t-60 40.5t-39.5 60t-14.5 73.5v173h82v-168q0 -41 27 -68.5t69 -27.5h669q23 0 38.5 16t15.5 39v69q0 25 -17 42.5t-42 17.5h-474l-60 56l273 320l60 -55l-196 -231h390q31 0 58 -11.5t47 -32t31.5 -47.5t11.5 -57v-75q0 -31 -12 -58t-32.5 -47.5
t-47 -32t-56.5 -11.5h-646zM368 420l211 247l-44 40l-212 -250z" />
    <glyph glyph-name="uniFB93.alt" horiz-adv-x="1163" 
d="M259 0q-40 0 -75 15t-60 40.5t-39.5 60t-14.5 73.5v173h82v-168q0 -41 27 -68.5t69 -27.5h669q23 0 38.5 16t15.5 39v69q0 25 -17 42.5t-42 17.5h-474l-60 56l273 320l60 -55l-196 -231h390q31 0 58 -11.5t47 -32t31.5 -47.5t11.5 -57v-63q1 -26 19.5 -44.5t44.5 -18.5
h46q6 0 10 -4.5t4 -10.5v-68q0 -6 -4 -10.5t-10 -4.5h-31q-35 0 -65.5 15t-51.5 42q-20 -27 -48.5 -42t-61.5 -15h-646zM324 456l212 250l43 -39l-211 -247z" />
    <glyph glyph-name="uniFB95.alt" horiz-adv-x="897" 
d="M57 455l212 251l43 -40l-211 -248zM786 161q0 -26 19.5 -44.5t45.5 -18.5h46q14 0 14 -14v-70q0 -5 -4 -9.5t-10 -4.5h-32q-35 0 -65.5 14.5t-51.5 42.5q-42 -57 -112 -57h-636q-6 0 -10 4.5t-4 9.5v70q0 14 14 14h649q22 0 38.5 15.5t16.5 38.5v68q1 26 -17 43t-43 17
h-472l-61 57l273 319l60 -55l-196 -231h390q31 0 58 -11.5t47 -31.5t31.5 -47t11.5 -58v-61z" />
    <glyph glyph-name="uniFB94.alt" horiz-adv-x="844" 
d="M172 280l-60 57l272 319l60 -55l-196 -231h390q30 0 57 -11.5t47.5 -31.5t32 -47t11.5 -58v-74q0 -31 -12 -58.5t-32.5 -47.5t-48 -31.5t-57.5 -11.5l-636 1q-6 0 -10 4.5t-4 9.5v69q0 14 14 14h652q20 0 36.5 16t15.5 39v68q0 25 -17.5 42.5t-41.5 17.5h-473zM57 455
l212 250l43 -39l-211 -248z" />
  </font>
</defs>
</svg>
